M48
INCH,TZ
T1C0.0157
T2C0.0197
T3C0.0295
T4C0.0315
T5C0.0354
T6C0.0394
T7C0.0433
T8C0.0598
T9C0.0866
%
G90
G05
T1
X18386Y-24646
X19764Y-48268
X21638Y-57370
X22146Y-29823
X25669Y-61102
X32717Y-26831
X40709Y-26476
X49583Y-67587
X61004Y-54161
X65039Y-54724
X65571Y-72469
X70134Y-69547
X70209Y-72390
X79649Y-72588
X85071Y-57071
X85071Y-62098
X87185Y-45031
X87835Y-50315
X89515Y-73780
X94882Y-72539
X102299Y-66680
X107480Y-40157
X107480Y-41142
X109646Y-40157
X109646Y-40748
X114252Y-71024
X115354Y-72402
X116850Y-73898
X117660Y-48410
X123386Y-43228
X128508Y-42744
X128646Y-22067
X131496Y-20689
X132087Y-73071
X132496Y-40394
X132520Y-19980
X134024Y-40846
X140484Y-48122
X142039Y-17772
T2
X14862Y-23917
X14882Y-48268
X15748Y-23130
X16535Y-22343
X16634Y-34350
X16634Y-35138
X16634Y-59350
X16831Y-55315
X16831Y-57874
X17421Y-35138
X17618Y-59350
X18504Y-35531
X18661Y-22047
X20276Y-22835
X22933Y-50098
X22933Y-51378
X23524Y-33465
X23622Y-52067
X23720Y-50689
X24213Y-57283
X24606Y-20177
X24606Y-20669
X24902Y-22539
X25098Y-20669
X25591Y-22539
X26378Y-55413
X26378Y-56201
X31102Y-65945
X31496Y-57283
X31988Y-56594
X32087Y-35433
X32087Y-36417
X32283Y-33071
X32283Y-59154
X32283Y-59744
X32283Y-62303
X32677Y-59449
X32677Y-66929
X32874Y-35433
X32874Y-36417
X33465Y-62598
X33661Y-56496
X33661Y-63583
X33819Y-73740
X34055Y-33071
X34528Y-73031
X34646Y-62402
X34646Y-64567
X34646Y-66240
X34646Y-67618
X35276Y-72205
X35630Y-33071
X35630Y-56496
X37205Y-33071
X37500Y-56496
X38583Y-47343
X38583Y-47933
X38976Y-47638
X39370Y-59252
X40551Y-21949
X41437Y-56496
X41831Y-57776
X42028Y-21555
X44193Y-22343
X45374Y-23622
X49409Y-27461
X49705Y-37992
X50098Y-30807
X50394Y-35630
X50492Y-27461
X50591Y-32480
X51575Y-26378
X51575Y-45768
X51575Y-46358
X51870Y-32480
X51870Y-63583
X51969Y-20866
X52264Y-45768
X52264Y-46358
X52323Y-43898
X52362Y-48130
X52461Y-21457
X52559Y-26378
X52559Y-37992
X52953Y-62303
X52953Y-63386
X54035Y-62303
X54035Y-63583
X54232Y-37992
X54331Y-30709
X54429Y-59449
X54528Y-45177
X54528Y-61122
X54528Y-64567
X55413Y-43701
X55413Y-58366
X55413Y-59449
X55512Y-45177
X55610Y-36319
X55709Y-31988
X56398Y-43307
X58366Y-38976
X58425Y-72165
X58425Y-73465
X61457Y-56929
X61457Y-72165
X61457Y-73110
X62795Y-57776
X63484Y-57776
X63583Y-73386
X63583Y-73976
X63780Y-52264
X63976Y-43701
X63976Y-44488
X64075Y-57776
X64665Y-44488
X65059Y-56693
X65256Y-69783
X65551Y-53051
X65650Y-43110
X65650Y-56693
X65846Y-70276
X67618Y-53051
X68701Y-50098
X68799Y-52165
X69291Y-62303
X69291Y-62992
X69488Y-35827
X69980Y-49213
X69980Y-49803
X70177Y-62992
X70276Y-36220
X70669Y-49803
X71811Y-70630
X72874Y-70630
X73524Y-47146
X73720Y-33760
X74409Y-47146
X74606Y-33760
X74902Y-69783
X75098Y-43406
X75591Y-43406
X76673Y-32480
X76673Y-33366
X77559Y-53445
X78543Y-56299
X78839Y-42717
X78937Y-53445
X79035Y-32480
X79724Y-32972
X80020Y-53445
X80413Y-33465
X80709Y-38091
X80807Y-54921
X80807Y-71654
X80906Y-64665
X81004Y-51378
X81102Y-34055
X83661Y-55413
X84449Y-55413
X84449Y-56201
X86811Y-35630
X87008Y-33169
X87008Y-33858
X87795Y-33169
X87795Y-33858
X87992Y-48228
X87992Y-49311
X88681Y-22736
X88898Y-42047
X88976Y-48228
X88976Y-49311
X89370Y-22736
X89862Y-49311
X90748Y-23327
X91280Y-29488
X91280Y-32461
X91299Y-41575
X91614Y-37559
X92244Y-37559
X93209Y-22638
X93209Y-23130
X93307Y-36732
X93780Y-33071
X93780Y-37008
X93819Y-42087
X94193Y-22638
X94193Y-23130
X94291Y-30827
X94724Y-30197
X95768Y-49606
X96260Y-49213
X96752Y-49606
X97047Y-68091
X97539Y-59252
X97539Y-60827
X98327Y-63091
X98425Y-60236
X98583Y-71486
X98780Y-67776
X98976Y-70059
X99213Y-72589
X99409Y-61122
X100098Y-69173
X100384Y-71476
X100984Y-29291
X101024Y-43307
X101142Y-70059
X101181Y-72589
X102028Y-43307
X102283Y-61299
X102394Y-68980
X103031Y-43307
X103228Y-58386
X103602Y-62657
X103661Y-61319
X104035Y-43307
X104213Y-30315
X105079Y-34685
X105079Y-35551
X105079Y-36417
X109055Y-19291
X109055Y-20669
X109508Y-48720
X109646Y-21654
X110039Y-41535
X110138Y-39469
X110236Y-19291
X110236Y-20669
X110236Y-47972
X110256Y-48760
X110531Y-68110
X110630Y-22835
X111122Y-68701
X112008Y-66634
X112008Y-67815
X112205Y-38976
X112598Y-20472
X112598Y-22835
X112598Y-26181
X112992Y-38189
X113031Y-43031
X113386Y-31102
X113780Y-21457
X113780Y-24409
X113780Y-41535
X114173Y-29724
X114173Y-31102
X114173Y-32480
X114764Y-40354
X114764Y-41339
X115098Y-45807
X115118Y-45000
X115551Y-45394
X118740Y-59094
X118740Y-68346
X118740Y-68937
X118898Y-73829
X118937Y-29213
X118976Y-38543
X118976Y-39291
X119094Y-49252
X119173Y-18858
X119213Y-59528
X119331Y-68937
X119449Y-29646
X119606Y-59094
X119646Y-48976
X119646Y-49449
X119724Y-39291
X119744Y-18858
X119882Y-68622
X120118Y-29094
X121299Y-73829
X121732Y-42362
X122717Y-41614
X123780Y-42402
X125276Y-51417
X125827Y-52047
X127874Y-27087
X127874Y-58661
X127874Y-59528
X127874Y-60433
X127913Y-29370
X127913Y-30748
X127913Y-32283
X127953Y-48898
X127953Y-49843
X128504Y-60984
X128701Y-48898
X128740Y-49843
X130118Y-16654
X131732Y-67559
X131772Y-57677
X131811Y-37638
X131850Y-17244
X131969Y-47520
X132087Y-27638
X132776Y-52559
X132795Y-73740
X133425Y-32795
X133543Y-72480
X133622Y-57992
X133622Y-67756
X133740Y-37953
X133858Y-27992
X133898Y-47835
X134055Y-17244
X135098Y-22146
X135276Y-73740
X135866Y-28150
X135906Y-67913
X135945Y-58071
X135984Y-37992
X136024Y-72480
X136063Y-47913
X136102Y-17559
X136417Y-52559
X136457Y-28150
X137992Y-22146
X138031Y-73740
X138661Y-37717
X139272Y-68504
X139331Y-32795
X139370Y-58661
X139567Y-71063
X139665Y-31299
X139685Y-50866
X140059Y-67717
X140059Y-68504
X140256Y-52559
X140354Y-57776
X140354Y-58661
X140591Y-73740
X140748Y-55315
X140945Y-26102
X140945Y-67717
X140945Y-68504
X140984Y-45256
X141043Y-35433
X141732Y-67717
X141811Y-45256
X141831Y-55315
X141929Y-57776
X141929Y-58465
X143012Y-62697
X143307Y-58169
X144291Y-17126
X144331Y-65551
X145669Y-18504
X146654Y-63386
X146732Y-44390
X146890Y-26949
X147047Y-62795
X147047Y-63976
X147106Y-27539
X147126Y-43701
X147126Y-45000
X147146Y-26339
T3
X18606Y-66654
X19106Y-66154
X19106Y-67154
T4
X48575Y-60157
X51575Y-60157
X19965Y-54100
X19965Y-55100
X19965Y-56100
X29850Y-43423
X32850Y-43423
X105681Y-70972
X108681Y-70972
X50400Y-21223
X53400Y-21223
X91295Y-26463
X93264Y-26463
X87437Y-26435
X90437Y-26435
X98091Y-20225
X98091Y-22194
X55035Y-32523
X58035Y-32523
X23153Y-21915
X26153Y-21915
X126653Y-19683
X129653Y-19683
X121334Y-25419
X124334Y-25419
X101709Y-15839
X101709Y-18839
X23360Y-56780
X23360Y-58748
X32654Y-68913
X32654Y-70882
X24943Y-33059
X24943Y-35027
X22743Y-33059
X22743Y-35027
X39626Y-69114
X41594Y-69114
X72676Y-33539
X75676Y-33539
X29969Y-19539
X29969Y-22539
X34850Y-48384
X34850Y-50352
X36819Y-42163
X39819Y-42163
X31664Y-26789
X34664Y-26789
X126613Y-37807
X129613Y-37807
X82258Y-66762
X82258Y-69762
X77004Y-71997
X80004Y-71997
X95500Y-18735
X95500Y-21735
X21744Y-66169
X21744Y-69169
X48583Y-67717
X51583Y-67717
X69388Y-61302
X69388Y-64302
X126517Y-57727
X129517Y-57727
X122767Y-26635
X125767Y-26635
X132901Y-70853
X134869Y-70853
X143180Y-66628
X143180Y-69628
X99957Y-34282
X99957Y-37282
X25949Y-48699
X27917Y-48699
X76991Y-42850
X79991Y-42850
X37718Y-29202
X40718Y-29202
X117007Y-27679
X117007Y-30679
X85827Y-18723
X85827Y-21723
X40972Y-46504
X43972Y-46504
X32689Y-21514
X32689Y-24514
X33689Y-21514
X33689Y-24514
X34689Y-21514
X34689Y-24514
X35689Y-21514
X35689Y-24514
X36689Y-21514
X36689Y-24514
X37689Y-21514
X37689Y-24514
X38689Y-21514
X38689Y-24514
X71823Y-38623
X71823Y-41623
X72823Y-38623
X72823Y-41623
X73823Y-38623
X73823Y-41623
X74823Y-38623
X74823Y-41623
X75823Y-38623
X75823Y-41623
X76823Y-38623
X76823Y-41623
X77823Y-38623
X77823Y-41623
X78823Y-38623
X78823Y-41623
X79823Y-38623
X79823Y-41623
X118894Y-33778
X118894Y-36778
X72815Y-69399
X72815Y-72399
X119427Y-37644
X119427Y-40644
X120427Y-37644
X120427Y-40644
X121427Y-37644
X121427Y-40644
X122427Y-37644
X122427Y-40644
X123427Y-37644
X123427Y-40644
X124427Y-37644
X124427Y-40644
X125427Y-37644
X125427Y-40644
X126476Y-67577
X129476Y-67577
X68669Y-46900
X71669Y-46900
X27634Y-56691
X30634Y-56691
X70557Y-65156
X70557Y-68156
X70570Y-38440
X70570Y-41440
X89111Y-40925
X90095Y-40925
X53445Y-28594
X53445Y-30563
X90283Y-57909
X93283Y-57909
X17543Y-61764
X17543Y-62551
X97331Y-61869
X100331Y-61869
X55276Y-65315
X55276Y-68315
X103194Y-34488
X106194Y-34488
X15614Y-64307
X17583Y-64307
X33709Y-67697
X33709Y-68697
X33709Y-69697
X33709Y-70697
X36709Y-67697
X36709Y-68697
X36709Y-69697
X36709Y-70697
X63377Y-35653
X66377Y-35653
X106917Y-53869
X106917Y-56869
X63377Y-38074
X66377Y-38074
X65106Y-65843
X65106Y-68843
X66106Y-65843
X66106Y-68843
X67106Y-65843
X67106Y-68843
X68106Y-65843
X68106Y-68843
X92484Y-23979
X93469Y-23979
X135909Y-20545
X137877Y-20545
X27293Y-31752
X30293Y-31752
X88328Y-43189
X88328Y-46189
X89328Y-43189
X89328Y-46189
X90328Y-43189
X90328Y-46189
X91328Y-43189
X91328Y-46189
X92328Y-43189
X92328Y-46189
X93328Y-43189
X93328Y-46189
X94328Y-43189
X94328Y-46189
X30809Y-39663
X33809Y-39663
X24185Y-17642
X26154Y-17642
X126656Y-48940
X129656Y-48940
X50557Y-26334
X53557Y-26334
X130806Y-30927
X130806Y-32895
X92517Y-40921
X93501Y-40921
X55035Y-31323
X58035Y-31323
X37756Y-64665
X37756Y-66634
X18272Y-26728
X20240Y-26728
X47535Y-67539
X47535Y-69508
X47535Y-60807
X47535Y-62776
X57551Y-58075
X59520Y-58075
X19303Y-62134
X19303Y-65134
X19393Y-32227
X19393Y-33227
X19393Y-34227
X70571Y-47943
X70571Y-50943
X88854Y-29888
X88854Y-32888
X87244Y-36349
X90244Y-36349
X126517Y-62554
X129517Y-62554
X31020Y-20469
X34020Y-20469
X143354Y-26883
X143354Y-29883
X91272Y-22597
X91272Y-24565
X91276Y-15880
X91276Y-17849
X29819Y-48675
X32819Y-48675
X63893Y-39574
X63893Y-41543
X35398Y-54098
X37366Y-54098
X20524Y-61484
X20524Y-63453
X25585Y-56780
X25585Y-58748
X26594Y-52801
X26594Y-53588
X126664Y-45310
X129664Y-45310
X81046Y-66762
X81046Y-69762
X58831Y-68413
X58831Y-70382
X67433Y-57274
X69402Y-57274
X75795Y-48979
X75795Y-50947
X77000Y-48975
X77000Y-50943
X25393Y-27677
X28393Y-27677
X17831Y-51927
X20831Y-51927
X76994Y-69581
X79994Y-69581
X126621Y-27828
X129621Y-27828
X100501Y-23583
X100501Y-26583
X76374Y-47947
X79374Y-47947
X30437Y-54093
X33437Y-54093
X87099Y-43197
X87099Y-46197
X55768Y-49093
X58768Y-49093
X35689Y-18670
X35689Y-20639
X122754Y-36598
X125754Y-36598
X63236Y-49057
X66236Y-49057
X118062Y-67416
X118062Y-70416
X51573Y-27559
X52557Y-27559
X79865Y-36893
X80653Y-36893
X63066Y-28217
X65035Y-28217
X74920Y-28195
X76888Y-28195
X22098Y-20898
X22098Y-23898
X62193Y-48884
X62193Y-51884
X80858Y-52404
X83858Y-52404
X94134Y-35140
X97134Y-35140
X97327Y-63090
X100327Y-63090
X43122Y-62598
X46122Y-62598
X107142Y-26554
X110142Y-26554
X90083Y-53865
X90083Y-56865
X55325Y-42852
X58325Y-42852
X51380Y-20003
X52364Y-20003
X74283Y-56046
X74283Y-58014
X126660Y-52558
X129660Y-52558
X118235Y-17096
X118235Y-20096
X30694Y-16854
X33694Y-16854
X71810Y-65343
X71810Y-68343
X72810Y-65343
X72810Y-68343
X73810Y-65343
X73810Y-68343
X74810Y-65343
X74810Y-68343
X75810Y-65343
X75810Y-68343
X76810Y-65343
X76810Y-68343
X77810Y-65343
X77810Y-68343
X78810Y-65343
X78810Y-68343
X79810Y-65343
X79810Y-68343
X36811Y-43423
X39811Y-43423
X65546Y-44381
X66531Y-44381
X130729Y-60833
X130729Y-62802
X119283Y-21372
X121251Y-21372
X108071Y-65420
X111071Y-65420
X126613Y-39012
X129613Y-39012
X21293Y-24977
X21293Y-25977
X21293Y-26977
X21293Y-27977
X21293Y-28977
X21293Y-29977
X21293Y-30977
X21293Y-31977
X24293Y-24977
X24293Y-25977
X24293Y-26977
X24293Y-27977
X24293Y-28977
X24293Y-29977
X24293Y-30977
X24293Y-31977
X54713Y-48522
X54713Y-51522
X41620Y-29801
X44620Y-29801
X102685Y-51031
X102685Y-53000
X24484Y-44447
X27484Y-44447
X27673Y-21323
X27673Y-22323
X27673Y-23323
X69393Y-34578
X69393Y-37578
X119086Y-71676
X121054Y-71676
X119291Y-67408
X119291Y-70408
X120291Y-67408
X120291Y-70408
X121291Y-67408
X121291Y-70408
X122291Y-67408
X122291Y-70408
X123291Y-67408
X123291Y-70408
X124291Y-67408
X124291Y-70408
X125291Y-67408
X125291Y-70408
X92666Y-47240
X95666Y-47240
X65409Y-57994
X66394Y-57994
X30693Y-30427
X33693Y-30427
X139133Y-16313
X139133Y-19313
X140133Y-16313
X140133Y-19313
X141133Y-16313
X141133Y-19313
X142133Y-16313
X142133Y-19313
X119482Y-47566
X119482Y-50566
X120482Y-47566
X120482Y-50566
X121482Y-47566
X121482Y-50566
X122482Y-47566
X122482Y-50566
X123482Y-47566
X123482Y-50566
X124482Y-47566
X124482Y-50566
X125482Y-47566
X125482Y-50566
X82279Y-40169
X82279Y-43169
X30718Y-35977
X33718Y-35977
X30795Y-52675
X33795Y-52675
X135761Y-61010
X137729Y-61010
X138580Y-61010
X140548Y-61010
X137192Y-15092
X139161Y-15092
X75802Y-62337
X75802Y-64306
X78791Y-48971
X78791Y-50939
X130809Y-36693
X130809Y-39693
X131809Y-36693
X131809Y-39693
X132809Y-36693
X132809Y-39693
X133809Y-36693
X133809Y-39693
X134809Y-36693
X134809Y-39693
X135809Y-36693
X135809Y-39693
X136809Y-36693
X136809Y-39693
X137809Y-36693
X137809Y-39693
X105685Y-68546
X108685Y-68546
X63231Y-62370
X66231Y-62370
X95531Y-65401
X95531Y-67369
X17693Y-33227
X17693Y-36227
X20988Y-44604
X20988Y-47604
X22807Y-63320
X22807Y-64320
X22807Y-65320
X22807Y-66320
X22807Y-67320
X22807Y-68320
X22807Y-69320
X25807Y-63320
X25807Y-64320
X25807Y-65320
X25807Y-66320
X25807Y-67320
X25807Y-68320
X25807Y-69320
X118091Y-57569
X118091Y-60569
X118216Y-27679
X118216Y-30679
X102930Y-23580
X102930Y-26580
X72952Y-42676
X72952Y-45676
X33705Y-66453
X36705Y-66453
X92343Y-42134
X95343Y-42134
X134369Y-14840
X136338Y-14840
X133086Y-20545
X135054Y-20545
X80274Y-63640
X81061Y-63640
X126617Y-40220
X129617Y-40220
X63377Y-36861
X66377Y-36861
X130334Y-65160
X133334Y-65160
X27318Y-34152
X30318Y-34152
X73838Y-35613
X73838Y-37582
X101472Y-57920
X101472Y-58905
X26862Y-61327
X26862Y-64327
X62350Y-35472
X62350Y-38472
X80893Y-39133
X83893Y-39133
X94134Y-33924
X97134Y-33924
X78401Y-35606
X78401Y-37574
X55067Y-44470
X55067Y-47470
X140030Y-45306
X143030Y-45306
X37689Y-25589
X40689Y-25589
X103198Y-29386
X106198Y-29386
X103886Y-57917
X103886Y-58901
X116991Y-37657
X116991Y-40657
X130507Y-14840
X133507Y-14840
X116854Y-67416
X116854Y-70416
X139007Y-56717
X139007Y-59717
X140007Y-56717
X140007Y-59717
X141007Y-56717
X141007Y-59717
X142007Y-56717
X142007Y-59717
X31664Y-19264
X34664Y-19264
X71780Y-47943
X71780Y-50943
X34843Y-41646
X34843Y-43614
X134221Y-55313
X136190Y-55313
X132938Y-61010
X134906Y-61010
X134321Y-35386
X136290Y-35386
X133018Y-40925
X134987Y-40925
X137207Y-45432
X139176Y-45432
X137140Y-35480
X139109Y-35480
X105043Y-63082
X108043Y-63082
X52453Y-61358
X55453Y-61358
X35866Y-39722
X38866Y-39722
X46880Y-27561
X46880Y-30561
X24484Y-45667
X27484Y-45667
X56307Y-55642
X59307Y-55642
X76995Y-45263
X79995Y-45263
X92662Y-48445
X95662Y-48445
X63691Y-69900
X66691Y-69900
X74205Y-69400
X74205Y-71369
X32646Y-65059
X32646Y-68059
X39055Y-45724
X39055Y-48724
X135841Y-40925
X137809Y-40925
X130463Y-35390
X133463Y-35390
X61438Y-66056
X61438Y-69056
X49524Y-26358
X49524Y-29358
X23153Y-20715
X26153Y-20715
X43484Y-68937
X46484Y-68937
X126520Y-55313
X129520Y-55313
X130476Y-25423
X133476Y-25423
X86031Y-35132
X89031Y-35132
X49409Y-30382
X52409Y-30382
X51420Y-22283
X51420Y-25283
X52420Y-22283
X52420Y-25283
X53420Y-22283
X53420Y-25283
X54420Y-22283
X54420Y-25283
X94555Y-68609
X95539Y-68609
X56516Y-67480
X59516Y-67480
X71735Y-42680
X71735Y-45680
X49055Y-62598
X52055Y-62598
X87272Y-42134
X90272Y-42134
X121012Y-41516
X121012Y-43484
X119928Y-36598
X121896Y-36598
X126656Y-47731
X129656Y-47731
X68683Y-60270
X71683Y-60270
X126476Y-68782
X129476Y-68782
X89898Y-63306
X92898Y-63306
X71809Y-61302
X71809Y-64302
X70508Y-19301
X70508Y-20088
X26697Y-65598
X29697Y-65598
X119326Y-57565
X119326Y-60565
X120326Y-57565
X120326Y-60565
X121326Y-57565
X121326Y-60565
X122326Y-57565
X122326Y-60565
X123326Y-57565
X123326Y-60565
X124326Y-57565
X124326Y-60565
X125326Y-57565
X125326Y-60565
X69337Y-66420
X69337Y-69420
X70528Y-51806
X70528Y-54806
X130688Y-70676
X130688Y-72644
X99296Y-23583
X99296Y-26583
X143349Y-46653
X143349Y-49653
X43504Y-58937
X46504Y-58937
X103280Y-30431
X103280Y-33431
X14573Y-65539
X14573Y-66539
X14573Y-67539
X14573Y-68539
X17573Y-65539
X17573Y-66539
X17573Y-67539
X17573Y-68539
X98728Y-64129
X98728Y-66098
X104654Y-69582
X104654Y-71550
X102677Y-57739
X102677Y-59708
X90319Y-68397
X93319Y-68397
X81070Y-40165
X81070Y-43165
X115956Y-66369
X118956Y-66369
X75776Y-56046
X75776Y-58014
X37398Y-59211
X40398Y-59211
X76991Y-44054
X79991Y-44054
X135881Y-31112
X137850Y-31112
X138700Y-31112
X140669Y-31112
X119235Y-31903
X121204Y-31903
X105198Y-30433
X105198Y-33433
X106198Y-30433
X106198Y-33433
X107198Y-30433
X107198Y-33433
X108198Y-30433
X108198Y-33433
X109198Y-30433
X109198Y-33433
X110198Y-30433
X110198Y-33433
X111198Y-30433
X111198Y-33433
X24717Y-71051
X25504Y-71051
X97504Y-64129
X97504Y-67129
X53059Y-40413
X53059Y-43413
X142009Y-60589
X142009Y-62557
X36714Y-26789
X39714Y-26789
X24492Y-42596
X27492Y-42596
X119468Y-17092
X119468Y-20092
X120468Y-17092
X120468Y-20092
X121468Y-17092
X121468Y-20092
X122468Y-17092
X122468Y-20092
X123468Y-17092
X123468Y-20092
X124468Y-17092
X124468Y-20092
X125468Y-17092
X125468Y-20092
X55766Y-50303
X58766Y-50303
X126517Y-58935
X129517Y-58935
X44620Y-31601
X44620Y-34601
X48575Y-61378
X51575Y-61378
X91308Y-64351
X91308Y-67351
X92308Y-64351
X92308Y-67351
X93308Y-64351
X93308Y-67351
X94308Y-64351
X94308Y-67351
X130850Y-26883
X130850Y-29883
X131850Y-26883
X131850Y-29883
X132850Y-26883
X132850Y-29883
X133850Y-26883
X133850Y-29883
X134850Y-26883
X134850Y-29883
X135850Y-26883
X135850Y-29883
X136850Y-26883
X136850Y-29883
X137850Y-26883
X137850Y-29883
X87587Y-47244
X90587Y-47244
X35906Y-52203
X38906Y-52203
X44535Y-63653
X44535Y-66653
X45535Y-63653
X45535Y-66653
X46535Y-63653
X46535Y-66653
X47535Y-63653
X47535Y-66653
X48535Y-63653
X48535Y-66653
X49535Y-63653
X49535Y-66653
X50535Y-63653
X50535Y-66653
X101189Y-63086
X104189Y-63086
X62659Y-66056
X62659Y-69056
X95169Y-37357
X97138Y-37357
X99316Y-19709
X99316Y-22709
X100316Y-19709
X100316Y-22709
X101316Y-19709
X101316Y-22709
X102316Y-19709
X102316Y-22709
X48080Y-27561
X48080Y-30561
X73787Y-48979
X73787Y-50947
X16776Y-49722
X16776Y-52722
X99681Y-53865
X99681Y-56865
X100681Y-53865
X100681Y-56865
X101681Y-53865
X101681Y-56865
X102681Y-53865
X102681Y-56865
X103681Y-53865
X103681Y-56865
X104681Y-53865
X104681Y-56865
X105681Y-53865
X105681Y-56865
X122798Y-16057
X125798Y-16057
X126621Y-29033
X129621Y-29033
X91304Y-40343
X91304Y-42311
X100505Y-15839
X100505Y-18839
X55756Y-51533
X57724Y-51533
X31664Y-27989
X34664Y-27989
X35693Y-35359
X35693Y-37327
X72520Y-46900
X75520Y-46900
X47370Y-48502
X47370Y-51502
X92343Y-39709
X95343Y-39709
X48880Y-35681
X48880Y-38681
X72744Y-21529
X72744Y-22317
X126613Y-36594
X129613Y-36594
X139859Y-55309
X142859Y-55309
X139834Y-65156
X142834Y-65156
X39618Y-67894
X42618Y-67894
X43496Y-67717
X46496Y-67717
X139106Y-36643
X139106Y-39643
X140106Y-36643
X140106Y-39643
X141106Y-36643
X141106Y-39643
X142106Y-36643
X142106Y-39643
X61417Y-52746
X61417Y-55746
X69350Y-39928
X69350Y-42928
X139125Y-26887
X139125Y-29887
X140125Y-26887
X140125Y-29887
X141125Y-26887
X141125Y-29887
X142125Y-26887
X142125Y-29887
X116094Y-26635
X119094Y-26635
X86205Y-36164
X86205Y-38132
X103536Y-20202
X103536Y-22170
X98957Y-29361
X101957Y-29361
X65123Y-39123
X65123Y-42123
X66123Y-39123
X66123Y-42123
X67123Y-39123
X67123Y-42123
X68123Y-39123
X68123Y-42123
X76976Y-56227
X79976Y-56227
X43504Y-60157
X46504Y-60157
X87236Y-17672
X90236Y-17672
X40984Y-47705
X43984Y-47705
X122806Y-46523
X125806Y-46523
X126653Y-18482
X129653Y-18482
X126476Y-69987
X129476Y-69987
X91315Y-53857
X91315Y-56857
X92315Y-53857
X92315Y-56857
X93315Y-53857
X93315Y-56857
X94315Y-53857
X94315Y-56857
X65083Y-52518
X65083Y-55518
X66083Y-52518
X66083Y-55518
X67083Y-52518
X67083Y-55518
X68083Y-52518
X68083Y-55518
X42420Y-37561
X44389Y-37561
X42220Y-28601
X44189Y-28601
X55484Y-28917
X57453Y-28917
X55486Y-30123
X57455Y-30123
X54085Y-31606
X54085Y-34606
X27634Y-57911
X30634Y-57911
X143225Y-56719
X143225Y-59719
X122670Y-56522
X125670Y-56522
X95343Y-28888
X97311Y-28888
X104232Y-28176
X106201Y-28176
X111229Y-28177
X113198Y-28177
X104224Y-36904
X106193Y-36904
X111221Y-35693
X113190Y-35693
X98772Y-30408
X98772Y-33408
X99772Y-30408
X99772Y-33408
X100772Y-30408
X100772Y-33408
X101772Y-30408
X101772Y-33408
X94134Y-36250
X97134Y-36250
X95543Y-53850
X95543Y-56850
X105689Y-69759
X108689Y-69759
X54055Y-57315
X54055Y-60315
X119806Y-66369
X121775Y-66369
X137007Y-65408
X138976Y-65408
X141964Y-70494
X141964Y-72463
X134184Y-65160
X136153Y-65160
X110190Y-34484
X113190Y-34484
X62684Y-39330
X62684Y-42330
X26043Y-29077
X26043Y-29865
X108126Y-53873
X108126Y-56873
X63240Y-51475
X66240Y-51475
X14551Y-69760
X16520Y-69760
X20524Y-68177
X20524Y-71177
X39472Y-56533
X42472Y-56533
X46896Y-44470
X46896Y-47470
X47896Y-44470
X47896Y-47470
X48896Y-44470
X48896Y-47470
X49896Y-44470
X49896Y-47470
X50896Y-44470
X50896Y-47470
X51896Y-44470
X51896Y-47470
X52896Y-44470
X52896Y-47470
X53896Y-44470
X53896Y-47470
X37718Y-35652
X40718Y-35652
X30809Y-40963
X33809Y-40963
X126660Y-51350
X129660Y-51350
X18075Y-45085
X18075Y-46085
X18075Y-47085
X55660Y-22283
X55660Y-25283
X86035Y-27648
X89035Y-27648
X55035Y-33723
X58035Y-33723
X18854Y-50707
X20822Y-50707
X25516Y-41376
X27484Y-41376
X23850Y-62075
X25819Y-62075
X73809Y-62325
X73809Y-64294
X18272Y-55108
X18272Y-58108
X76988Y-58648
X79988Y-58648
X142140Y-50531
X142140Y-52499
X139972Y-25415
X142972Y-25415
X102918Y-15839
X102918Y-18839
X116887Y-57569
X116887Y-60569
X34694Y-16854
X37694Y-16854
X90085Y-27716
X90085Y-28716
X90085Y-29716
X90085Y-30716
X90085Y-31716
X90085Y-32716
X90085Y-33716
X90085Y-34716
X93085Y-27716
X93085Y-28716
X93085Y-29716
X93085Y-30716
X93085Y-31716
X93085Y-32716
X93085Y-33716
X93085Y-34716
X29843Y-42203
X32843Y-42203
X130818Y-20364
X130818Y-22332
X118250Y-47570
X118250Y-50570
X63230Y-64791
X66230Y-64791
X85854Y-30065
X87823Y-30065
X31819Y-44478
X31819Y-47478
X32819Y-44478
X32819Y-47478
X33819Y-44478
X33819Y-47478
X34819Y-44478
X34819Y-47478
X35819Y-44478
X35819Y-47478
X36819Y-44478
X36819Y-47478
X37819Y-44478
X37819Y-47478
X35689Y-28634
X35689Y-30602
X25393Y-26427
X28393Y-26427
X26941Y-71898
X29941Y-71898
X56518Y-59324
X56518Y-60324
X56518Y-61324
X56518Y-62324
X56518Y-63324
X56518Y-64324
X56518Y-65324
X56518Y-66324
X59518Y-59324
X59518Y-60324
X59518Y-61324
X59518Y-62324
X59518Y-63324
X59518Y-64324
X59518Y-65324
X59518Y-66324
X126520Y-56522
X129520Y-56522
X126621Y-30238
X129621Y-30238
X98957Y-28152
X101957Y-28152
X76523Y-34570
X79523Y-34570
X56307Y-56862
X59307Y-56862
X85872Y-41654
X85872Y-44654
X40982Y-45293
X43982Y-45293
X75701Y-69400
X75701Y-71369
X126656Y-50145
X129656Y-50145
X121476Y-14844
X124476Y-14844
X126476Y-66369
X129476Y-66369
X35398Y-59053
X35398Y-61022
X20063Y-27776
X20063Y-30776
X80869Y-65735
X83869Y-65735
X126517Y-60144
X129517Y-60144
X32693Y-31477
X32693Y-34477
X33693Y-31477
X33693Y-34477
X34693Y-31477
X34693Y-34477
X35693Y-31477
X35693Y-34477
X36693Y-31477
X36693Y-34477
X37693Y-31477
X37693Y-34477
X38693Y-31477
X38693Y-34477
X94126Y-26463
X97126Y-26463
X88866Y-53861
X88866Y-56861
X70597Y-61302
X70597Y-64302
X43138Y-51317
X45106Y-51317
X43350Y-40411
X45318Y-40411
X63854Y-53038
X63854Y-55006
X71784Y-51991
X71784Y-54991
X72784Y-51991
X72784Y-54991
X73784Y-51991
X73784Y-54991
X74784Y-51991
X74784Y-54991
X75784Y-51991
X75784Y-54991
X76784Y-51991
X76784Y-54991
X77784Y-51991
X77784Y-54991
X78784Y-51991
X78784Y-54991
X79784Y-51991
X79784Y-54991
X98142Y-69586
X98142Y-72586
X55276Y-57315
X55276Y-60315
X107106Y-37321
X110106Y-37321
X94138Y-57909
X96106Y-57909
X32406Y-55148
X32406Y-58148
X33406Y-55148
X33406Y-58148
X34406Y-55148
X34406Y-58148
X35406Y-55148
X35406Y-58148
X36406Y-55148
X36406Y-58148
X37406Y-55148
X37406Y-58148
X38406Y-55148
X38406Y-58148
X117042Y-47570
X117042Y-50570
X21894Y-48701
X21894Y-49701
X21894Y-50701
X21894Y-51701
X21894Y-52701
X21894Y-53701
X21894Y-54701
X21894Y-55701
X24894Y-48701
X24894Y-49701
X24894Y-50701
X24894Y-51701
X24894Y-52701
X24894Y-53701
X24894Y-54701
X24894Y-55701
X121355Y-55313
X124355Y-55313
X65530Y-71113
X66514Y-71113
X50180Y-22274
X50180Y-24243
X36714Y-19264
X39714Y-19264
X27318Y-32952
X30318Y-32952
X29811Y-49896
X32811Y-49896
X52835Y-58346
X52835Y-60315
X52835Y-65315
X52835Y-67283
X46917Y-41455
X46917Y-43423
X55323Y-40411
X57291Y-40411
X56031Y-44437
X58000Y-44437
X75822Y-35613
X75822Y-37582
X77039Y-35609
X77039Y-37578
X119103Y-61896
X121072Y-61896
X119847Y-56522
X121816Y-56522
X126617Y-41429
X129617Y-41429
X45657Y-44470
X45657Y-47470
X101520Y-44896
X101520Y-47896
X102520Y-44896
X102520Y-47896
X103520Y-44896
X103520Y-47896
X104520Y-44896
X104520Y-47896
X55035Y-34923
X58035Y-34923
X23153Y-18865
X26153Y-18865
X69366Y-47943
X69366Y-50943
X135720Y-70853
X137688Y-70853
X99300Y-15839
X99300Y-18839
X82256Y-53439
X82256Y-56439
X17960Y-21378
X17960Y-22378
X17960Y-23378
X37718Y-30427
X40718Y-30427
X30795Y-51455
X33795Y-51455
X78876Y-28195
X80845Y-28195
X21744Y-62320
X21744Y-65320
X130518Y-45310
X133518Y-45310
X39016Y-63643
X39016Y-66643
X40016Y-63643
X40016Y-66643
X41016Y-63643
X41016Y-66643
X42016Y-63643
X42016Y-66643
X63231Y-63581
X66231Y-63581
X18843Y-27772
X18843Y-30772
X22799Y-44604
X22799Y-47604
X76404Y-61302
X79404Y-61302
X126621Y-26624
X129621Y-26624
X101713Y-23580
X101713Y-26580
X130845Y-46653
X130845Y-49653
X131845Y-46653
X131845Y-49653
X132845Y-46653
X132845Y-49653
X133845Y-46653
X133845Y-49653
X134845Y-46653
X134845Y-49653
X135845Y-46653
X135845Y-49653
X136845Y-46653
X136845Y-49653
X137845Y-46653
X137845Y-49653
X72787Y-56042
X72787Y-59042
X29965Y-23398
X29965Y-26398
X87043Y-18723
X87043Y-21723
X45680Y-28572
X45680Y-30541
X37752Y-67500
X37752Y-69469
X104917Y-57920
X107917Y-57920
X63236Y-50266
X66236Y-50266
X126476Y-65160
X129476Y-65160
X54280Y-40413
X54280Y-43413
X119983Y-16049
X121952Y-16049
X19670Y-20898
X19670Y-23898
X62634Y-52746
X62634Y-55746
X117015Y-17096
X117015Y-20096
X94126Y-27676
X97126Y-27676
X90079Y-64338
X90079Y-66306
X105051Y-61869
X108051Y-61869
X31047Y-25563
X34047Y-25563
X110198Y-29386
X113198Y-29386
X80264Y-50298
X81051Y-50298
X97437Y-57920
X100437Y-57920
X126657Y-14840
X129657Y-14840
X130688Y-66629
X130688Y-69629
X131688Y-66629
X131688Y-69629
X132688Y-66629
X132688Y-69629
X133688Y-66629
X133688Y-69629
X134688Y-66629
X134688Y-69629
X135688Y-66629
X135688Y-69629
X136688Y-66629
X136688Y-69629
X137688Y-66629
X137688Y-69629
X89079Y-23979
X90063Y-23979
X46150Y-48502
X46150Y-51502
X77006Y-62333
X77006Y-64302
X31664Y-18064
X34664Y-18064
X35866Y-40943
X38866Y-40943
X102004Y-69578
X102004Y-71546
X108075Y-64310
X110043Y-64310
X121101Y-45314
X124101Y-45314
X52453Y-64272
X55453Y-64272
X88272Y-18719
X88272Y-21719
X89272Y-18719
X89272Y-21719
X90272Y-18719
X90272Y-21719
X91272Y-18719
X91272Y-21719
X92272Y-18719
X92272Y-21719
X93272Y-18719
X93272Y-21719
X94272Y-18719
X94272Y-21719
X67562Y-44385
X69531Y-44385
X41835Y-36361
X44835Y-36361
X78809Y-62333
X78809Y-64302
X72740Y-19297
X72740Y-20084
X23153Y-23715
X26153Y-23715
X130857Y-16313
X130857Y-19313
X131857Y-16313
X131857Y-19313
X132857Y-16313
X132857Y-19313
X133857Y-16313
X133857Y-19313
X134857Y-16313
X134857Y-19313
X135857Y-16313
X135857Y-19313
X136857Y-16313
X136857Y-19313
X137857Y-16313
X137857Y-19313
X70609Y-34578
X70609Y-37578
X92311Y-17672
X95311Y-17672
X39472Y-55313
X42472Y-55313
X76984Y-57435
X79984Y-57435
X130729Y-56786
X130729Y-59786
X131729Y-56786
X131729Y-59786
X132729Y-56786
X132729Y-59786
X133729Y-56786
X133729Y-59786
X134729Y-56786
X134729Y-59786
X135729Y-56786
X135729Y-59786
X136729Y-56786
X136729Y-59786
X137729Y-56786
X137729Y-59786
X36858Y-49762
X39858Y-49762
X118195Y-37654
X118195Y-40654
X29012Y-45047
X29012Y-46047
X29012Y-47047
X63893Y-42401
X63893Y-45401
X63575Y-56782
X66575Y-56782
X40340Y-32521
X43340Y-32521
X25941Y-50274
X28941Y-50274
X19768Y-44604
X19768Y-47604
X116133Y-16053
X119133Y-16053
X126617Y-25419
X129617Y-25419
X86031Y-33924
X89031Y-33924
X25443Y-24977
X27411Y-24977
X71567Y-56038
X71567Y-59038
X42850Y-41631
X45850Y-41631
X61480Y-39330
X61480Y-42330
X92307Y-22774
X95307Y-22774
X67546Y-70451
X69514Y-70451
X138747Y-20545
X140716Y-20545
X101827Y-68546
X104827Y-68546
X71614Y-69399
X71614Y-72399
X126472Y-71191
X129472Y-71191
X99988Y-64318
X99988Y-67318
X100988Y-64318
X100988Y-67318
X101988Y-64318
X101988Y-67318
X102988Y-64318
X102988Y-67318
X103988Y-64318
X103988Y-67318
X104988Y-64318
X104988Y-67318
X105988Y-64318
X105988Y-67318
X106988Y-64318
X106988Y-67318
X63872Y-65833
X63872Y-67802
X134380Y-45306
X136349Y-45306
X133061Y-50885
X135030Y-50885
X130813Y-40756
X130813Y-42724
X130845Y-50704
X130845Y-52672
X142105Y-40516
X142105Y-42484
X93929Y-63310
X94913Y-63310
X26933Y-70687
X29933Y-70687
X140019Y-14844
X143019Y-14844
X126649Y-22112
X129649Y-22112
X94303Y-28707
X94303Y-31707
X75787Y-42672
X75787Y-44641
X139967Y-35394
X142967Y-35394
X37689Y-20464
X40689Y-20464
X103197Y-35699
X106197Y-35699
X74306Y-42672
X74306Y-44641
X139124Y-46653
X139124Y-49653
X140124Y-46653
X140124Y-49653
X141124Y-46653
X141124Y-49653
X142124Y-46653
X142124Y-49653
X126617Y-42634
X129617Y-42634
X81039Y-53435
X81039Y-56435
X126472Y-72396
X129472Y-72396
X135884Y-50885
X137853Y-50885
X138660Y-40925
X140628Y-40925
X138707Y-50885
X140676Y-50885
X119278Y-51846
X121246Y-51846
X119991Y-46523
X121959Y-46523
X30407Y-59211
X33407Y-59211
X71818Y-34574
X71818Y-37574
X70504Y-21521
X70504Y-22309
X66039Y-28213
X68007Y-28213
X105055Y-60657
X108055Y-60657
X53492Y-48522
X53492Y-51522
X45885Y-35706
X45885Y-38706
X35689Y-25445
X35689Y-27414
X19303Y-68177
X19303Y-71177
X55325Y-41622
X58325Y-41622
X126517Y-61349
X129517Y-61349
X119446Y-27679
X119446Y-30679
X120446Y-27679
X120446Y-30679
X121446Y-27679
X121446Y-30679
X122446Y-27679
X122446Y-30679
X123446Y-27679
X123446Y-30679
X124446Y-27679
X124446Y-30679
X125446Y-27679
X125446Y-30679
X92315Y-16463
X95315Y-16463
X104008Y-60082
X104008Y-62050
X101374Y-60082
X101374Y-62050
X48575Y-58937
X51575Y-58937
X35906Y-50982
X38906Y-50982
X126613Y-35390
X129613Y-35390
X62195Y-62195
X62195Y-65195
X91311Y-35979
X93280Y-35979
X40340Y-33781
X43340Y-33781
X25949Y-51494
X28949Y-51494
X43287Y-63634
X43287Y-66634
X130371Y-55313
X133371Y-55313
X126621Y-31443
X129621Y-31443
X86031Y-28853
X89031Y-28853
X88472Y-52806
X90441Y-52806
X45885Y-31606
X45885Y-34606
X46885Y-31606
X46885Y-34606
X47885Y-31606
X47885Y-34606
X48885Y-31606
X48885Y-34606
X49885Y-31606
X49885Y-34606
X50885Y-31606
X50885Y-34606
X51885Y-31606
X51885Y-34606
X52885Y-31606
X52885Y-34606
X36714Y-18064
X39714Y-18064
X68818Y-33539
X71818Y-33539
X48138Y-40423
X48138Y-43423
X87236Y-22770
X90236Y-22770
X126660Y-46519
X129660Y-46519
X72553Y-60270
X75553Y-60270
X119948Y-26635
X121917Y-26635
X137145Y-25667
X139113Y-25667
X142129Y-30754
X142129Y-32722
X134326Y-25415
X136294Y-25415
X133062Y-31112
X135031Y-31112
X121350Y-65160
X124350Y-65160
X20524Y-64319
X20524Y-67319
X20870Y-20898
X20870Y-23898
X143354Y-16320
X143354Y-19320
X69315Y-53246
X69315Y-56246
X126621Y-32651
X129621Y-32651
X101783Y-34282
X101783Y-36250
X98752Y-34282
X98752Y-37282
X97976Y-68550
X100976Y-68550
X137040Y-55565
X139009Y-55565
X142015Y-20183
X142015Y-22151
X126653Y-17273
X129653Y-17273
X143325Y-36654
X143325Y-39654
X43504Y-61378
X46504Y-61378
X138539Y-70853
X140507Y-70853
X91627Y-47035
X91627Y-49004
X90236Y-37577
X93236Y-37577
X40984Y-44073
X43984Y-44073
X17598Y-70953
X17598Y-71740
X116136Y-46523
X119136Y-46523
X126649Y-20903
X129649Y-20903
X122625Y-66369
X125625Y-66369
X27634Y-55470
X30634Y-55470
X76996Y-70796
X79996Y-70796
X115993Y-56522
X118993Y-56522
X138964Y-66625
X138964Y-69625
X139964Y-66625
X139964Y-69625
X140964Y-66625
X140964Y-69625
X141964Y-66625
X141964Y-69625
X91307Y-52810
X94307Y-52810
X54420Y-26333
X56388Y-26333
X121120Y-35390
X124120Y-35390
X54055Y-65315
X54055Y-68315
X97539Y-30920
X97539Y-32888
X108194Y-34307
X108194Y-36276
X108194Y-27598
X108194Y-29567
X36714Y-27989
X39714Y-27989
X24484Y-47439
X27484Y-47439
X104091Y-52822
X107091Y-52822
X126653Y-16057
X129653Y-16057
T5
X106059Y-47431
X106059Y-49400
X108028Y-48416
X108417Y-45144
X108417Y-46144
X111839Y-47435
X111839Y-49404
X113807Y-48420
X96189Y-17829
X97173Y-15861
X98157Y-17829
X21630Y-41752
X21630Y-43720
X23598Y-42736
X20303Y-19028
X22272Y-18043
X22272Y-20012
X21587Y-70402
X22571Y-72370
X23555Y-70402
X108949Y-47435
X108949Y-49404
X110917Y-48420
X97900Y-49579
X98884Y-47610
X99869Y-49579
T6
X49762Y-42754
X109461Y-56428
X36102Y-63307
X29205Y-53484
X15252Y-71630
X90614Y-69731
X48193Y-26409
X84491Y-20224
X67782Y-63384
X30937Y-62618
X110890Y-38931
X58268Y-74803
X58268Y-75803
X59268Y-74803
X59268Y-75803
X60268Y-74803
X60268Y-75803
X61268Y-74803
X61268Y-75803
X62268Y-74803
X62268Y-75803
X63268Y-74803
X63268Y-75803
X64268Y-74803
X64268Y-75803
X65268Y-74803
X65268Y-75803
X66268Y-74803
X66268Y-75803
X67268Y-74803
X67268Y-75803
X68268Y-74803
X68268Y-75803
X69268Y-74803
X69268Y-75803
X50787Y-14567
X50787Y-15567
X51787Y-14567
X51787Y-15567
X52787Y-14567
X52787Y-15567
X53787Y-14567
X53787Y-15567
X83602Y-40511
X29243Y-29452
X55059Y-62815
X94235Y-51449
X31963Y-60549
X97969Y-23343
X50850Y-29055
X32233Y-37337
X27756Y-74803
X27756Y-75803
X28756Y-74803
X28756Y-75803
X29756Y-74803
X29756Y-75803
X30756Y-74803
X30756Y-75803
X31756Y-74803
X31756Y-75803
X32756Y-74803
X32756Y-75803
X47510Y-36063
X83239Y-64413
X54449Y-55965
X56435Y-45854
X144866Y-60039
X144866Y-61039
X144866Y-62039
X144866Y-63039
X144866Y-64039
X144866Y-65039
X144866Y-66039
X144866Y-67039
X144866Y-68039
X145866Y-60039
X145866Y-61039
X145866Y-62039
X145866Y-63039
X145866Y-64039
X145866Y-65039
X145866Y-66039
X145866Y-67039
X145866Y-68039
X93110Y-74803
X93110Y-75803
X94110Y-74803
X94110Y-75803
X95110Y-74803
X95110Y-75803
X96110Y-74803
X96110Y-75803
X97110Y-74803
X97110Y-75803
X98110Y-74803
X98110Y-75803
X99110Y-74803
X99110Y-75803
X100110Y-74803
X100110Y-75803
X105906Y-14567
X105906Y-15567
X106906Y-14567
X106906Y-15567
X107906Y-14567
X107906Y-15567
X108906Y-14567
X108906Y-15567
X109906Y-14567
X109906Y-15567
X144866Y-40748
X144866Y-41748
X144866Y-42748
X144866Y-43748
X144866Y-44748
X144866Y-45748
X144866Y-46748
X144866Y-47748
X144866Y-48748
X145866Y-40748
X145866Y-41748
X145866Y-42748
X145866Y-43748
X145866Y-44748
X145866Y-45748
X145866Y-46748
X145866Y-47748
X145866Y-48748
X110142Y-69460
X49232Y-21106
X30843Y-65071
X14354Y-51181
X14354Y-52181
X14354Y-53181
X14354Y-54181
X14354Y-55181
X14354Y-56181
X14354Y-57181
X14354Y-58181
X14354Y-59181
X15354Y-51181
X15354Y-52181
X15354Y-53181
X15354Y-54181
X15354Y-55181
X15354Y-56181
X15354Y-57181
X15354Y-58181
X15354Y-59181
X100098Y-70220
X49014Y-49102
X83575Y-54309
X56435Y-47350
X50900Y-36661
X97969Y-24792
X109581Y-52972
X68028Y-49180
X25843Y-31777
X98529Y-42410
X99529Y-42410
X100529Y-42410
X101529Y-42410
X102529Y-42410
X103529Y-42410
X104529Y-42410
X105529Y-42410
X106529Y-42410
X107529Y-42410
X108529Y-42410
X109529Y-42410
X110529Y-42410
X111529Y-42410
X112529Y-42410
X113529Y-42410
X114529Y-42410
X115529Y-42410
X144866Y-23425
X144866Y-24425
X144866Y-25425
X144866Y-26425
X144866Y-27425
X144866Y-28425
X144866Y-29425
X144866Y-30425
X144866Y-31425
X145866Y-23425
X145866Y-24425
X145866Y-25425
X145866Y-26425
X145866Y-27425
X145866Y-28425
X145866Y-29425
X145866Y-30425
X145866Y-31425
X38425Y-37579
X110228Y-61074
X57055Y-68709
X28118Y-60177
X114347Y-28173
X68066Y-35763
X14354Y-26181
X14354Y-27181
X14354Y-28181
X14354Y-29181
X14354Y-30181
X14354Y-31181
X14354Y-32181
X14354Y-33181
X14354Y-34181
X15354Y-26181
X15354Y-27181
X15354Y-28181
X15354Y-29181
X15354Y-30181
X15354Y-31181
X15354Y-32181
X15354Y-33181
X15354Y-34181
X40886Y-57874
X21366Y-59402
T7
X28122Y-61445
X28122Y-64445
X28033Y-69447
X31033Y-69447
X28035Y-66858
X31035Y-66858
X76871Y-27083
X77871Y-27083
X78871Y-27083
X28033Y-68157
X31033Y-68157
X64038Y-27097
X65038Y-27097
X66038Y-27097
T8
X69646Y-15984
X71646Y-15984
X73646Y-15984
T9
X13780Y-75787
X79724Y-75787
X82677Y-45276
X46260Y-75787
X13780Y-14764
X13780Y-45276
X113189Y-75787
X79724Y-14764
X145669Y-14764
X46260Y-14764
X145669Y-75787
X113189Y-14764
T0
M30
