M48
; DRILL file {KiCad (5.1.7-0-10_14)} date Sunday, December 06, 2020 at 12:22:56 PM
; FORMAT={-:-/ absolute / inch / decimal}
; #@! TF.CreationDate,2020-12-06T12:22:56+11:00
; #@! TF.GenerationSoftware,Kicad,Pcbnew,(5.1.7-0-10_14)
; #@! TF.FileFunction,Plated,1,4,PTH
FMAT,2
INCH
T1C0.0157
T2C0.0197
T3C0.0295
T4C0.0315
T5C0.0354
T6C0.0394
T7C0.0433
T8C0.0598
T9C0.0866
%
G90
G05
T1
X1.8386Y-2.4646
X1.9764Y-4.8268
X2.1638Y-5.737
X2.2146Y-2.9823
X2.5669Y-6.1102
X3.2717Y-2.6831
X4.0709Y-2.6476
X4.9583Y-6.7587
X6.1004Y-5.4161
X6.5039Y-5.4724
X6.5571Y-7.2469
X7.0134Y-6.9547
X7.0209Y-7.239
X7.9649Y-7.2588
X8.5071Y-5.7071
X8.5071Y-6.2098
X8.7185Y-4.5031
X8.7835Y-5.0315
X8.9515Y-7.378
X9.4882Y-7.2539
X10.2299Y-6.668
X10.748Y-4.0157
X10.748Y-4.1142
X10.9646Y-4.0157
X10.9646Y-4.0748
X11.4252Y-7.1024
X11.5354Y-7.2402
X11.685Y-7.3898
X11.766Y-4.841
X12.3386Y-4.3228
X12.8508Y-4.2744
X12.8646Y-2.2067
X13.1496Y-2.0689
X13.2087Y-7.3071
X13.2496Y-4.0394
X13.252Y-1.998
X13.4024Y-4.0846
X14.0484Y-4.8122
X14.2039Y-1.7772
T2
X1.4862Y-2.3917
X1.4882Y-4.8268
X1.5748Y-2.313
X1.6535Y-2.2343
X1.6634Y-3.435
X1.6634Y-3.5138
X1.6634Y-5.935
X1.6831Y-5.5315
X1.6831Y-5.7874
X1.7421Y-3.5138
X1.7618Y-5.935
X1.8504Y-3.5531
X1.8661Y-2.2047
X2.0276Y-2.2835
X2.2933Y-5.0098
X2.2933Y-5.1378
X2.3524Y-3.3465
X2.3622Y-5.2067
X2.372Y-5.0689
X2.4213Y-5.7283
X2.4606Y-2.0177
X2.4606Y-2.0669
X2.4902Y-2.2539
X2.5098Y-2.0669
X2.5591Y-2.2539
X2.6378Y-5.5413
X2.6378Y-5.6201
X3.1102Y-6.5945
X3.1496Y-5.7283
X3.1988Y-5.6594
X3.2087Y-3.5433
X3.2087Y-3.6417
X3.2283Y-3.3071
X3.2283Y-5.9154
X3.2283Y-5.9744
X3.2283Y-6.2303
X3.2677Y-5.9449
X3.2677Y-6.6929
X3.2874Y-3.5433
X3.2874Y-3.6417
X3.3465Y-6.2598
X3.3661Y-5.6496
X3.3661Y-6.3583
X3.3819Y-7.374
X3.4055Y-3.3071
X3.4528Y-7.3031
X3.4646Y-6.2402
X3.4646Y-6.4567
X3.4646Y-6.624
X3.4646Y-6.7618
X3.5276Y-7.2205
X3.563Y-3.3071
X3.563Y-5.6496
X3.7205Y-3.3071
X3.75Y-5.6496
X3.8583Y-4.7343
X3.8583Y-4.7933
X3.8976Y-4.7638
X3.937Y-5.9252
X4.0551Y-2.1949
X4.1437Y-5.6496
X4.1831Y-5.7776
X4.2028Y-2.1555
X4.4193Y-2.2343
X4.5374Y-2.3622
X4.9409Y-2.7461
X4.9705Y-3.7992
X5.0098Y-3.0807
X5.0394Y-3.563
X5.0492Y-2.7461
X5.0591Y-3.248
X5.1575Y-2.6378
X5.1575Y-4.5768
X5.1575Y-4.6358
X5.187Y-3.248
X5.187Y-6.3583
X5.1969Y-2.0866
X5.2264Y-4.5768
X5.2264Y-4.6358
X5.2323Y-4.3898
X5.2362Y-4.813
X5.2461Y-2.1457
X5.2559Y-2.6378
X5.2559Y-3.7992
X5.2953Y-6.2303
X5.2953Y-6.3386
X5.4035Y-6.2303
X5.4035Y-6.3583
X5.4232Y-3.7992
X5.4331Y-3.0709
X5.4429Y-5.9449
X5.4528Y-4.5177
X5.4528Y-6.1122
X5.4528Y-6.4567
X5.5413Y-4.3701
X5.5413Y-5.8366
X5.5413Y-5.9449
X5.5512Y-4.5177
X5.561Y-3.6319
X5.5709Y-3.1988
X5.6398Y-4.3307
X5.8366Y-3.8976
X5.8425Y-7.2165
X5.8425Y-7.3465
X6.1457Y-5.6929
X6.1457Y-7.2165
X6.1457Y-7.311
X6.2795Y-5.7776
X6.3484Y-5.7776
X6.3583Y-7.3386
X6.3583Y-7.3976
X6.378Y-5.2264
X6.3976Y-4.3701
X6.3976Y-4.4488
X6.4075Y-5.7776
X6.4665Y-4.4488
X6.5059Y-5.6693
X6.5256Y-6.9783
X6.5551Y-5.3051
X6.565Y-4.311
X6.565Y-5.6693
X6.5846Y-7.0276
X6.7618Y-5.3051
X6.8701Y-5.0098
X6.8799Y-5.2165
X6.9291Y-6.2303
X6.9291Y-6.2992
X6.9488Y-3.5827
X6.998Y-4.9213
X6.998Y-4.9803
X7.0177Y-6.2992
X7.0276Y-3.622
X7.0669Y-4.9803
X7.1811Y-7.063
X7.2874Y-7.063
X7.3524Y-4.7146
X7.372Y-3.376
X7.4409Y-4.7146
X7.4606Y-3.376
X7.4902Y-6.9783
X7.5098Y-4.3406
X7.5591Y-4.3406
X7.6673Y-3.248
X7.6673Y-3.3366
X7.7559Y-5.3445
X7.8543Y-5.6299
X7.8839Y-4.2717
X7.8937Y-5.3445
X7.9035Y-3.248
X7.9724Y-3.2972
X8.002Y-5.3445
X8.0413Y-3.3465
X8.0709Y-3.8091
X8.0807Y-5.4921
X8.0807Y-7.1654
X8.0906Y-6.4665
X8.1004Y-5.1378
X8.1102Y-3.4055
X8.3661Y-5.5413
X8.4449Y-5.5413
X8.4449Y-5.6201
X8.6811Y-3.563
X8.7008Y-3.3169
X8.7008Y-3.3858
X8.7795Y-3.3169
X8.7795Y-3.3858
X8.7992Y-4.8228
X8.7992Y-4.9311
X8.8681Y-2.2736
X8.8898Y-4.2047
X8.8976Y-4.8228
X8.8976Y-4.9311
X8.937Y-2.2736
X8.9862Y-4.9311
X9.0748Y-2.3327
X9.128Y-2.9488
X9.128Y-3.2461
X9.1299Y-4.1575
X9.1614Y-3.7559
X9.2244Y-3.7559
X9.3209Y-2.2638
X9.3209Y-2.313
X9.3307Y-3.6732
X9.378Y-3.3071
X9.378Y-3.7008
X9.3819Y-4.2087
X9.4193Y-2.2638
X9.4193Y-2.313
X9.4291Y-3.0827
X9.4724Y-3.0197
X9.5768Y-4.9606
X9.626Y-4.9213
X9.6752Y-4.9606
X9.7047Y-6.8091
X9.7539Y-5.9252
X9.7539Y-6.0827
X9.8327Y-6.3091
X9.8425Y-6.0236
X9.8583Y-7.1486
X9.878Y-6.7776
X9.8976Y-7.0059
X9.9213Y-7.2589
X9.9409Y-6.1122
X10.0098Y-6.9173
X10.0384Y-7.1476
X10.0984Y-2.9291
X10.1024Y-4.3307
X10.1142Y-7.0059
X10.1181Y-7.2589
X10.2028Y-4.3307
X10.2283Y-6.1299
X10.2394Y-6.898
X10.3031Y-4.3307
X10.3228Y-5.8386
X10.3602Y-6.2657
X10.3661Y-6.1319
X10.4035Y-4.3307
X10.4213Y-3.0315
X10.5079Y-3.4685
X10.5079Y-3.5551
X10.5079Y-3.6417
X10.9055Y-1.9291
X10.9055Y-2.0669
X10.9508Y-4.872
X10.9646Y-2.1654
X11.0039Y-4.1535
X11.0138Y-3.9469
X11.0236Y-1.9291
X11.0236Y-2.0669
X11.0236Y-4.7972
X11.0256Y-4.876
X11.0531Y-6.811
X11.063Y-2.2835
X11.1122Y-6.8701
X11.2008Y-6.6634
X11.2008Y-6.7815
X11.2205Y-3.8976
X11.2598Y-2.0472
X11.2598Y-2.2835
X11.2598Y-2.6181
X11.2992Y-3.8189
X11.3031Y-4.3031
X11.3386Y-3.1102
X11.378Y-2.1457
X11.378Y-2.4409
X11.378Y-4.1535
X11.4173Y-2.9724
X11.4173Y-3.1102
X11.4173Y-3.248
X11.4764Y-4.0354
X11.4764Y-4.1339
X11.5098Y-4.5807
X11.5118Y-4.5
X11.5551Y-4.5394
X11.874Y-5.9094
X11.874Y-6.8346
X11.874Y-6.8937
X11.8898Y-7.3829
X11.8937Y-2.9213
X11.8976Y-3.8543
X11.8976Y-3.9291
X11.9094Y-4.9252
X11.9173Y-1.8858
X11.9213Y-5.9528
X11.9331Y-6.8937
X11.9449Y-2.9646
X11.9606Y-5.9094
X11.9646Y-4.8976
X11.9646Y-4.9449
X11.9724Y-3.9291
X11.9744Y-1.8858
X11.9882Y-6.8622
X12.0118Y-2.9094
X12.1299Y-7.3829
X12.1732Y-4.2362
X12.2717Y-4.1614
X12.378Y-4.2402
X12.5276Y-5.1417
X12.5827Y-5.2047
X12.7874Y-2.7087
X12.7874Y-5.8661
X12.7874Y-5.9528
X12.7874Y-6.0433
X12.7913Y-2.937
X12.7913Y-3.0748
X12.7913Y-3.2283
X12.7953Y-4.8898
X12.7953Y-4.9843
X12.8504Y-6.0984
X12.8701Y-4.8898
X12.874Y-4.9843
X13.0118Y-1.6654
X13.1732Y-6.7559
X13.1772Y-5.7677
X13.1811Y-3.7638
X13.185Y-1.7244
X13.1969Y-4.752
X13.2087Y-2.7638
X13.2776Y-5.2559
X13.2795Y-7.374
X13.3425Y-3.2795
X13.3543Y-7.248
X13.3622Y-5.7992
X13.3622Y-6.7756
X13.374Y-3.7953
X13.3858Y-2.7992
X13.3898Y-4.7835
X13.4055Y-1.7244
X13.5098Y-2.2146
X13.5276Y-7.374
X13.5866Y-2.815
X13.5906Y-6.7913
X13.5945Y-5.8071
X13.5984Y-3.7992
X13.6024Y-7.248
X13.6063Y-4.7913
X13.6102Y-1.7559
X13.6417Y-5.2559
X13.6457Y-2.815
X13.7992Y-2.2146
X13.8031Y-7.374
X13.8661Y-3.7717
X13.9272Y-6.8504
X13.9331Y-3.2795
X13.937Y-5.8661
X13.9567Y-7.1063
X13.9665Y-3.1299
X13.9685Y-5.0866
X14.0059Y-6.7717
X14.0059Y-6.8504
X14.0256Y-5.2559
X14.0354Y-5.7776
X14.0354Y-5.8661
X14.0591Y-7.374
X14.0748Y-5.5315
X14.0945Y-2.6102
X14.0945Y-6.7717
X14.0945Y-6.8504
X14.0984Y-4.5256
X14.1043Y-3.5433
X14.1732Y-6.7717
X14.1811Y-4.5256
X14.1831Y-5.5315
X14.1929Y-5.7776
X14.1929Y-5.8465
X14.3012Y-6.2697
X14.3307Y-5.8169
X14.4291Y-1.7126
X14.4331Y-6.5551
X14.5669Y-1.8504
X14.6654Y-6.3386
X14.6732Y-4.439
X14.689Y-2.6949
X14.7047Y-6.2795
X14.7047Y-6.3976
X14.7106Y-2.7539
X14.7126Y-4.3701
X14.7126Y-4.5
X14.7146Y-2.6339
T3
X1.8606Y-6.6654
X1.9106Y-6.6154
X1.9106Y-6.7154
T4
X10.328Y-3.0431
X10.328Y-3.3431
X12.6476Y-6.7577
X12.9476Y-6.7577
X3.0809Y-4.0963
X3.3809Y-4.0963
X2.336Y-5.678
X2.336Y-5.8748
X12.2806Y-4.6523
X12.5806Y-4.6523
X13.8964Y-6.6625
X13.8964Y-6.9625
X13.9964Y-6.6625
X13.9964Y-6.9625
X14.0964Y-6.6625
X14.0964Y-6.9625
X14.1964Y-6.6625
X14.1964Y-6.9625
X12.6621Y-3.2651
X12.9621Y-3.2651
X12.135Y-6.516
X12.435Y-6.516
X2.5516Y-4.1376
X2.7484Y-4.1376
X5.428Y-4.0413
X5.428Y-4.3413
X10.5043Y-6.3082
X10.8043Y-6.3082
X2.5393Y-2.6427
X2.8393Y-2.6427
X9.0079Y-6.4338
X9.0079Y-6.6306
X3.5689Y-2.5445
X3.5689Y-2.7414
X11.9283Y-2.1372
X12.1251Y-2.1372
X9.1272Y-2.2597
X9.1272Y-2.4565
X3.6714Y-1.8064
X3.9714Y-1.8064
X6.2193Y-4.8884
X6.2193Y-5.1884
X3.7689Y-2.0464
X4.0689Y-2.0464
X5.8831Y-6.8413
X5.8831Y-7.0382
X7.4306Y-4.2672
X7.4306Y-4.4641
X5.6518Y-5.9324
X5.6518Y-6.0324
X5.6518Y-6.1324
X5.6518Y-6.2324
X5.6518Y-6.3324
X5.6518Y-6.4324
X5.6518Y-6.5324
X5.6518Y-6.6324
X5.9518Y-5.9324
X5.9518Y-6.0324
X5.9518Y-6.1324
X5.9518Y-6.2324
X5.9518Y-6.3324
X5.9518Y-6.4324
X5.9518Y-6.5324
X5.9518Y-6.6324
X10.0501Y-2.3583
X10.0501Y-2.6583
X13.9967Y-3.5394
X14.2967Y-3.5394
X9.9681Y-5.3865
X9.9681Y-5.6865
X10.0681Y-5.3865
X10.0681Y-5.6865
X10.1681Y-5.3865
X10.1681Y-5.6865
X10.2681Y-5.3865
X10.2681Y-5.6865
X10.3681Y-5.3865
X10.3681Y-5.6865
X10.4681Y-5.3865
X10.4681Y-5.6865
X10.5681Y-5.3865
X10.5681Y-5.6865
X6.2195Y-6.2195
X6.2195Y-6.5195
X3.0407Y-5.9211
X3.3407Y-5.9211
X6.3066Y-2.8217
X6.5035Y-2.8217
X9.8772Y-3.0408
X9.8772Y-3.3408
X9.9772Y-3.0408
X9.9772Y-3.3408
X10.0772Y-3.0408
X10.0772Y-3.3408
X10.1772Y-3.0408
X10.1772Y-3.3408
X3.1664Y-2.7989
X3.4664Y-2.7989
X3.4843Y-4.1646
X3.4843Y-4.3614
X6.3236Y-5.0266
X6.6236Y-5.0266
X8.2258Y-6.6762
X8.2258Y-6.9762
X11.7042Y-4.757
X11.7042Y-5.057
X8.6035Y-2.7648
X8.9035Y-2.7648
X13.2938Y-6.101
X13.4906Y-6.101
X11.9103Y-6.1896
X12.1072Y-6.1896
X1.7543Y-6.1764
X1.7543Y-6.2551
X7.3838Y-3.5613
X7.3838Y-3.7582
X12.6476Y-6.9987
X12.9476Y-6.9987
X8.9079Y-2.3979
X9.0063Y-2.3979
X8.2256Y-5.3439
X8.2256Y-5.6439
X13.5881Y-3.1112
X13.785Y-3.1112
X6.9388Y-6.1302
X6.9388Y-6.4302
X5.4055Y-6.5315
X5.4055Y-6.8315
X8.8472Y-5.2806
X9.0441Y-5.2806
X9.5169Y-3.7357
X9.7138Y-3.7357
X3.9626Y-6.9114
X4.1594Y-6.9114
X4.0982Y-4.5293
X4.3982Y-4.5293
X1.796Y-2.1378
X1.796Y-2.2378
X1.796Y-2.3378
X2.9969Y-1.9539
X2.9969Y-2.2539
X5.2835Y-6.5315
X5.2835Y-6.7283
X8.7236Y-1.7672
X9.0236Y-1.7672
X4.8575Y-6.0157
X5.1575Y-6.0157
X2.3153Y-2.3715
X2.6153Y-2.3715
X9.4134Y-3.3924
X9.7134Y-3.3924
X12.2625Y-6.6369
X12.5625Y-6.6369
X10.293Y-2.358
X10.293Y-2.658
X3.5398Y-5.4098
X3.7366Y-5.4098
X11.8235Y-1.7096
X11.8235Y-2.0096
X11.9446Y-2.7679
X11.9446Y-3.0679
X12.0446Y-2.7679
X12.0446Y-3.0679
X12.1446Y-2.7679
X12.1446Y-3.0679
X12.2446Y-2.7679
X12.2446Y-3.0679
X12.3446Y-2.7679
X12.3446Y-3.0679
X12.4446Y-2.7679
X12.4446Y-3.0679
X12.5446Y-2.7679
X12.5446Y-3.0679
X14.214Y-5.0531
X14.214Y-5.2499
X8.7099Y-4.3197
X8.7099Y-4.6197
X12.6476Y-6.8782
X12.9476Y-6.8782
X6.5123Y-3.9123
X6.5123Y-4.2123
X6.6123Y-3.9123
X6.6123Y-4.2123
X6.7123Y-3.9123
X6.7123Y-4.2123
X6.8123Y-3.9123
X6.8123Y-4.2123
X7.6984Y-5.7435
X7.9984Y-5.7435
X3.0437Y-5.4093
X3.3437Y-5.4093
X11.9278Y-5.1846
X12.1246Y-5.1846
X13.7192Y-1.5092
X13.9161Y-1.5092
X5.5035Y-3.4923
X5.8035Y-3.4923
X13.0463Y-3.539
X13.3463Y-3.539
X12.6613Y-3.9012
X12.9613Y-3.9012
X12.6653Y-1.8482
X12.9653Y-1.8482
X10.1827Y-6.8546
X10.4827Y-6.8546
X2.5949Y-5.1494
X2.8949Y-5.1494
X6.8669Y-4.69
X7.1669Y-4.69
X2.0988Y-4.4604
X2.0988Y-4.7604
X3.9618Y-6.7894
X4.2618Y-6.7894
X8.8854Y-2.9888
X8.8854Y-3.2888
X13.7007Y-6.5408
X13.8976Y-6.5408
X6.7433Y-5.7274
X6.9402Y-5.7274
X2.5443Y-2.4977
X2.7411Y-2.4977
X13.0818Y-2.0364
X13.0818Y-2.2332
X8.6205Y-3.6164
X8.6205Y-3.8132
X14.0019Y-1.4844
X14.3019Y-1.4844
X5.5035Y-3.3723
X5.8035Y-3.3723
X9.7327Y-6.309
X10.0327Y-6.309
X8.0893Y-3.9133
X8.3893Y-3.9133
X5.6307Y-5.5642
X5.9307Y-5.5642
X2.6933Y-7.0687
X2.9933Y-7.0687
X8.7587Y-4.7244
X9.0587Y-4.7244
X12.6617Y-2.5419
X12.9617Y-2.5419
X13.4221Y-5.5313
X13.619Y-5.5313
X10.3197Y-3.5699
X10.6197Y-3.5699
X9.1304Y-4.0343
X9.1304Y-4.2311
X11.6887Y-5.7569
X11.6887Y-6.0569
X11.8091Y-5.7569
X11.8091Y-6.0569
X6.324Y-5.1475
X6.624Y-5.1475
X11.6136Y-4.6523
X11.9136Y-4.6523
X2.1744Y-6.232
X2.1744Y-6.532
X12.1012Y-4.1516
X12.1012Y-4.3484
X9.2666Y-4.724
X9.5666Y-4.724
X9.8091Y-2.0225
X9.8091Y-2.2194
X13.0688Y-7.0676
X13.0688Y-7.2644
X7.7006Y-6.2333
X7.7006Y-6.4302
X5.142Y-2.2283
X5.142Y-2.5283
X5.242Y-2.2283
X5.242Y-2.5283
X5.342Y-2.2283
X5.342Y-2.5283
X5.442Y-2.2283
X5.442Y-2.5283
X3.7689Y-2.5589
X4.0689Y-2.5589
X7.6374Y-4.7947
X7.9374Y-4.7947
X9.8957Y-2.8152
X10.1957Y-2.8152
X4.7535Y-6.7539
X4.7535Y-6.9508
X9.55Y-1.8735
X9.55Y-2.1735
X3.1664Y-1.9264
X3.4664Y-1.9264
X5.5035Y-3.1323
X5.8035Y-3.1323
X14.3354Y-1.632
X14.3354Y-1.932
X6.1438Y-6.6056
X6.1438Y-6.9056
X10.8071Y-6.542
X11.1071Y-6.542
X13.7207Y-4.5432
X13.9176Y-4.5432
X4.615Y-4.8502
X4.615Y-5.1502
X6.3236Y-4.9057
X6.6236Y-4.9057
X10.6917Y-5.3869
X10.6917Y-5.6869
X5.3059Y-4.0413
X5.3059Y-4.3413
X2.7634Y-5.6691
X3.0634Y-5.6691
X10.4008Y-6.0082
X10.4008Y-6.205
X13.3086Y-2.0545
X13.5054Y-2.0545
X1.4551Y-6.976
X1.652Y-6.976
X7.252Y-4.69
X7.552Y-4.69
X7.0609Y-3.4578
X7.0609Y-3.7578
X13.9133Y-1.6313
X13.9133Y-1.9313
X14.0133Y-1.6313
X14.0133Y-1.9313
X14.1133Y-1.6313
X14.1133Y-1.9313
X14.2133Y-1.6313
X14.2133Y-1.9313
X4.737Y-4.8502
X4.737Y-5.1502
X2.4717Y-7.1051
X2.5504Y-7.1051
X9.2517Y-4.0921
X9.3501Y-4.0921
X6.553Y-7.1113
X6.6514Y-7.1113
X4.0972Y-4.6504
X4.3972Y-4.6504
X7.181Y-6.5343
X7.181Y-6.8343
X7.281Y-6.5343
X7.281Y-6.8343
X7.381Y-6.5343
X7.381Y-6.8343
X7.481Y-6.5343
X7.481Y-6.8343
X7.581Y-6.5343
X7.581Y-6.8343
X7.681Y-6.5343
X7.681Y-6.8343
X7.781Y-6.5343
X7.781Y-6.8343
X7.881Y-6.5343
X7.881Y-6.8343
X7.981Y-6.5343
X7.981Y-6.8343
X14.2009Y-6.0589
X14.2009Y-6.2557
X6.5546Y-4.4381
X6.6531Y-4.4381
X11.1229Y-2.8177
X11.3198Y-2.8177
X12.6517Y-5.8935
X12.9517Y-5.8935
X4.8575Y-6.1378
X5.1575Y-6.1378
X2.4484Y-4.4447
X2.7484Y-4.4447
X10.2685Y-5.1031
X10.2685Y-5.3
X9.4134Y-3.625
X9.7134Y-3.625
X8.8272Y-1.8719
X8.8272Y-2.1719
X8.9272Y-1.8719
X8.9272Y-2.1719
X9.0272Y-1.8719
X9.0272Y-2.1719
X9.1272Y-1.8719
X9.1272Y-2.1719
X9.2272Y-1.8719
X9.2272Y-2.1719
X9.3272Y-1.8719
X9.3272Y-2.1719
X9.4272Y-1.8719
X9.4272Y-2.1719
X3.6714Y-1.9264
X3.9714Y-1.9264
X7.6988Y-5.8648
X7.9988Y-5.8648
X13.0809Y-3.6693
X13.0809Y-3.9693
X13.1809Y-3.6693
X13.1809Y-3.9693
X13.2809Y-3.6693
X13.2809Y-3.9693
X13.3809Y-3.6693
X13.3809Y-3.9693
X13.4809Y-3.6693
X13.4809Y-3.9693
X13.5809Y-3.6693
X13.5809Y-3.9693
X13.6809Y-3.6693
X13.6809Y-3.9693
X13.7809Y-3.6693
X13.7809Y-3.9693
X14.2105Y-4.0516
X14.2105Y-4.2484
X10.1713Y-2.358
X10.1713Y-2.658
X13.438Y-4.5306
X13.6349Y-4.5306
X4.335Y-4.0411
X4.5318Y-4.0411
X3.9055Y-4.5724
X3.9055Y-4.8724
X7.2676Y-3.3539
X7.5676Y-3.3539
X9.8728Y-6.4129
X9.8728Y-6.6098
X9.93Y-1.5839
X9.93Y-1.8839
X14.3354Y-2.6883
X14.3354Y-2.9883
X7.7Y-4.8975
X7.7Y-5.0943
X12.6472Y-7.1191
X12.9472Y-7.1191
X5.5484Y-2.8917
X5.7453Y-2.8917
X12.6653Y-1.6057
X12.9653Y-1.6057
X12.6617Y-4.022
X12.9617Y-4.022
X3.2693Y-3.1477
X3.2693Y-3.4477
X3.3693Y-3.1477
X3.3693Y-3.4477
X3.4693Y-3.1477
X3.4693Y-3.4477
X3.5693Y-3.1477
X3.5693Y-3.4477
X3.6693Y-3.1477
X3.6693Y-3.4477
X3.7693Y-3.1477
X3.7693Y-3.4477
X3.8693Y-3.1477
X3.8693Y-3.4477
X5.6307Y-5.6862
X5.9307Y-5.6862
X13.0845Y-5.0704
X13.0845Y-5.2672
X3.2654Y-6.8913
X3.2654Y-7.0882
X7.8809Y-6.2333
X7.8809Y-6.4302
X5.5035Y-3.2523
X5.8035Y-3.2523
X3.0795Y-5.2675
X3.3795Y-5.2675
X8.0858Y-5.2404
X8.3858Y-5.2404
X7.0571Y-4.7943
X7.0571Y-5.0943
X12.6649Y-2.0903
X12.9649Y-2.0903
X2.3153Y-2.0715
X2.6153Y-2.0715
X2.0524Y-6.4319
X2.0524Y-6.7319
X6.5083Y-5.2518
X6.5083Y-5.5518
X6.6083Y-5.2518
X6.6083Y-5.5518
X6.7083Y-5.2518
X6.7083Y-5.5518
X6.8083Y-5.2518
X6.8083Y-5.5518
X9.4126Y-2.7676
X9.7126Y-2.7676
X2.385Y-6.2075
X2.5819Y-6.2075
X7.6991Y-4.285
X7.9991Y-4.285
X6.235Y-3.5472
X6.235Y-3.8472
X13.0806Y-3.0927
X13.0806Y-3.2895
X4.8575Y-5.8937
X5.1575Y-5.8937
X2.2799Y-4.4604
X2.2799Y-4.7604
X1.9303Y-6.8177
X1.9303Y-7.1177
X9.4138Y-5.7909
X9.6106Y-5.7909
X10.1783Y-3.4282
X10.1783Y-3.625
X9.1276Y-1.588
X9.1276Y-1.7849
X11.5993Y-5.6522
X11.8993Y-5.6522
X7.1784Y-5.1991
X7.1784Y-5.4991
X7.2784Y-5.1991
X7.2784Y-5.4991
X7.3784Y-5.1991
X7.3784Y-5.4991
X7.4784Y-5.1991
X7.4784Y-5.4991
X7.5784Y-5.1991
X7.5784Y-5.4991
X7.6784Y-5.1991
X7.6784Y-5.4991
X7.7784Y-5.1991
X7.7784Y-5.4991
X7.8784Y-5.1991
X7.8784Y-5.4991
X7.9784Y-5.1991
X7.9784Y-5.4991
X9.2315Y-1.6463
X9.5315Y-1.6463
X4.034Y-3.3781
X4.334Y-3.3781
X3.5906Y-5.2203
X3.8906Y-5.2203
X11.7015Y-1.7096
X11.7015Y-2.0096
X1.9393Y-3.2227
X1.9393Y-3.3227
X1.9393Y-3.4227
X9.0319Y-6.8397
X9.3319Y-6.8397
X2.6862Y-6.1327
X2.6862Y-6.4327
X11.8216Y-2.7679
X11.8216Y-3.0679
X10.3198Y-2.9386
X10.6198Y-2.9386
X14.3349Y-4.6653
X14.3349Y-4.9653
X7.6404Y-6.1302
X7.9404Y-6.1302
X4.5657Y-4.447
X4.5657Y-4.747
X5.5067Y-4.447
X5.5067Y-4.747
X9.4555Y-6.8609
X9.5539Y-6.8609
X13.5884Y-5.0885
X13.7853Y-5.0885
X3.5398Y-5.9053
X3.5398Y-6.1022
X10.5681Y-7.0972
X10.8681Y-7.0972
X2.9012Y-4.5047
X2.9012Y-4.6047
X2.9012Y-4.7047
X3.1047Y-2.5563
X3.4047Y-2.5563
X10.3536Y-2.0202
X10.3536Y-2.217
X6.2684Y-3.933
X6.2684Y-4.233
X13.87Y-3.1112
X14.0669Y-3.1112
X3.7718Y-3.5652
X4.0718Y-3.5652
X3.1664Y-1.8064
X3.4664Y-1.8064
X9.0083Y-5.3865
X9.0083Y-5.6865
X10.1709Y-1.5839
X10.1709Y-1.8839
X9.9957Y-3.4282
X9.9957Y-3.7282
X4.6917Y-4.1455
X4.6917Y-4.3423
X2.9843Y-4.2203
X3.2843Y-4.2203
X5.5325Y-4.2852
X5.8325Y-4.2852
X3.0795Y-5.1455
X3.3795Y-5.1455
X10.8194Y-2.7598
X10.8194Y-2.9567
X9.7331Y-6.1869
X10.0331Y-6.1869
X4.8138Y-4.0423
X4.8138Y-4.3423
X5.3492Y-4.8522
X5.3492Y-5.1522
X2.2098Y-2.0898
X2.2098Y-2.3898
X8.7244Y-3.6349
X9.0244Y-3.6349
X2.0524Y-6.1484
X2.0524Y-6.3453
X6.9393Y-3.4578
X6.9393Y-3.7578
X12.1355Y-5.5313
X12.4355Y-5.5313
X13.0845Y-4.6653
X13.0845Y-4.9653
X13.1845Y-4.6653
X13.1845Y-4.9653
X13.2845Y-4.6653
X13.2845Y-4.9653
X13.3845Y-4.6653
X13.3845Y-4.9653
X13.4845Y-4.6653
X13.4845Y-4.9653
X13.5845Y-4.6653
X13.5845Y-4.9653
X13.6845Y-4.6653
X13.6845Y-4.9653
X13.7845Y-4.6653
X13.7845Y-4.9653
X3.0693Y-3.0427
X3.3693Y-3.0427
X11.5956Y-6.6369
X11.8956Y-6.6369
X10.152Y-4.4896
X10.152Y-4.7896
X10.252Y-4.4896
X10.252Y-4.7896
X10.352Y-4.4896
X10.352Y-4.7896
X10.452Y-4.4896
X10.452Y-4.7896
X9.1627Y-4.7035
X9.1627Y-4.9004
X4.0984Y-4.7705
X4.3984Y-4.7705
X12.6664Y-4.531
X12.9664Y-4.531
X11.9948Y-2.6635
X12.1917Y-2.6635
X2.3153Y-1.8865
X2.6153Y-1.8865
X11.9991Y-4.6523
X12.1959Y-4.6523
X7.5802Y-6.2337
X7.5802Y-6.4306
X4.6896Y-4.447
X4.6896Y-4.747
X4.7896Y-4.447
X4.7896Y-4.747
X4.8896Y-4.447
X4.8896Y-4.747
X4.9896Y-4.447
X4.9896Y-4.747
X5.0896Y-4.447
X5.0896Y-4.747
X5.1896Y-4.447
X5.1896Y-4.747
X5.2896Y-4.447
X5.2896Y-4.747
X5.3896Y-4.447
X5.3896Y-4.747
X2.0524Y-6.8177
X2.0524Y-7.1177
X3.5866Y-4.0943
X3.8866Y-4.0943
X12.6653Y-1.9683
X12.9653Y-1.9683
X6.8683Y-6.027
X7.1683Y-6.027
X11.7007Y-2.7679
X11.7007Y-3.0679
X13.9972Y-2.5415
X14.2972Y-2.5415
X14.1964Y-7.0494
X14.1964Y-7.2463
X7.5795Y-4.8979
X7.5795Y-5.0947
X4.688Y-2.7561
X4.688Y-3.0561
X2.9819Y-4.8675
X3.2819Y-4.8675
X13.0334Y-6.516
X13.3334Y-6.516
X12.6517Y-6.0144
X12.9517Y-6.0144
X10.4917Y-5.792
X10.7917Y-5.792
X3.7718Y-2.9202
X4.0718Y-2.9202
X2.5941Y-5.0274
X2.8941Y-5.0274
X9.4134Y-3.514
X9.7134Y-3.514
X14.003Y-4.5306
X14.303Y-4.5306
X13.0729Y-5.6786
X13.0729Y-5.9786
X13.1729Y-5.6786
X13.1729Y-5.9786
X13.2729Y-5.6786
X13.2729Y-5.9786
X13.3729Y-5.6786
X13.3729Y-5.9786
X13.4729Y-5.6786
X13.4729Y-5.9786
X13.5729Y-5.6786
X13.5729Y-5.9786
X13.6729Y-5.6786
X13.6729Y-5.9786
X13.7729Y-5.6786
X13.7729Y-5.9786
X4.3287Y-6.3634
X4.3287Y-6.6634
X5.6516Y-6.748
X5.9516Y-6.748
X11.9928Y-3.6598
X12.1896Y-3.6598
X8.0264Y-5.0298
X8.1051Y-5.0298
X4.9524Y-2.6358
X4.9524Y-2.9358
X3.2646Y-6.5059
X3.2646Y-6.8059
X1.7831Y-5.1927
X2.0831Y-5.1927
X7.6991Y-4.4054
X7.9991Y-4.4054
X6.1417Y-5.2746
X6.1417Y-5.5746
X12.6653Y-1.7273
X12.9653Y-1.7273
X8.8328Y-4.3189
X8.8328Y-4.6189
X8.9328Y-4.3189
X8.9328Y-4.6189
X9.0328Y-4.3189
X9.0328Y-4.6189
X9.1328Y-4.3189
X9.1328Y-4.6189
X9.2328Y-4.3189
X9.2328Y-4.6189
X9.3328Y-4.3189
X9.3328Y-4.6189
X9.4328Y-4.3189
X9.4328Y-4.6189
X12.6621Y-2.6624
X12.9621Y-2.6624
X13.2901Y-7.0853
X13.4869Y-7.0853
X4.7535Y-6.0807
X4.7535Y-6.2776
X5.4085Y-3.1606
X5.4085Y-3.4606
X2.2807Y-6.332
X2.2807Y-6.432
X2.2807Y-6.532
X2.2807Y-6.632
X2.2807Y-6.732
X2.2807Y-6.832
X2.2807Y-6.932
X2.5807Y-6.332
X2.5807Y-6.432
X2.5807Y-6.532
X2.5807Y-6.632
X2.5807Y-6.732
X2.5807Y-6.832
X2.5807Y-6.932
X12.6617Y-4.2634
X12.9617Y-4.2634
X5.0557Y-2.6334
X5.3557Y-2.6334
X1.967Y-2.0898
X1.967Y-2.3898
X14.2015Y-2.0183
X14.2015Y-2.2151
X11.0198Y-2.9386
X11.3198Y-2.9386
X10.5685Y-6.8546
X10.8685Y-6.8546
X9.7504Y-6.4129
X9.7504Y-6.7129
X12.652Y-5.6522
X12.952Y-5.6522
X7.6994Y-6.9581
X7.9994Y-6.9581
X6.3231Y-6.3581
X6.6231Y-6.3581
X4.3122Y-6.2598
X4.6122Y-6.2598
X13.714Y-3.548
X13.9109Y-3.548
X13.085Y-2.6883
X13.085Y-2.9883
X13.185Y-2.6883
X13.185Y-2.9883
X13.285Y-2.6883
X13.285Y-2.9883
X13.385Y-2.6883
X13.385Y-2.9883
X13.485Y-2.6883
X13.485Y-2.9883
X13.585Y-2.6883
X13.585Y-2.9883
X13.685Y-2.6883
X13.685Y-2.9883
X13.785Y-2.6883
X13.785Y-2.9883
X3.0718Y-3.5977
X3.3718Y-3.5977
X10.1374Y-6.0082
X10.1374Y-6.205
X8.8866Y-5.3861
X8.8866Y-5.6861
X8.0274Y-6.364
X8.1061Y-6.364
X6.148Y-3.933
X6.148Y-4.233
X3.0694Y-1.6854
X3.3694Y-1.6854
X10.0505Y-1.5839
X10.0505Y-1.8839
X9.8957Y-2.9361
X10.1957Y-2.9361
X3.6819Y-4.2163
X3.9819Y-4.2163
X5.5768Y-4.9093
X5.8768Y-4.9093
X6.3691Y-6.99
X6.6691Y-6.99
X12.6617Y-4.1429
X12.9617Y-4.1429
X8.0869Y-6.5735
X8.3869Y-6.5735
X10.4224Y-3.6904
X10.6193Y-3.6904
X3.485Y-4.8384
X3.485Y-5.0352
X3.2406Y-5.5148
X3.2406Y-5.8148
X3.3406Y-5.5148
X3.3406Y-5.8148
X3.4406Y-5.5148
X3.4406Y-5.8148
X3.5406Y-5.5148
X3.5406Y-5.8148
X3.6406Y-5.5148
X3.6406Y-5.8148
X3.7406Y-5.5148
X3.7406Y-5.8148
X3.8406Y-5.5148
X3.8406Y-5.8148
X12.267Y-5.6522
X12.567Y-5.6522
X14.2129Y-3.0754
X14.2129Y-3.2722
X8.2279Y-4.0169
X8.2279Y-4.3169
X12.6517Y-5.7727
X12.9517Y-5.7727
X4.9055Y-6.2598
X5.2055Y-6.2598
X5.2453Y-6.1358
X5.5453Y-6.1358
X2.0063Y-2.7776
X2.0063Y-3.0776
X9.3929Y-6.331
X9.4913Y-6.331
X7.274Y-1.9297
X7.274Y-2.0084
X6.5409Y-5.7994
X6.6394Y-5.7994
X7.8401Y-3.5606
X7.8401Y-3.7574
X7.8791Y-4.8971
X7.8791Y-5.0939
X7.4283Y-5.6046
X7.4283Y-5.8014
X11.825Y-4.757
X11.825Y-5.057
X10.5689Y-6.9759
X10.8689Y-6.9759
X13.9859Y-5.5309
X14.2859Y-5.5309
X7.5822Y-3.5613
X7.5822Y-3.7582
X2.7318Y-3.4152
X3.0318Y-3.4152
X4.0984Y-4.4073
X4.3984Y-4.4073
X1.5614Y-6.4307
X1.7583Y-6.4307
X1.8075Y-4.5085
X1.8075Y-4.6085
X1.8075Y-4.7085
X1.9303Y-6.2134
X1.9303Y-6.5134
X2.4484Y-4.7439
X2.7484Y-4.7439
X13.5841Y-4.0925
X13.7809Y-4.0925
X10.2918Y-1.5839
X10.2918Y-1.8839
X2.4185Y-1.7642
X2.6154Y-1.7642
X2.4943Y-3.3059
X2.4943Y-3.5027
X3.5866Y-3.9722
X3.8866Y-3.9722
X12.2798Y-1.6057
X12.5798Y-1.6057
X11.9326Y-5.7565
X11.9326Y-6.0565
X12.0326Y-5.7565
X12.0326Y-6.0565
X12.1326Y-5.7565
X12.1326Y-6.0565
X12.2326Y-5.7565
X12.2326Y-6.0565
X12.3326Y-5.7565
X12.3326Y-6.0565
X12.4326Y-5.7565
X12.4326Y-6.0565
X12.5326Y-5.7565
X12.5326Y-6.0565
X12.1334Y-2.5419
X12.4334Y-2.5419
X7.3787Y-4.8979
X7.3787Y-5.0947
X7.5776Y-5.6046
X7.5776Y-5.8014
X3.6811Y-4.3423
X3.9811Y-4.3423
X2.985Y-4.3423
X3.285Y-4.3423
X12.6476Y-6.516
X12.9476Y-6.516
X6.8818Y-3.3539
X7.1818Y-3.3539
X12.2754Y-3.6598
X12.5754Y-3.6598
X4.3504Y-6.0157
X4.6504Y-6.0157
X1.7693Y-3.3227
X1.7693Y-3.6227
X9.4126Y-2.6463
X9.7126Y-2.6463
X7.5787Y-4.2672
X7.5787Y-4.4641
X14.3225Y-5.6719
X14.3225Y-5.9719
X3.9472Y-5.5313
X4.2472Y-5.5313
X10.2004Y-6.9578
X10.2004Y-7.1546
X13.866Y-4.0925
X14.0628Y-4.0925
X7.9865Y-3.6893
X8.0653Y-3.6893
X13.5761Y-6.101
X13.7729Y-6.101
X4.888Y-3.5681
X4.888Y-3.8681
X6.9337Y-6.642
X6.9337Y-6.942
X2.7634Y-5.7911
X3.0634Y-5.7911
X2.6941Y-7.1898
X2.9941Y-7.1898
X6.6039Y-2.8213
X6.8007Y-2.8213
X7.1809Y-6.1302
X7.1809Y-6.4302
X9.7976Y-6.855
X10.0976Y-6.855
X9.2343Y-4.2134
X9.5343Y-4.2134
X3.1819Y-4.4478
X3.1819Y-4.7478
X3.2819Y-4.4478
X3.2819Y-4.7478
X3.3819Y-4.4478
X3.3819Y-4.7478
X3.4819Y-4.4478
X3.4819Y-4.7478
X3.5819Y-4.4478
X3.5819Y-4.7478
X3.6819Y-4.4478
X3.6819Y-4.7478
X3.7819Y-4.4478
X3.7819Y-4.7478
X10.5051Y-6.1869
X10.8051Y-6.1869
X7.2787Y-5.6042
X7.2787Y-5.9042
X13.0857Y-1.6313
X13.0857Y-1.9313
X13.1857Y-1.6313
X13.1857Y-1.9313
X13.2857Y-1.6313
X13.2857Y-1.9313
X13.3857Y-1.6313
X13.3857Y-1.9313
X13.4857Y-1.6313
X13.4857Y-1.9313
X13.5857Y-1.6313
X13.5857Y-1.9313
X13.6857Y-1.6313
X13.6857Y-1.9313
X13.7857Y-1.6313
X13.7857Y-1.9313
X11.9235Y-3.1903
X12.1204Y-3.1903
X7.0508Y-1.9301
X7.0508Y-2.0088
X12.6621Y-2.7828
X12.9621Y-2.7828
X11.9086Y-7.1676
X12.1054Y-7.1676
X3.5689Y-1.867
X3.5689Y-2.0639
X10.5055Y-6.0657
X10.8055Y-6.0657
X12.6517Y-6.2554
X12.9517Y-6.2554
X11.6133Y-1.6053
X11.9133Y-1.6053
X11.6991Y-3.7657
X11.6991Y-4.0657
X5.566Y-2.2283
X5.566Y-2.5283
X7.0504Y-2.1521
X7.0504Y-2.2309
X5.5323Y-4.0411
X5.7291Y-4.0411
X10.7142Y-2.6554
X11.0142Y-2.6554
X9.0236Y-3.7577
X9.3236Y-3.7577
X3.9016Y-6.3643
X3.9016Y-6.6643
X4.0016Y-6.3643
X4.0016Y-6.6643
X4.1016Y-6.3643
X4.1016Y-6.6643
X4.2016Y-6.3643
X4.2016Y-6.6643
X3.7718Y-3.0427
X4.0718Y-3.0427
X5.5276Y-5.7315
X5.5276Y-6.0315
X2.7318Y-3.2952
X3.0318Y-3.2952
X7.492Y-2.8195
X7.6888Y-2.8195
X10.1472Y-5.792
X10.1472Y-5.8905
X9.0283Y-5.7909
X9.3283Y-5.7909
X9.8752Y-3.4282
X9.8752Y-3.7282
X2.5585Y-5.678
X2.5585Y-5.8748
X10.7106Y-3.7321
X11.0106Y-3.7321
X5.5756Y-5.1533
X5.7724Y-5.1533
X6.9366Y-4.7943
X6.9366Y-5.0943
X9.1308Y-6.4351
X9.1308Y-6.7351
X9.2308Y-6.4351
X9.2308Y-6.7351
X9.3308Y-6.4351
X9.3308Y-6.7351
X9.4308Y-6.4351
X9.4308Y-6.7351
X8.6031Y-2.8853
X8.9031Y-2.8853
X10.5198Y-3.0433
X10.5198Y-3.3433
X10.6198Y-3.0433
X10.6198Y-3.3433
X10.7198Y-3.0433
X10.7198Y-3.3433
X10.8198Y-3.0433
X10.8198Y-3.3433
X10.9198Y-3.0433
X10.9198Y-3.3433
X11.0198Y-3.0433
X11.0198Y-3.3433
X11.1198Y-3.0433
X11.1198Y-3.3433
X8.5872Y-4.1654
X8.5872Y-4.4654
X7.057Y-3.844
X7.057Y-4.144
X7.1614Y-6.9399
X7.1614Y-7.2399
X11.9427Y-3.7644
X11.9427Y-4.0644
X12.0427Y-3.7644
X12.0427Y-4.0644
X12.1427Y-3.7644
X12.1427Y-4.0644
X12.2427Y-3.7644
X12.2427Y-4.0644
X12.3427Y-3.7644
X12.3427Y-4.0644
X12.4427Y-3.7644
X12.4427Y-4.0644
X12.5427Y-3.7644
X12.5427Y-4.0644
X13.7145Y-2.5667
X13.9113Y-2.5667
X3.7756Y-6.4665
X3.7756Y-6.6634
X11.1221Y-3.5693
X11.319Y-3.5693
X8.9111Y-4.0925
X9.0095Y-4.0925
X6.3893Y-4.2401
X6.3893Y-4.5401
X4.285Y-4.1631
X4.585Y-4.1631
X9.2662Y-4.8445
X9.5662Y-4.8445
X11.9847Y-5.6522
X12.1816Y-5.6522
X5.1573Y-2.7559
X5.2557Y-2.7559
X12.112Y-3.539
X12.412Y-3.539
X6.935Y-3.9928
X6.935Y-4.2928
X5.2453Y-6.4272
X5.5453Y-6.4272
X4.9409Y-3.0382
X5.2409Y-3.0382
X8.5854Y-3.0065
X8.7823Y-3.0065
X13.4184Y-6.516
X13.6153Y-6.516
X4.568Y-2.8572
X4.568Y-3.0541
X12.6613Y-3.7807
X12.9613Y-3.7807
X2.1894Y-4.8701
X2.1894Y-4.9701
X2.1894Y-5.0701
X2.1894Y-5.1701
X2.1894Y-5.2701
X2.1894Y-5.3701
X2.1894Y-5.4701
X2.1894Y-5.5701
X2.4894Y-4.8701
X2.4894Y-4.9701
X2.4894Y-5.0701
X2.4894Y-5.1701
X2.4894Y-5.2701
X2.4894Y-5.3701
X2.4894Y-5.4701
X2.4894Y-5.5701
X1.4573Y-6.5539
X1.4573Y-6.6539
X1.4573Y-6.7539
X1.4573Y-6.8539
X1.7573Y-6.5539
X1.7573Y-6.6539
X1.7573Y-6.7539
X1.7573Y-6.8539
X1.8272Y-5.5108
X1.8272Y-5.8108
X13.704Y-5.5565
X13.9009Y-5.5565
X13.0371Y-5.5313
X13.3371Y-5.5313
X12.6621Y-2.9033
X12.9621Y-2.9033
X3.7752Y-6.75
X3.7752Y-6.9469
X7.5701Y-6.94
X7.5701Y-7.1369
X7.3809Y-6.2325
X7.3809Y-6.4294
X9.5343Y-2.8888
X9.7311Y-2.8888
X11.6854Y-6.7416
X11.6854Y-7.0416
X10.8194Y-3.4307
X10.8194Y-3.6276
X2.9811Y-4.9896
X3.2811Y-4.9896
X9.8142Y-6.9586
X9.8142Y-7.2586
X4.3496Y-6.7717
X4.6496Y-6.7717
X10.4654Y-6.9582
X10.4654Y-7.155
X11.8062Y-6.7416
X11.8062Y-7.0416
X6.7546Y-7.0451
X6.9514Y-7.0451
X13.0518Y-4.531
X13.3518Y-4.531
X4.4535Y-6.3653
X4.4535Y-6.6653
X4.5535Y-6.3653
X4.5535Y-6.6653
X4.6535Y-6.3653
X4.6535Y-6.6653
X4.7535Y-6.3653
X4.7535Y-6.6653
X4.8535Y-6.3653
X4.8535Y-6.6653
X4.9535Y-6.3653
X4.9535Y-6.6653
X5.0535Y-6.3653
X5.0535Y-6.6653
X12.6656Y-5.0145
X12.9656Y-5.0145
X12.2767Y-2.6635
X12.5767Y-2.6635
X14.318Y-6.6628
X14.318Y-6.9628
X13.4321Y-3.5386
X13.629Y-3.5386
X3.6714Y-2.7989
X3.9714Y-2.7989
X5.7551Y-5.8075
X5.952Y-5.8075
X7.1823Y-3.8623
X7.1823Y-4.1623
X7.2823Y-3.8623
X7.2823Y-4.1623
X7.3823Y-3.8623
X7.3823Y-4.1623
X7.4823Y-3.8623
X7.4823Y-4.1623
X7.5823Y-3.8623
X7.5823Y-4.1623
X7.6823Y-3.8623
X7.6823Y-4.1623
X7.7823Y-3.8623
X7.7823Y-4.1623
X7.8823Y-3.8623
X7.8823Y-4.1623
X7.9823Y-3.8623
X7.9823Y-4.1623
X6.5106Y-6.5843
X6.5106Y-6.8843
X6.6106Y-6.5843
X6.6106Y-6.8843
X6.7106Y-6.5843
X6.7106Y-6.8843
X6.8106Y-6.5843
X6.8106Y-6.8843
X4.3504Y-6.1378
X4.6504Y-6.1378
X1.8843Y-2.7772
X1.8843Y-3.0772
X5.3445Y-2.8594
X5.3445Y-3.0563
X4.5885Y-3.1606
X4.5885Y-3.4606
X4.6885Y-3.1606
X4.6885Y-3.4606
X4.7885Y-3.1606
X4.7885Y-3.4606
X4.8885Y-3.1606
X4.8885Y-3.4606
X4.9885Y-3.1606
X4.9885Y-3.4606
X5.0885Y-3.1606
X5.0885Y-3.4606
X5.1885Y-3.1606
X5.1885Y-3.4606
X5.2885Y-3.1606
X5.2885Y-3.4606
X4.242Y-3.7561
X4.4389Y-3.7561
X7.6523Y-3.457
X7.9523Y-3.457
X7.1735Y-4.268
X7.1735Y-4.568
X11.9482Y-4.7566
X11.9482Y-5.0566
X12.0482Y-4.7566
X12.0482Y-5.0566
X12.1482Y-4.7566
X12.1482Y-5.0566
X12.2482Y-4.7566
X12.2482Y-5.0566
X12.3482Y-4.7566
X12.3482Y-5.0566
X12.4482Y-4.7566
X12.4482Y-5.0566
X12.5482Y-4.7566
X12.5482Y-5.0566
X2.7634Y-5.547
X3.0634Y-5.547
X13.3061Y-5.0885
X13.503Y-5.0885
X8.9898Y-6.3306
X9.2898Y-6.3306
X13.572Y-7.0853
X13.7688Y-7.0853
X6.3893Y-3.9574
X6.3893Y-4.1543
X2.7673Y-2.1323
X2.7673Y-2.2323
X2.7673Y-2.3323
X4.8583Y-6.7717
X5.1583Y-6.7717
X6.3872Y-6.5833
X6.3872Y-6.7802
X9.0085Y-2.7716
X9.0085Y-2.8716
X9.0085Y-2.9716
X9.0085Y-3.0716
X9.0085Y-3.1716
X9.0085Y-3.2716
X9.0085Y-3.3716
X9.0085Y-3.4716
X9.3085Y-2.7716
X9.3085Y-2.8716
X9.3085Y-2.9716
X9.3085Y-3.0716
X9.3085Y-3.1716
X9.3085Y-3.2716
X9.3085Y-3.3716
X9.3085Y-3.4716
X1.8854Y-5.0707
X2.0822Y-5.0707
X9.1307Y-5.281
X9.4307Y-5.281
X8.7437Y-2.6435
X9.0437Y-2.6435
X12.6621Y-3.0238
X12.9621Y-3.0238
X3.5689Y-2.8634
X3.5689Y-3.0602
X13.0729Y-6.0833
X13.0729Y-6.2802
X8.7272Y-4.2134
X9.0272Y-4.2134
X5.5486Y-3.0123
X5.7455Y-3.0123
X3.6858Y-4.9762
X3.9858Y-4.9762
X12.6656Y-4.894
X12.9656Y-4.894
X9.7437Y-5.792
X10.0437Y-5.792
X5.04Y-2.1223
X5.34Y-2.1223
X7.2553Y-6.027
X7.5553Y-6.027
X13.9106Y-3.6643
X13.9106Y-3.9643
X14.0106Y-3.6643
X14.0106Y-3.9643
X14.1106Y-3.6643
X14.1106Y-3.9643
X14.2106Y-3.6643
X14.2106Y-3.9643
X3.102Y-2.0469
X3.402Y-2.0469
X5.5276Y-6.5315
X5.5276Y-6.8315
X2.4492Y-4.2596
X2.7492Y-4.2596
X6.2634Y-5.2746
X6.2634Y-5.5746
X2.7293Y-3.1752
X3.0293Y-3.1752
X9.5543Y-5.385
X9.5543Y-5.685
X9.9296Y-2.3583
X9.9296Y-2.6583
X7.4205Y-6.94
X7.4205Y-7.1369
X11.9291Y-6.7408
X11.9291Y-7.0408
X12.0291Y-6.7408
X12.0291Y-7.0408
X12.1291Y-6.7408
X12.1291Y-7.0408
X12.2291Y-6.7408
X12.2291Y-7.0408
X12.3291Y-6.7408
X12.3291Y-7.0408
X12.4291Y-6.7408
X12.4291Y-7.0408
X12.5291Y-6.7408
X12.5291Y-7.0408
X6.323Y-6.4791
X6.623Y-6.4791
X8.6031Y-3.5132
X8.9031Y-3.5132
X7.7039Y-3.5609
X7.7039Y-3.7578
X3.5906Y-5.0982
X3.8906Y-5.0982
X3.3709Y-6.7697
X3.3709Y-6.8697
X3.3709Y-6.9697
X3.3709Y-7.0697
X3.6709Y-6.7697
X3.6709Y-6.8697
X3.6709Y-6.9697
X3.6709Y-7.0697
X10.8126Y-5.3873
X10.8126Y-5.6873
X9.5531Y-6.5401
X9.5531Y-6.7369
X13.9125Y-2.6887
X13.9125Y-2.9887
X14.0125Y-2.6887
X14.0125Y-2.9887
X14.1125Y-2.6887
X14.1125Y-2.9887
X14.2125Y-2.6887
X14.2125Y-2.9887
X2.2743Y-3.3059
X2.2743Y-3.5027
X11.9983Y-1.6049
X12.1952Y-1.6049
X13.0507Y-1.484
X13.3507Y-1.484
X11.9468Y-1.7092
X11.9468Y-2.0092
X12.0468Y-1.7092
X12.0468Y-2.0092
X12.1468Y-1.7092
X12.1468Y-2.0092
X12.2468Y-1.7092
X12.2468Y-2.0092
X12.3468Y-1.7092
X12.3468Y-2.0092
X12.4468Y-1.7092
X12.4468Y-2.0092
X12.5468Y-1.7092
X12.5468Y-2.0092
X3.3705Y-6.6453
X3.6705Y-6.6453
X6.3575Y-5.6782
X6.6575Y-5.6782
X5.2835Y-5.8346
X5.2835Y-6.0315
X10.3194Y-3.4488
X10.6194Y-3.4488
X4.1835Y-3.6361
X4.4835Y-3.6361
X6.9315Y-5.3246
X6.9315Y-5.6246
X5.4713Y-4.8522
X5.4713Y-5.1522
X9.1315Y-5.3857
X9.1315Y-5.6857
X9.2315Y-5.3857
X9.2315Y-5.6857
X9.3315Y-5.3857
X9.3315Y-5.6857
X9.4315Y-5.3857
X9.4315Y-5.6857
X13.8539Y-7.0853
X14.0507Y-7.0853
X8.5827Y-1.8723
X8.5827Y-2.1723
X12.6472Y-7.2396
X12.9472Y-7.2396
X12.6613Y-3.6594
X12.9613Y-3.6594
X11.8195Y-3.7654
X11.8195Y-4.0654
X8.1039Y-5.3435
X8.1039Y-5.6435
X12.1476Y-1.4844
X12.4476Y-1.4844
X4.3484Y-6.8937
X4.6484Y-6.8937
X2.3153Y-2.1915
X2.6153Y-2.1915
X7.6976Y-5.6227
X7.9976Y-5.6227
X7.1567Y-5.6038
X7.1567Y-5.9038
X7.6995Y-4.5263
X7.9995Y-4.5263
X9.2343Y-3.9709
X9.5343Y-3.9709
X7.0528Y-5.1806
X7.0528Y-5.4806
X12.652Y-5.5313
X12.952Y-5.5313
X13.9124Y-4.6653
X13.9124Y-4.9653
X14.0124Y-4.6653
X14.0124Y-4.9653
X14.1124Y-4.6653
X14.1124Y-4.9653
X14.2124Y-4.6653
X14.2124Y-4.9653
X5.5766Y-5.0303
X5.8766Y-5.0303
X2.087Y-2.0898
X2.087Y-2.3898
X10.8075Y-6.431
X11.0043Y-6.431
X13.8707Y-5.0885
X14.0676Y-5.0885
X12.6621Y-3.1443
X12.9621Y-3.1443
X2.6043Y-2.9077
X2.6043Y-2.9865
X13.858Y-6.101
X14.0548Y-6.101
X13.0688Y-6.6629
X13.0688Y-6.9629
X13.1688Y-6.6629
X13.1688Y-6.9629
X13.2688Y-6.6629
X13.2688Y-6.9629
X13.3688Y-6.6629
X13.3688Y-6.9629
X13.4688Y-6.6629
X13.4688Y-6.9629
X13.5688Y-6.6629
X13.5688Y-6.9629
X13.6688Y-6.6629
X13.6688Y-6.9629
X13.7688Y-6.6629
X13.7688Y-6.9629
X12.6476Y-6.6369
X12.9476Y-6.6369
X4.462Y-3.1601
X4.462Y-3.4601
X3.0809Y-3.9663
X3.3809Y-3.9663
X7.1818Y-3.4574
X7.1818Y-3.7574
X8.107Y-4.0165
X8.107Y-4.3165
X11.8894Y-3.3778
X11.8894Y-3.6778
X9.1311Y-3.5979
X9.328Y-3.5979
X11.6094Y-2.6635
X11.9094Y-2.6635
X13.9834Y-6.5156
X14.2834Y-6.5156
X6.3377Y-3.5653
X6.6377Y-3.5653
X4.5885Y-3.5706
X4.5885Y-3.8706
X10.1189Y-6.3086
X10.4189Y-6.3086
X7.0557Y-6.5156
X7.0557Y-6.8156
X6.3231Y-6.237
X6.6231Y-6.237
X7.2744Y-2.1529
X7.2744Y-2.2317
X11.9806Y-6.6369
X12.1775Y-6.6369
X3.6714Y-2.6789
X3.9714Y-2.6789
X1.7598Y-7.0953
X1.7598Y-7.174
X12.1101Y-4.5314
X12.4101Y-4.5314
X4.3504Y-5.8937
X4.6504Y-5.8937
X2.5393Y-2.7677
X2.8393Y-2.7677
X5.6031Y-4.4437
X5.8Y-4.4437
X9.9988Y-6.4318
X9.9988Y-6.7318
X10.0988Y-6.4318
X10.0988Y-6.7318
X10.1988Y-6.4318
X10.1988Y-6.7318
X10.2988Y-6.4318
X10.2988Y-6.7318
X10.3988Y-6.4318
X10.3988Y-6.7318
X10.4988Y-6.4318
X10.4988Y-6.7318
X10.5988Y-6.4318
X10.5988Y-6.7318
X10.6988Y-6.4318
X10.6988Y-6.7318
X13.3062Y-3.1112
X13.5031Y-3.1112
X3.7398Y-5.9211
X4.0398Y-5.9211
X7.8876Y-2.8195
X8.0845Y-2.8195
X2.6594Y-5.2801
X2.6594Y-5.3588
X6.3377Y-3.6861
X6.6377Y-3.6861
X12.666Y-5.2558
X12.966Y-5.2558
X6.2659Y-6.6056
X6.2659Y-6.9056
X9.2311Y-1.7672
X9.5311Y-1.7672
X9.9316Y-1.9709
X9.9316Y-2.2709
X10.0316Y-1.9709
X10.0316Y-2.2709
X10.1316Y-1.9709
X10.1316Y-2.2709
X10.2316Y-1.9709
X10.2316Y-2.2709
X9.2307Y-2.2774
X9.5307Y-2.2774
X3.1664Y-2.6789
X3.4664Y-2.6789
X12.666Y-5.135
X12.966Y-5.135
X6.3377Y-3.8074
X6.6377Y-3.8074
X10.3886Y-5.7917
X10.3886Y-5.8901
X1.8272Y-2.6728
X2.024Y-2.6728
X13.5909Y-2.0545
X13.7877Y-2.0545
X9.1295Y-2.6463
X9.3264Y-2.6463
X3.4694Y-1.6854
X3.7694Y-1.6854
X5.4055Y-5.7315
X5.4055Y-6.0315
X3.9472Y-5.6533
X4.2472Y-5.6533
X2.4484Y-4.5667
X2.7484Y-4.5667
X9.4303Y-2.8707
X9.4303Y-3.1707
X9.2484Y-2.3979
X9.3469Y-2.3979
X14.3325Y-3.6654
X14.3325Y-3.9654
X12.6517Y-6.1349
X12.9517Y-6.1349
X7.7004Y-7.1997
X8.0004Y-7.1997
X8.6031Y-3.3924
X8.9031Y-3.3924
X5.138Y-2.0003
X5.2364Y-2.0003
X13.4369Y-1.484
X13.6338Y-1.484
X4.808Y-2.7561
X4.808Y-3.0561
X7.6996Y-7.0796
X7.9996Y-7.0796
X10.4091Y-5.2822
X10.7091Y-5.2822
X13.9007Y-5.6717
X13.9007Y-5.9717
X14.0007Y-5.6717
X14.0007Y-5.9717
X14.1007Y-5.6717
X14.1007Y-5.9717
X14.2007Y-5.6717
X14.2007Y-5.9717
X8.7043Y-1.8723
X8.7043Y-2.1723
X5.442Y-2.6333
X5.6388Y-2.6333
X6.7562Y-4.4385
X6.9531Y-4.4385
X7.178Y-4.7943
X7.178Y-5.0943
X12.6657Y-1.484
X12.9657Y-1.484
X8.1046Y-6.6762
X8.1046Y-6.9762
X2.9965Y-2.3398
X2.9965Y-2.6398
X2.5949Y-4.8699
X2.7917Y-4.8699
X10.4232Y-2.8176
X10.6201Y-2.8176
X11.019Y-3.4484
X11.319Y-3.4484
X4.162Y-2.9801
X4.462Y-2.9801
X12.6613Y-3.539
X12.9613Y-3.539
X7.2815Y-6.9399
X7.2815Y-7.2399
X2.1293Y-2.4977
X2.1293Y-2.5977
X2.1293Y-2.6977
X2.1293Y-2.7977
X2.1293Y-2.8977
X2.1293Y-2.9977
X2.1293Y-3.0977
X2.1293Y-3.1977
X2.4293Y-2.4977
X2.4293Y-2.5977
X2.4293Y-2.6977
X2.4293Y-2.7977
X2.4293Y-2.8977
X2.4293Y-2.9977
X2.4293Y-3.0977
X2.4293Y-3.1977
X1.9965Y-5.41
X1.9965Y-5.51
X1.9965Y-5.61
X12.6656Y-4.7731
X12.9656Y-4.7731
X10.2677Y-5.7739
X10.2677Y-5.9708
X3.5693Y-3.5359
X3.5693Y-3.7327
X5.018Y-2.2274
X5.018Y-2.4243
X12.666Y-4.6519
X12.966Y-4.6519
X1.9768Y-4.4604
X1.9768Y-4.7604
X1.6776Y-4.9722
X1.6776Y-5.2722
X7.0597Y-6.1302
X7.0597Y-6.4302
X13.3018Y-4.0925
X13.4987Y-4.0925
X4.3138Y-5.1317
X4.5106Y-5.1317
X9.7539Y-3.092
X9.7539Y-3.2888
X4.034Y-3.2521
X4.334Y-3.2521
X7.2952Y-4.2676
X7.2952Y-4.5676
X13.4326Y-2.5415
X13.6294Y-2.5415
X2.1744Y-6.6169
X2.1744Y-6.9169
X8.7236Y-2.277
X9.0236Y-2.277
X3.2689Y-2.1514
X3.2689Y-2.4514
X3.3689Y-2.1514
X3.3689Y-2.4514
X3.4689Y-2.1514
X3.4689Y-2.4514
X3.5689Y-2.1514
X3.5689Y-2.4514
X3.6689Y-2.1514
X3.6689Y-2.4514
X3.7689Y-2.1514
X3.7689Y-2.4514
X3.8689Y-2.1514
X3.8689Y-2.4514
X4.222Y-2.8601
X4.4189Y-2.8601
X12.6649Y-2.2112
X12.9649Y-2.2112
X5.5325Y-4.1622
X5.8325Y-4.1622
X2.6697Y-6.5598
X2.9697Y-6.5598
X13.0813Y-4.0756
X13.0813Y-4.2724
X13.0476Y-2.5423
X13.3476Y-2.5423
X13.8747Y-2.0545
X14.0716Y-2.0545
X6.3854Y-5.3038
X6.3854Y-5.5006
T5
X10.6059Y-4.7431
X10.6059Y-4.94
X10.8028Y-4.8416
X11.1839Y-4.7435
X11.1839Y-4.9404
X11.3807Y-4.842
X10.8417Y-4.5144
X10.8417Y-4.6144
X10.8949Y-4.7435
X10.8949Y-4.9404
X11.0917Y-4.842
X9.79Y-4.9579
X9.8884Y-4.761
X9.9869Y-4.9579
X2.163Y-4.1752
X2.163Y-4.372
X2.3598Y-4.2736
X9.6189Y-1.7829
X9.7173Y-1.5861
X9.8157Y-1.7829
X2.1587Y-7.0402
X2.2571Y-7.237
X2.3555Y-7.0402
X2.0303Y-1.9028
X2.2272Y-1.8043
X2.2272Y-2.0012
T6
X10.0098Y-7.022
X5.5059Y-6.2815
X3.0937Y-6.2618
X5.8268Y-7.4803
X5.8268Y-7.5803
X5.9268Y-7.4803
X5.9268Y-7.5803
X6.0268Y-7.4803
X6.0268Y-7.5803
X6.1268Y-7.4803
X6.1268Y-7.5803
X6.2268Y-7.4803
X6.2268Y-7.5803
X6.3268Y-7.4803
X6.3268Y-7.5803
X6.4268Y-7.4803
X6.4268Y-7.5803
X6.5268Y-7.4803
X6.5268Y-7.5803
X6.6268Y-7.4803
X6.6268Y-7.5803
X6.7268Y-7.4803
X6.7268Y-7.5803
X6.8268Y-7.4803
X6.8268Y-7.5803
X6.9268Y-7.4803
X6.9268Y-7.5803
X1.4354Y-5.1181
X1.4354Y-5.2181
X1.4354Y-5.3181
X1.4354Y-5.4181
X1.4354Y-5.5181
X1.4354Y-5.6181
X1.4354Y-5.7181
X1.4354Y-5.8181
X1.4354Y-5.9181
X1.5354Y-5.1181
X1.5354Y-5.2181
X1.5354Y-5.3181
X1.5354Y-5.4181
X1.5354Y-5.5181
X1.5354Y-5.6181
X1.5354Y-5.7181
X1.5354Y-5.8181
X1.5354Y-5.9181
X2.5843Y-3.1777
X4.9014Y-4.9102
X3.8425Y-3.7579
X6.8028Y-4.918
X9.8529Y-4.241
X9.9529Y-4.241
X10.0529Y-4.241
X10.1529Y-4.241
X10.2529Y-4.241
X10.3529Y-4.241
X10.4529Y-4.241
X10.5529Y-4.241
X10.6529Y-4.241
X10.7529Y-4.241
X10.8529Y-4.241
X10.9529Y-4.241
X11.0529Y-4.241
X11.1529Y-4.241
X11.2529Y-4.241
X11.3529Y-4.241
X11.4529Y-4.241
X11.5529Y-4.241
X9.4235Y-5.1449
X11.089Y-3.8931
X3.0843Y-6.5071
X5.6435Y-4.5854
X4.9762Y-4.2754
X14.4866Y-6.0039
X14.4866Y-6.1039
X14.4866Y-6.2039
X14.4866Y-6.3039
X14.4866Y-6.4039
X14.4866Y-6.5039
X14.4866Y-6.6039
X14.4866Y-6.7039
X14.4866Y-6.8039
X14.5866Y-6.0039
X14.5866Y-6.1039
X14.5866Y-6.2039
X14.5866Y-6.3039
X14.5866Y-6.4039
X14.5866Y-6.5039
X14.5866Y-6.6039
X14.5866Y-6.7039
X14.5866Y-6.8039
X9.0614Y-6.9731
X6.7782Y-6.3384
X10.5906Y-1.4567
X10.5906Y-1.5567
X10.6906Y-1.4567
X10.6906Y-1.5567
X10.7906Y-1.4567
X10.7906Y-1.5567
X10.8906Y-1.4567
X10.8906Y-1.5567
X10.9906Y-1.4567
X10.9906Y-1.5567
X11.4347Y-2.8173
X5.09Y-3.6661
X10.9581Y-5.2972
X3.6102Y-6.3307
X3.1963Y-6.0549
X5.0787Y-1.4567
X5.0787Y-1.5567
X5.1787Y-1.4567
X5.1787Y-1.5567
X5.2787Y-1.4567
X5.2787Y-1.5567
X5.3787Y-1.4567
X5.3787Y-1.5567
X9.7969Y-2.4792
X4.751Y-3.6063
X10.9461Y-5.6428
X1.4354Y-2.6181
X1.4354Y-2.7181
X1.4354Y-2.8181
X1.4354Y-2.9181
X1.4354Y-3.0181
X1.4354Y-3.1181
X1.4354Y-3.2181
X1.4354Y-3.3181
X1.4354Y-3.4181
X1.5354Y-2.6181
X1.5354Y-2.7181
X1.5354Y-2.8181
X1.5354Y-2.9181
X1.5354Y-3.0181
X1.5354Y-3.1181
X1.5354Y-3.2181
X1.5354Y-3.3181
X1.5354Y-3.4181
X8.3575Y-5.4309
X5.4449Y-5.5965
X9.7969Y-2.3343
X5.085Y-2.9055
X5.6435Y-4.735
X4.8193Y-2.6409
X11.0142Y-6.946
X8.4491Y-2.0224
X11.0228Y-6.1074
X3.2233Y-3.7337
X2.8118Y-6.0177
X9.311Y-7.4803
X9.311Y-7.5803
X9.411Y-7.4803
X9.411Y-7.5803
X9.511Y-7.4803
X9.511Y-7.5803
X9.611Y-7.4803
X9.611Y-7.5803
X9.711Y-7.4803
X9.711Y-7.5803
X9.811Y-7.4803
X9.811Y-7.5803
X9.911Y-7.4803
X9.911Y-7.5803
X10.011Y-7.4803
X10.011Y-7.5803
X2.1366Y-5.9402
X4.9232Y-2.1106
X2.7756Y-7.4803
X2.7756Y-7.5803
X2.8756Y-7.4803
X2.8756Y-7.5803
X2.9756Y-7.4803
X2.9756Y-7.5803
X3.0756Y-7.4803
X3.0756Y-7.5803
X3.1756Y-7.4803
X3.1756Y-7.5803
X3.2756Y-7.4803
X3.2756Y-7.5803
X2.9205Y-5.3484
X4.0886Y-5.7874
X6.8066Y-3.5763
X8.3602Y-4.0511
X14.4866Y-4.0748
X14.4866Y-4.1748
X14.4866Y-4.2748
X14.4866Y-4.3748
X14.4866Y-4.4748
X14.4866Y-4.5748
X14.4866Y-4.6748
X14.4866Y-4.7748
X14.4866Y-4.8748
X14.5866Y-4.0748
X14.5866Y-4.1748
X14.5866Y-4.2748
X14.5866Y-4.3748
X14.5866Y-4.4748
X14.5866Y-4.5748
X14.5866Y-4.6748
X14.5866Y-4.7748
X14.5866Y-4.8748
X5.7055Y-6.8709
X2.9243Y-2.9452
X1.5252Y-7.163
X8.3239Y-6.4413
X14.4866Y-2.3425
X14.4866Y-2.4425
X14.4866Y-2.5425
X14.4866Y-2.6425
X14.4866Y-2.7425
X14.4866Y-2.8425
X14.4866Y-2.9425
X14.4866Y-3.0425
X14.4866Y-3.1425
X14.5866Y-2.3425
X14.5866Y-2.4425
X14.5866Y-2.5425
X14.5866Y-2.6425
X14.5866Y-2.7425
X14.5866Y-2.8425
X14.5866Y-2.9425
X14.5866Y-3.0425
X14.5866Y-3.1425
T7
X2.8035Y-6.6858
X3.1035Y-6.6858
X2.8122Y-6.1445
X2.8122Y-6.4445
X7.6871Y-2.7083
X7.7871Y-2.7083
X7.8871Y-2.7083
X6.4038Y-2.7097
X6.5038Y-2.7097
X6.6038Y-2.7097
X2.8033Y-6.8157
X3.1033Y-6.8157
X2.8033Y-6.9447
X3.1033Y-6.9447
T8
X6.9646Y-1.5984
X7.1646Y-1.5984
X7.3646Y-1.5984
T9
X1.378Y-7.5787
X8.2677Y-4.5276
X11.3189Y-1.4764
X4.626Y-7.5787
X1.378Y-4.5276
X7.9724Y-1.4764
X4.626Y-1.4764
X1.378Y-1.4764
X11.3189Y-7.5787
X14.5669Y-1.4764
X7.9724Y-7.5787
X14.5669Y-7.5787
T0
M30
