%TF.GenerationSoftware,KiCad,Pcbnew,(5.1.9-0-10_14)*%
%TF.CreationDate,2021-03-16T16:40:44+11:00*%
%TF.ProjectId,Boom-1-Top,426f6f6d-2d31-42d5-946f-702e6b696361,rev?*%
%TF.SameCoordinates,Original*%
%TF.FileFunction,Profile,NP*%
%FSLAX46Y46*%
G04 Gerber Fmt 4.6, Leading zero omitted, Abs format (unit mm)*
G04 Created by KiCad (PCBNEW (5.1.9-0-10_14)) date 2021-03-16 16:40:44*
%MOMM*%
%LPD*%
G01*
G04 APERTURE LIST*
%TA.AperFunction,Profile*%
%ADD10C,0.050000*%
%TD*%
G04 APERTURE END LIST*
D10*
X137976000Y-176500000D02*
G75*
G03*
X137976000Y-176500000I-576000J0D01*
G01*
X135376000Y-291300000D02*
G75*
G03*
X135376000Y-291300000I-576000J0D01*
G01*
X319576000Y-292700000D02*
G75*
G03*
X319576000Y-292700000I-576000J0D01*
G01*
X473276000Y-291100000D02*
G75*
G03*
X473276000Y-291100000I-576000J0D01*
G01*
X474476000Y-259900000D02*
G75*
G03*
X474476000Y-259900000I-576000J0D01*
G01*
X475276000Y-88524000D02*
G75*
G03*
X475276000Y-88524000I-576000J0D01*
G01*
X297676000Y-84200000D02*
G75*
G03*
X297676000Y-84200000I-576000J0D01*
G01*
X134276000Y-87200000D02*
G75*
G03*
X134276000Y-87200000I-576000J0D01*
G01*
X396900000Y-81400000D02*
X471475000Y-81400000D01*
X396900000Y-81400000D02*
X323100000Y-81400000D01*
X131500000Y-86400000D02*
G75*
G02*
X136500000Y-81400000I5000000J0D01*
G01*
X136500000Y-294700000D02*
G75*
G02*
X131500000Y-289700000I0J5000000D01*
G01*
X476500000Y-289700000D02*
G75*
G02*
X471500000Y-294700000I-5000000J0D01*
G01*
X471475000Y-81400000D02*
G75*
G02*
X476475000Y-86400000I0J-5000000D01*
G01*
X332466666Y-104800000D02*
G75*
G03*
X332466666Y-104800000I-1666666J0D01*
G01*
X328300000Y-104800000D02*
X333300000Y-104800000D01*
X330800000Y-102300000D02*
X330800000Y-107300000D01*
X131500000Y-289700000D02*
X131500000Y-86400000D01*
X471500000Y-294700000D02*
X136500000Y-294700000D01*
X476475000Y-86400000D02*
X476500000Y-289700000D01*
X136500000Y-81400000D02*
X323100000Y-81400000D01*
M02*
