M48
; DRILL file {KiCad (5.1.9-0-10_14)} date Tuesday, March 16, 2021 at 04:40:46 PM
; FORMAT={-:-/ absolute / inch / decimal}
; #@! TF.CreationDate,2021-03-16T16:40:46+11:00
; #@! TF.GenerationSoftware,Kicad,Pcbnew,(5.1.9-0-10_14)
; #@! TF.FileFunction,Plated,1,4,PTH
FMAT,2
INCH
T1C0.0079
T2C0.0157
T3C0.0197
T4C0.0217
T5C0.0236
T6C0.0256
T7C0.0315
T8C0.0394
T9C0.0430
T10C0.0472
T11C0.0551
T12C0.0591
T13C0.0598
T14C0.0709
T15C0.0866
%
G90
G05
T1
X5.3061Y-5.2234
X5.3937Y-10.5807
X5.3976Y-11.3878
X5.4498Y-7.687
X5.4685Y-5.0945
X5.4843Y-4.811
X5.485Y-5.0394
X5.4961Y-7.2402
X5.5Y-7.7283
X5.5039Y-4.7126
X5.5065Y-5.2185
X5.5157Y-7.6512
X5.5276Y-4.9537
X5.5748Y-10.2756
X5.5758Y-10.2156
X5.5886Y-4.253
X5.6093Y-5.0502
X5.6271Y-5.0324
X5.6299Y-4.811
X5.6416Y-8.8676
X5.6435Y-4.1557
X5.6449Y-5.0146
X5.6457Y-8.0098
X5.6512Y-4.2387
X5.6512Y-4.7126
X5.6591Y-8.8858
X5.6645Y-7.7568
X5.6669Y-8.025
X5.6838Y-7.7407
X5.6845Y-8.043
X5.7023Y-7.7235
X5.7025Y-8.0606
X5.7091Y-7.8657
X5.7136Y-10.0852
X5.7234Y-10.4941
X5.7269Y-7.8479
X5.8374Y-8.3997
X5.8504Y-8.4213
X5.8558Y-8.5827
X5.8829Y-7.8435
X5.8937Y-10.4055
X5.9311Y-11.3445
X5.9449Y-10.6045
X5.9451Y-8.0593
X5.9528Y-11.3878
X5.9648Y-10.6219
X6.0374Y-8.3622
X6.0374Y-8.4833
X6.0584Y-8.3825
X6.0625Y-8.4858
X6.0787Y-10.1142
X6.0827Y-6.4291
X6.087Y-5.9085
X6.087Y-6.4032
X6.1012Y-7.4628
X6.1014Y-7.1486
X6.1073Y-5.8602
X6.1073Y-6.4183
X6.1244Y-8.4414
X6.1437Y-8.4665
X6.1555Y-7.2638
X6.1614Y-8.5827
X6.1632Y-8.4826
X6.2323Y-10.9685
X6.2461Y-11.2756
X6.249Y-5.7844
X6.2736Y-7.0846
X6.2782Y-5.0846
X6.2832Y-7.6203
X6.2937Y-7.7598
X6.2953Y-5.0315
X6.2992Y-8.3268
X6.3091Y-8.8396
X6.3131Y-5.0137
X6.3268Y-8.5028
X6.3341Y-5.1063
X6.3465Y-8.9882
X6.3543Y-6.4685
X6.3543Y-6.5079
X6.3583Y-8.2697
X6.3661Y-6.5709
X6.374Y-7.5906
X6.3858Y-7.437
X6.3858Y-7.5236
X6.3862Y-7.7362
X6.3878Y-8.2343
X6.388Y-7.6118
X6.4003Y-7.6338
X6.4114Y-7.7126
X6.4213Y-9.4961
X6.4252Y-10.2756
X6.437Y-7.7126
X6.4547Y-8.2382
X6.4567Y-8.9646
X6.4567Y-9.0669
X6.4567Y-9.4528
X6.4567Y-10.1732
X6.4587Y-5.2953
X6.4587Y-5.4291
X6.4596Y-4.8179
X6.4606Y-7.4055
X6.4606Y-7.5437
X6.4724Y-7.374
X6.4793Y-5.3632
X6.4799Y-4.8388
X6.481Y-7.5689
X6.5Y-4.8579
X6.5217Y-6.4685
X6.5384Y-8.0766
X6.5394Y-9.474
X6.5394Y-10.2756
X6.5394Y-10.6392
X6.5417Y-8.2677
X6.561Y-11.3878
X6.5627Y-8.0697
X6.563Y-8.315
X6.5748Y-6.1949
X6.5802Y-5.2461
X6.5827Y-7.0039
X6.5945Y-7.6429
X6.5961Y-6.0768
X6.6001Y-5.2615
X6.613Y-7.6602
X6.6134Y-5.9587
X6.6179Y-5.2793
X6.626Y-7.0039
X6.6307Y-5.811
X6.6309Y-7.678
X6.6319Y-10.0358
X6.6323Y-9.5579
X6.6357Y-5.2971
X6.6457Y-6.937
X6.648Y-5.624
X6.6535Y-5.315
X6.6535Y-9.9921
X6.6596Y-9.5184
X6.6634Y-10.6565
X6.6772Y-9.9094
X6.6809Y-6.8511
X6.6831Y-11.3189
X6.685Y-9.5362
X6.687Y-11.3878
X6.689Y-6.878
X6.7179Y-6.9728
X6.7358Y-6.9906
X6.7402Y-5.3504
X6.7402Y-5.5256
X6.7441Y-8.1929
X6.7441Y-8.2165
X6.7441Y-8.2953
X6.752Y-9.6024
X6.7559Y-9.2843
X6.7775Y-9.3055
X6.7825Y-6.436
X6.7835Y-10.6738
X6.7839Y-9.6538
X6.7992Y-9.5984
X6.7998Y-9.3268
X6.8028Y-6.4524
X6.8181Y-6.4753
X6.8386Y-9.1417
X6.8552Y-9.1607
X6.8563Y-8.5827
X6.8773Y-8.598
X6.8858Y-6.2795
X6.8919Y-8.9134
X6.8937Y-6.0591
X6.9016Y-8.1417
X6.9134Y-5.374
X6.9134Y-5.4921
X6.9134Y-8.9882
X6.9222Y-6.878
X6.9228Y-8.2165
X6.9228Y-8.4634
X6.9312Y-9.006
X6.9394Y-8.4882
X6.9402Y-8.2441
X6.9882Y-6.2795
X7.0097Y-7.1527
X7.026Y-6.0167
X7.0276Y-7.1348
X7.0472Y-6.0031
X7.0669Y-7.2913
X7.0827Y-9.4724
X7.0827Y-9.7402
X7.089Y-7.4016
X7.0945Y-7.8819
X7.0984Y-5.5315
X7.1054Y-5.4137
X7.1063Y-9.7756
X7.1102Y-7.3701
X7.1123Y-7.8641
X7.1181Y-5.685
X7.1256Y-5.4287
X7.126Y-9.811
X7.1301Y-7.8463
X7.1339Y-5.1128
X7.1339Y-5.1553
X7.1358Y-5.813
X7.1378Y-9.5551
X7.1417Y-7.4055
X7.1434Y-5.4465
X7.1457Y-7.1963
X7.1514Y-8.7769
X7.1556Y-9.5729
X7.1581Y-9.1175
X7.1612Y-5.4644
X7.1654Y-8.7559
X7.1759Y-9.0997
X7.1772Y-7.1963
X7.1772Y-7.2992
X7.1772Y-9.5866
X7.1772Y-9.8937
X7.179Y-5.4822
X7.1969Y-5.5
X7.1984Y-9.6063
X7.1997Y-9.915
X7.2197Y-9.6224
X7.2205Y-9.7323
X7.2284Y-5.959
X7.2362Y-5.1553
X7.2362Y-5.7598
X7.247Y-8.9222
X7.247Y-8.9577
X7.247Y-9.0167
X7.247Y-9.06
X7.25Y-6.1142
X7.2559Y-7.4016
X7.2575Y-5.742
X7.2598Y-5.1341
X7.2598Y-7.1789
X7.2756Y-6.1969
X7.2756Y-4.3344
X7.2897Y-4.3136
X7.2997Y-7.4467
X7.3189Y-7.0079
X7.32Y-7.1273
X7.3324Y-7.4471
X7.3346Y-8.8465
X7.335Y-8.4821
X7.3356Y-8.124
X7.3386Y-7.1443
X7.3425Y-6.9803
X7.3449Y-5.2649
X7.3465Y-8.7126
X7.3513Y-8.5013
X7.3541Y-8.1411
X7.3667Y-8.6496
X7.3701Y-4.2224
X7.3701Y-4.248
X7.3701Y-10.5453
X7.3716Y-8.1593
X7.372Y-8.5157
X7.3858Y-9.1378
X7.3894Y-10.5614
X7.3976Y-7.2598
X7.3976Y-7.2953
X7.3976Y-7.3504
X7.3976Y-7.3858
X7.4036Y-9.1556
X7.4079Y-10.5786
X7.4101Y-8.5388
X7.4114Y-8.1699
X7.4215Y-9.1734
X7.4281Y-10.5937
X7.437Y-10.313
X7.4449Y-11.3898
X7.4478Y-10.6094
X7.4567Y-5.2638
X7.4567Y-10.2559
X7.4686Y-10.6235
X7.4781Y-10.2346
X7.4893Y-7.084
X7.4961Y-7.1083
X7.4993Y-10.3343
X7.5108Y-6.2913
X7.5177Y-6.4882
X7.5206Y-10.3535
X7.5386Y-10.3732
X7.5394Y-11.3386
X7.5551Y-11.4134
X7.5984Y-5.9921
X7.6162Y-6.0099
X7.6341Y-6.0278
X7.6457Y-5.4961
X7.6666Y-5.4748
X7.6866Y-5.4545
X7.7047Y-11.4154
X7.7067Y-10.4126
X7.7362Y-5.2598
X7.7377Y-4.5476
X7.752Y-4.5683
X7.7638Y-10.4528
X7.7669Y-7.7831
X7.7677Y-7.3528
X7.7717Y-4.5866
X7.7717Y-5.2008
X7.7882Y-7.3953
X7.7882Y-7.8669
X7.7913Y-8.7323
X7.8071Y-7.374
X7.8094Y-7.8882
X7.811Y-5.2835
X7.8307Y-7.9094
X7.8346Y-4.5276
X7.8361Y-7.2302
X7.8485Y-7.9273
X7.8504Y-4.4882
X7.852Y-7.2106
X7.8622Y-5.6732
X7.8663Y-7.9451
X7.87Y-7.1931
X7.8706Y-4.4731
X7.882Y-10.433
X7.8937Y-5.6142
X7.9075Y-11.3878
X7.9213Y-7.7244
X7.9252Y-5.5512
X7.9252Y-7.3386
X7.9508Y-10.4809
X7.9523Y-7.7669
X7.9528Y-11.288
X7.9606Y-7.4409
X7.972Y-10.4982
X7.9724Y-7.7441
X7.9882Y-8.4488
X7.9898Y-10.5195
X8.0039Y-7.4409
X8.0079Y-10.9075
X8.011Y-10.5368
X8.0117Y-10.8812
X8.0748Y-11.4154
X8.0961Y-11.3169
X8.1029Y-7.2505
X8.1101Y-8.0833
X8.1207Y-7.2683
X8.1304Y-8.0679
X8.1457Y-4.1557
X8.1496Y-10.628
X8.1521Y-8.0526
X8.1673Y-10.86
X8.1794Y-10.6277
X8.183Y-10.1955
X8.1886Y-10.8387
X8.189Y-8.7559
X8.1929Y-8.5157
X8.1973Y-10.1748
X8.1988Y-11.3878
X8.2008Y-10.9055
X8.2068Y-8.7737
X8.2087Y-10.3031
X8.2142Y-8.5709
X8.2154Y-10.885
X8.2224Y-11.4352
X8.2307Y-10.865
X8.2451Y-11.4565
X8.2462Y-10.8451
X8.2748Y-10.0008
X8.2748Y-10.0382
X8.2748Y-10.0776
X8.2748Y-10.1445
X8.2748Y-10.2075
X8.2756Y-11.288
X8.315Y-7.5874
X8.315Y-10.3031
X8.3189Y-7.3346
X8.3317Y-4.815
X8.3386Y-5.0
X8.3543Y-7.437
X8.3543Y-7.6299
X8.3583Y-6.3189
X8.3583Y-6.3661
X8.3622Y-4.6693
X8.3622Y-4.8622
X8.4173Y-9.289
X8.4173Y-9.3661
X8.4331Y-7.4055
X8.437Y-4.7244
X8.437Y-4.9646
X8.437Y-7.6063
X8.4606Y-4.5866
X8.4685Y-8.2441
X8.4882Y-8.3819
X8.4961Y-7.0945
X8.4984Y-5.7633
X8.4995Y-6.4772
X8.5085Y-8.3228
X8.5098Y-10.4685
X8.5139Y-7.1123
X8.5161Y-10.7929
X8.517Y-6.4591
X8.5197Y-5.7402
X8.5236Y-8.2047
X8.5262Y-10.4494
X8.541Y-10.8142
X8.5445Y-10.432
X8.5602Y-10.8315
X8.5622Y-10.4141
X8.5747Y-10.8521
X8.5785Y-10.3949
X8.585Y-6.4803
X8.59Y-6.6864
X8.5957Y-10.3765
X8.5961Y-10.8661
X8.6102Y-6.4803
X8.6102Y-6.7047
X8.6137Y-10.3588
X8.6142Y-10.8836
X8.6305Y-6.6869
X8.6315Y-10.341
X8.6323Y-9.1861
X8.634Y-10.9018
X8.6506Y-10.3245
X8.6535Y-6.2953
X8.6535Y-6.3898
X8.6535Y-9.1614
X8.6561Y-10.9184
X8.6583Y-6.5591
X8.6693Y-10.3033
X8.6835Y-6.5591
X8.6893Y-10.2782
X8.705Y-6.9821
X8.7087Y-6.5591
X8.7087Y-7.5276
X8.7165Y-7.3386
X8.7165Y-11.474
X8.7255Y-6.9974
X8.7396Y-4.6503
X8.7402Y-4.9606
X8.748Y-6.5551
X8.748Y-7.0118
X8.748Y-7.437
X8.748Y-7.5701
X8.7638Y-4.6102
X8.7638Y-4.8661
X8.785Y-4.6242
X8.8268Y-7.4055
X8.8271Y-6.0835
X8.8282Y-5.7825
X8.8307Y-7.5512
X8.8425Y-8.4134
X8.8455Y-6.1007
X8.8465Y-4.9606
X8.8483Y-5.7978
X8.8622Y-6.9094
X8.8622Y-8.1929
X8.8657Y-6.1227
X8.8667Y-5.815
X8.8858Y-6.1378
X8.888Y-5.4085
X8.8997Y-5.3862
X8.9134Y-8.5472
X8.9154Y-5.3665
X8.9331Y-9.9055
X8.937Y-6.2126
X8.9512Y-9.2874
X8.9512Y-10.0118
X8.9528Y-10.3632
X8.9583Y-6.1948
X8.9724Y-8.5906
X8.9724Y-9.2126
X8.9724Y-10.0394
X8.9937Y-9.2992
X8.9937Y-9.9919
X9.0089Y-8.5128
X9.0118Y-8.7351
X9.0118Y-9.9293
X9.0119Y-8.4878
X9.0583Y-11.0283
X9.0709Y-10.0512
X9.0709Y-11.2455
X9.0827Y-9.8868
X9.0863Y-6.3135
X9.1002Y-6.2925
X9.1144Y-6.2717
X9.1299Y-6.4108
X9.1514Y-6.391
X9.1654Y-6.3701
X9.1713Y-7.0315
X9.189Y-8.7717
X9.1969Y-9.5945
X9.2068Y-8.7538
X9.2108Y-9.5732
X9.2421Y-9.376
X9.2695Y-4.7537
X9.2872Y-4.7716
X9.2992Y-10.7717
X9.3051Y-10.7461
X9.3052Y-4.7892
X9.311Y-11.3465
X9.313Y-9.3543
X9.3145Y-10.7227
X9.315Y-11.4528
X9.3193Y-7.7756
X9.3219Y-4.8081
X9.3365Y-4.8286
X9.3406Y-7.7343
X9.3543Y-4.8465
X9.3618Y-7.7555
X9.3618Y-9.2992
X9.3858Y-11.4134
X9.3976Y-8.4902
X9.3981Y-7.9743
X9.4061Y-11.311
X9.4075Y-8.5177
X9.4173Y-6.4648
X9.4213Y-11.3839
X9.4232Y-7.9754
X9.4349Y-6.4467
X9.4488Y-7.0335
X9.4488Y-7.9754
X9.453Y-6.4291
X9.4594Y-5.0198
X9.4646Y-6.563
X9.4685Y-9.4409
X9.4685Y-10.1181
X9.4749Y-5.0397
X9.4862Y-8.624
X9.4863Y-10.0969
X9.4896Y-5.0602
X9.4898Y-9.4685
X9.4935Y-6.549
X9.5063Y-5.079
X9.5157Y-6.5354
X9.5211Y-5.0995
X9.5315Y-5.9724
X9.5354Y-5.8583
X9.5384Y-5.1177
X9.5433Y-9.9449
X9.5472Y-10.1772
X9.5762Y-10.5039
X9.5762Y-10.752
X9.5762Y-11.0283
X9.5984Y-9.0394
X9.5984Y-9.4213
X9.626Y-10.3346
X9.626Y-10.4134
X9.6478Y-7.8169
X9.673Y-7.8169
X9.6982Y-7.8169
X9.7195Y-7.6016
X9.7245Y-8.0219
X9.7303Y-8.8307
X9.7362Y-9.0669
X9.7362Y-9.2402
X9.7407Y-7.5843
X9.7423Y-8.0041
X9.7502Y-8.8141
X9.754Y-5.7098
X9.7543Y-5.374
X9.7618Y-7.563
X9.762Y-7.9883
X9.7675Y-8.7949
X9.7756Y-5.1693
X9.7756Y-5.6969
X9.8071Y-5.6756
X9.8071Y-5.9291
X9.8175Y-5.6526
X9.8249Y-5.9494
X9.9252Y-9.3425
X9.9471Y-9.0709
X9.9471Y-9.2165
X9.9512Y-5.5748
X9.9685Y-6.4528
X9.9705Y-10.7047
X9.9724Y-5.5512
X9.9724Y-5.7756
X9.9883Y-10.6869
X10.0047Y-10.6678
X10.0227Y-9.4005
X10.0315Y-5.7795
X10.0315Y-5.9724
X10.0374Y-7.3366
X10.0374Y-7.5866
X10.0496Y-5.6717
X10.0512Y-5.4409
X10.063Y-9.2677
X10.063Y-9.2913
X10.063Y-9.3701
X10.0669Y-8.2638
X10.0709Y-6.2008
X10.0709Y-5.4685
X10.0709Y-5.6557
X10.0728Y-11.4134
X10.0732Y-7.5866
X10.0787Y-7.374
X10.0941Y-11.3169
X10.0945Y-8.7087
X10.0961Y-6.2008
X10.0984Y-7.4035
X10.0984Y-7.5866
X10.1102Y-5.6811
X10.1102Y-8.0526
X10.1102Y-11.3858
X10.1201Y-7.3146
X10.1236Y-7.5866
X10.126Y-10.0591
X10.1339Y-5.6608
X10.1417Y-8.3974
X10.1496Y-5.0748
X10.1654Y-10.4961
X10.1732Y-9.1654
X10.1732Y-9.1906
X10.1929Y-4.7612
X10.1929Y-4.9963
X10.1969Y-6.8898
X10.2047Y-7.4409
X10.2071Y-7.6713
X10.2087Y-5.3661
X10.2087Y-8.3386
X10.2165Y-9.8819
X10.2244Y-7.2933
X10.2283Y-7.7146
X10.2283Y-8.3543
X10.2283Y-9.2165
X10.2305Y-9.9029
X10.2353Y-8.1852
X10.2362Y-6.2756
X10.2378Y-9.2953
X10.2475Y-9.9214
X10.2519Y-7.7234
X10.254Y-6.2578
X10.2545Y-7.0334
X10.2551Y-9.3175
X10.2719Y-7.0152
X10.2739Y-7.7358
X10.2741Y-7.0557
X10.2773Y-6.248
X10.2872Y-6.9952
X10.2873Y-7.0771
X10.2953Y-5.3449
X10.2953Y-5.6181
X10.2992Y-7.8031
X10.3143Y-5.3276
X10.3165Y-5.603
X10.3307Y-6.2795
X10.3337Y-6.9045
X10.3366Y-9.128
X10.3425Y-7.8031
X10.3483Y-6.884
X10.3485Y-6.2973
X10.3661Y-6.8661
X10.3663Y-6.3152
X10.3819Y-10.5266
X10.3858Y-7.8031
X10.4016Y-11.2638
X10.4114Y-10.6988
X10.4528Y-9.1909
X10.4528Y-11.0283
X10.4547Y-8.3602
X10.4587Y-10.772
X10.4724Y-7.8031
X10.4882Y-10.6776
X10.5079Y-9.1654
X10.563Y-6.7677
X10.6299Y-5.8268
X10.6378Y-6.7677
X10.6811Y-10.5093
X10.7126Y-6.7677
X10.7516Y-11.5784
X10.7598Y-11.4173
X10.7638Y-7.2047
X10.7652Y-7.0731
X10.7717Y-10.2677
X10.7795Y-10.4919
X10.7816Y-7.2238
X10.7835Y-6.7677
X10.7835Y-7.0557
X10.7953Y-11.2642
X10.7956Y-6.8265
X10.8128Y-6.8449
X10.8268Y-5.8268
X10.8307Y-11.5236
X10.9016Y-6.7205
X10.9016Y-6.8386
X10.9094Y-11.4685
X10.9193Y-8.7421
X10.9193Y-8.7673
X10.9193Y-8.7925
X10.9193Y-8.8177
X10.9193Y-8.8429
X10.9193Y-8.8681
X10.9272Y-10.6575
X10.9291Y-11.4272
X10.9449Y-10.063
X10.945Y-10.6397
X10.9504Y-11.3169
X10.9617Y-10.6208
X10.9626Y-11.3898
X11.0118Y-5.3701
X11.0118Y-5.5079
X11.0118Y-8.6988
X11.0118Y-10.4646
X11.0118Y-11.1142
X11.0148Y-10.2923
X11.0157Y-6.3228
X11.0157Y-6.5433
X11.0315Y-6.1811
X11.0335Y-8.5591
X11.036Y-6.5255
X11.0463Y-10.2923
X11.0512Y-9.3386
X11.0551Y-6.0394
X11.0551Y-8.4154
X11.0563Y-6.509
X11.063Y-4.4606
X11.063Y-6.0039
X11.063Y-10.5266
X11.069Y-9.3589
X11.0766Y-6.3583
X11.0766Y-6.4923
X11.0853Y-9.3786
X11.0856Y-10.2923
X11.0969Y-6.4759
X11.0984Y-6.2165
X11.1031Y-9.3964
X11.11Y-10.0805
X11.11Y-10.3583
X11.1132Y-6.514
X11.1181Y-6.3785
X11.121Y-9.4142
X11.122Y-11.4488
X11.128Y-11.0283
X11.1313Y-9.7224
X11.1353Y-10.4523
X11.1387Y-9.4321
X11.1457Y-10.772
X11.1525Y-9.7012
X11.1551Y-10.4367
X11.1654Y-8.7323
X11.1738Y-9.6799
X11.1754Y-10.4217
X11.1878Y-10.5736
X11.189Y-10.772
X11.1929Y-9.4376
X11.1951Y-9.6587
X11.1965Y-10.408
X11.2114Y-9.4547
X11.2126Y-7.1589
X11.2153Y-9.6374
X11.2163Y-10.3924
X11.2165Y-7.7402
X11.2283Y-10.6776
X11.23Y-9.4717
X11.2303Y-7.1358
X11.2329Y-7.7146
X11.2382Y-8.561
X11.2382Y-9.6161
X11.2382Y-10.3799
X11.2494Y-6.0079
X11.2499Y-9.4872
X11.2684Y-9.5043
X11.2717Y-7.1852
X11.2835Y-10.5948
X11.2879Y-9.5203
X11.2913Y-5.7913
X11.2913Y-6.0315
X11.311Y-8.7028
X11.3189Y-10.1575
X11.3363Y-10.3614
X11.3443Y-9.5732
X11.3583Y-9.5945
X11.3633Y-9.2189
X11.378Y-9.2394
X11.3898Y-7.6614
X11.3898Y-7.8937
X11.4685Y-8.0526
X11.4764Y-7.7677
X11.5011Y-10.0828
X11.5079Y-9.5748
X11.5118Y-9.9449
X11.5263Y-10.082
X11.5276Y-7.689
X11.5276Y-7.7142
X11.5305Y-9.965
X11.5518Y-9.9862
X11.5524Y-10.082
X11.5728Y-10.6614
X11.5787Y-11.4134
X11.5892Y-10.6423
X11.6Y-11.311
X11.6059Y-10.6234
X11.6122Y-11.3878
X11.6299Y-5.815
X11.6352Y-7.6614
X11.6377Y-6.7282
X11.6425Y-10.772
X11.6555Y-6.7461
X11.6555Y-7.9449
X11.6706Y-6.7662
X11.6713Y-10.4961
X11.6752Y-7.9705
X11.6909Y-10.5118
X11.6909Y-9.813
X11.6911Y-7.2244
X11.7088Y-10.5296
X11.7102Y-7.2079
X11.7122Y-9.8799
X11.7244Y-7.8701
X11.7335Y-9.8963
X11.7362Y-11.0827
X11.7456Y-10.5228
X11.7461Y-9.7362
X11.7474Y-7.8425
X11.7622Y-9.7169
X11.7646Y-10.5394
X11.7701Y-5.5539
X11.7717Y-5.9331
X11.7795Y-9.6986
X11.7819Y-10.5577
X11.7835Y-11.0283
X11.7992Y-10.772
X11.8445Y-6.7667
X11.8601Y-10.4132
X11.8602Y-9.7913
X11.8701Y-5.0236
X11.935Y-10.3209
X11.9606Y-9.8346
X11.9843Y-7.1866
X11.9843Y-7.4685
X12.0079Y-7.8504
X12.0079Y-7.9961
X12.0217Y-10.2992
X12.0295Y-9.811
X12.0587Y-9.5674
X12.0594Y-9.5926
X12.0689Y-8.4173
X12.0689Y-8.5591
X12.0689Y-8.7028
X12.0768Y-8.8307
X12.0807Y-9.6301
X12.1002Y-9.6474
X12.102Y-8.8464
X12.118Y-9.6687
X12.1232Y-8.8683
X12.1575Y-9.5118
X12.2087Y-7.8504
X12.2087Y-8.0197
X12.2756Y-9.0748
X12.2756Y-9.1201
X12.2756Y-9.1634
X12.3327Y-11.2854
X12.3425Y-7.1024
X12.3543Y-9.8346
X12.3559Y-10.6941
X12.3661Y-8.2258
X12.3661Y-10.2354
X12.3772Y-10.7122
X12.3984Y-10.7295
X12.4036Y-4.7853
X12.4154Y-5.3819
X12.4193Y-7.1024
X12.4193Y-10.2567
X12.4197Y-10.7508
X12.4231Y-4.7658
X12.4248Y-9.8108
X12.4409Y-10.7717
X12.4429Y-5.3819
X12.4469Y-11.0362
X12.4665Y-10.687
X12.4685Y-10.2795
X12.4705Y-10.5563
X12.4705Y-10.5815
X12.4705Y-10.6067
X12.4705Y-10.6319
X12.4724Y-10.6575
X12.4731Y-10.5312
X12.4862Y-9.8346
X12.5264Y-5.4806
X12.5276Y-8.1852
X12.5315Y-10.0894
X12.5315Y-10.4213
X12.5354Y-7.1024
X12.5457Y-5.4968
X12.5472Y-7.4528
X12.5506Y-8.2209
X12.5644Y-5.5138
X12.5659Y-7.6181
X12.5768Y-10.7067
X12.5807Y-11.015
X12.5846Y-4.9823
X12.5856Y-5.5955
X12.5862Y-7.687
X12.5862Y-7.9907
X12.5862Y-8.2006
X12.6077Y-5.8532
X12.6535Y-7.0551
X12.6567Y-7.1477
X12.6594Y-5.815
X12.6673Y-10.9937
X12.6806Y-10.4915
X12.6807Y-5.5949
X12.6831Y-10.9705
X12.685Y-10.7323
X12.689Y-10.0469
X12.6908Y-6.8682
X12.7008Y-10.4764
X12.7067Y-10.7047
X12.7189Y-10.0709
X12.7209Y-6.8681
X12.7402Y-10.2146
X12.7461Y-6.8681
X12.748Y-9.7913
X12.7638Y-10.1929
X12.7756Y-6.6955
X12.7815Y-9.8642
X12.8012Y-10.6811
X12.813Y-10.1713
X12.8169Y-9.811
X12.8291Y-10.6575
X12.8291Y-10.9724
X12.8346Y-10.6299
X12.8395Y-6.804
X12.8425Y-10.189
X12.8504Y-11.0157
X12.9214Y-8.2356
X12.9409Y-10.0709
X12.9409Y-10.2402
X12.9449Y-10.3189
X12.9488Y-10.4724
X12.951Y-8.256
X12.9528Y-9.6043
X12.9547Y-11.4173
X12.9561Y-8.7008
X12.9567Y-10.0512
X12.9587Y-10.824
X12.9601Y-4.7871
X12.9622Y-10.2165
X12.9659Y-8.2763
X12.9705Y-8.5591
X12.9719Y-9.5879
X12.9724Y-8.4173
X12.9771Y-10.8068
X12.9799Y-11.3445
X12.9803Y-4.7638
X12.9857Y-8.292
X12.9863Y-3.4949
X12.9918Y-9.5725
X12.9941Y-11.4016
X12.9961Y-10.7894
X13.0067Y-8.307
X13.0079Y-3.5079
X13.0123Y-9.5579
X13.027Y-8.3224
X13.0323Y-9.5426
X13.0515Y-9.5262
X13.0541Y-8.8583
X13.0552Y-6.8095
X13.063Y-10.2165
X13.063Y-10.2441
X13.0765Y-6.8308
X13.0793Y-8.8583
X13.0967Y-6.8521
X13.1056Y-8.8593
X13.1142Y-4.7878
X13.1157Y-6.8741
X13.1181Y-3.4252
X13.126Y-5.6181
X13.1299Y-10.5309
X13.1299Y-10.6417
X13.1317Y-4.7697
X13.1339Y-10.7441
X13.137Y-6.8957
X13.1438Y-5.6359
X13.1575Y-9.628
X13.1575Y-10.1106
X13.1583Y-6.9728
X13.1595Y-5.3995
X13.179Y-5.38
X13.1795Y-6.9917
X13.1811Y-3.4567
X13.1835Y-3.5906
X13.1873Y-8.1009
X13.189Y-9.5748
X13.189Y-10.1283
X13.2008Y-7.0118
X13.201Y-8.0772
X13.2035Y-3.5642
X13.2047Y-3.7795
X13.206Y-8.1178
X13.2146Y-6.1693
X13.222Y-6.7667
X13.2244Y-9.6299
X13.2244Y-10.1496
X13.2256Y-8.1337
X13.226Y-3.6732
X13.226Y-7.5591
X13.2283Y-3.4567
X13.2323Y-10.5118
X13.2323Y-10.6654
X13.2421Y-6.1693
X13.2449Y-8.1499
X13.2559Y-3.4567
X13.2559Y-4.1142
X13.2589Y-10.1063
X13.2648Y-8.1654
X13.2718Y-10.0847
X13.2772Y-3.7874
X13.2772Y-4.0929
X13.2835Y-10.6181
X13.2837Y-8.3481
X13.2874Y-10.7205
X13.2913Y-6.8366
X13.2913Y-7.0319
X13.2921Y-10.0697
X13.2933Y-5.6594
X13.2933Y-6.0453
X13.2933Y-6.435
X13.3031Y-8.2687
X13.3044Y-8.3
X13.3112Y-5.1755
X13.3123Y-10.0547
X13.3152Y-8.425
X13.3248Y-3.6909
X13.3268Y-5.5984
X13.3268Y-5.9941
X13.3286Y-6.7834
X13.3287Y-6.3858
X13.3331Y-10.0394
X13.335Y-7.0512
X13.3354Y-8.4096
X13.3425Y-3.8661
X13.353Y-10.024
X13.3559Y-5.3443
X13.3563Y-7.0728
X13.3583Y-6.8386
X13.3583Y-8.3652
X13.3602Y-5.6594
X13.3602Y-6.0453
X13.3602Y-6.435
X13.3622Y-10.7717
X13.3724Y-5.1778
X13.3731Y-10.0087
X13.3743Y-5.3272
X13.378Y-3.7756
X13.3799Y-8.3917
X13.3898Y-7.2677
X13.3898Y-7.9331
X13.3937Y-3.878
X13.3937Y-5.1476
X13.3937Y-5.311
X13.4016Y-6.7323
X13.4016Y-8.2638
X13.4024Y-8.43
X13.404Y-7.1149
X13.4194Y-6.7145
X13.4225Y-7.0979
X13.4228Y-8.3006
X13.4232Y-8.3605
X13.4291Y-3.7717
X13.4372Y-6.6966
X13.438Y-7.078
X13.4406Y-6.0236
X13.4429Y-4.865
X13.4528Y-6.1988
X13.4528Y-6.2264
X13.4547Y-7.7717
X13.4567Y-10.4685
X13.4579Y-4.8862
X13.4579Y-5.998
X13.4646Y-10.6417
X13.4646Y-10.6693
X13.4705Y-6.0449
X13.4752Y-4.9982
X13.4823Y-7.7717
X13.5Y-8.2638
X13.5Y-8.4075
X13.5177Y-5.6121
X13.5315Y-3.4606
X13.5315Y-3.7717
X13.5394Y-5.0827
X13.5394Y-5.1772
X13.5394Y-10.7441
X13.5433Y-6.9528
X13.5433Y-8.622
X13.5453Y-8.5472
X13.5624Y-5.1035
X13.563Y-5.2441
X13.563Y-9.378
X13.563Y-9.9437
X13.5709Y-8.1417
X13.5748Y-8.2894
X13.5787Y-3.7717
X13.5827Y-5.063
X13.5827Y-5.1772
X13.5827Y-3.4591
X13.585Y-8.9968
X13.5969Y-8.1415
X13.6043Y-8.2899
X13.6063Y-6.0512
X13.6063Y-6.0748
X13.6063Y-6.1535
X13.6063Y-8.5492
X13.6063Y-8.626
X13.6102Y-9.0157
X13.6122Y-10.876
X13.6122Y-11.4213
X13.6181Y-5.5138
X13.6181Y-8.1654
X13.6183Y-4.9057
X13.6276Y-8.7362
X13.6299Y-6.1831
X13.63Y-10.8582
X13.6319Y-9.4016
X13.6335Y-11.3445
X13.6339Y-9.3543
X13.6394Y-7.8976
X13.6395Y-4.9665
X13.6395Y-5.4924
X13.6413Y-7.8386
X13.6417Y-9.9862
X13.6478Y-10.8404
X13.6535Y-11.3878
X13.6608Y-4.9803
X13.6608Y-5.4713
X13.663Y-9.9653
X13.6929Y-3.7677
X13.6929Y-3.8819
X13.7008Y-6.1024
X13.7142Y-3.811
X13.7264Y-7.6118
X13.7283Y-3.3543
X13.7283Y-3.4646
X13.7283Y-6.0748
X13.7283Y-7.4886
X13.7362Y-3.7913
X13.7785Y-7.7402
X13.7795Y-3.7008
X13.7795Y-3.7402
X13.7795Y-4.9488
X13.7815Y-3.4665
X13.7894Y-5.002
X13.7953Y-3.9961
X13.7992Y-8.1535
X13.8031Y-8.9748
X13.811Y-3.8622
X13.8189Y-7.937
X13.8205Y-8.7835
X13.8307Y-3.3622
X13.8346Y-3.4646
X13.8346Y-3.7835
X13.8443Y-7.6758
X13.8543Y-8.0354
X13.8559Y-3.7638
X13.8559Y-3.878
X13.867Y-7.778
X13.8717Y-7.8567
X13.8819Y-9.6102
X13.8843Y-7.6084
X13.8848Y-7.8789
X13.8898Y-3.4646
X13.8976Y-3.7677
X13.9016Y-3.3661
X13.9016Y-7.9094
X13.9056Y-7.585
X13.9094Y-3.878
X13.9134Y-8.8976
X13.9173Y-3.6732
X13.9252Y-3.4472
X13.9313Y-7.7986
X13.9362Y-7.9322
X13.9362Y-8.872
X13.951Y-7.8143
X13.9528Y-3.4472
X13.9567Y-3.6732
X13.9575Y-7.9534
X13.9575Y-8.8307
X13.9587Y-8.002
X13.9724Y-6.3144
X13.9724Y-6.3703
X13.9762Y-7.815
X13.9764Y-7.97
X13.9803Y-4.8661
X13.9843Y-8.6654
X13.9843Y-9.7283
X13.9882Y-3.3661
X13.9882Y-3.4646
X13.9882Y-10.689
X13.9921Y-11.0512
X14.0055Y-8.6866
X14.0079Y-7.7764
X14.0197Y-3.6732
X14.0286Y-3.4557
X14.0483Y-3.4754
X14.0551Y-3.6732
X14.0591Y-7.4134
X14.0591Y-7.5996
X14.063Y-8.3353
X14.0827Y-3.8858
X14.0827Y-9.7323
X14.0866Y-3.7717
X14.0866Y-4.8449
X14.0886Y-8.5059
X14.0947Y-6.3702
X14.1024Y-7.8366
X14.1024Y-8.3543
X14.1059Y-7.7583
X14.1159Y-6.3106
X14.1166Y-6.6251
X14.126Y-7.7185
X14.1271Y-8.186
X14.1327Y-6.6057
X14.1339Y-4.1354
X14.1372Y-6.2894
X14.1491Y-8.1737
X14.1494Y-7.6728
X14.1503Y-6.5877
X14.1535Y-3.4606
X14.1535Y-3.7677
X14.1535Y-3.8858
X14.1585Y-5.9431
X14.1614Y-7.2677
X14.1654Y-7.622
X14.1683Y-6.57
X14.1701Y-5.2281
X14.1713Y-7.6516
X14.1713Y-8.1616
X14.1797Y-5.9169
X14.1835Y-3.7638
X14.1835Y-3.8858
X14.185Y-6.5512
X14.1913Y-5.2102
X14.2008Y-5.8957
X14.2008Y-6.5315
X14.2047Y-4.063
X14.2126Y-5.189
X14.2244Y-3.4646
X14.2301Y-6.4608
X14.2346Y-7.0472
X14.2354Y-6.8298
X14.2479Y-6.443
X14.248Y-3.7677
X14.2491Y-8.0559
X14.252Y-3.8898
X14.2551Y-8.3898
X14.2559Y-6.8445
X14.2559Y-7.0886
X14.2598Y-11.3445
X14.2618Y-10.9154
X14.2657Y-6.4252
X14.2675Y-8.0387
X14.2736Y-5.0079
X14.2782Y-10.8962
X14.2795Y-11.3858
X14.2874Y-3.6707
X14.2874Y-8.0232
X14.2874Y-8.5433
X14.2888Y-5.8214
X14.2955Y-5.4713
X14.311Y-6.2756
X14.3122Y-7.4555
X14.3129Y-5.4925
X14.3175Y-8.3614
X14.3189Y-3.9764
X14.3211Y-10.1172
X14.3211Y-10.2576
X14.3228Y-3.6707
X14.3228Y-10.6969
X14.3313Y-5.5138
X14.3313Y-5.8537
X14.3378Y-10.0983
X14.3388Y-7.4772
X14.3388Y-8.3402
X14.3458Y-6.5305
X14.3465Y-10.748
X14.3465Y-10.2819
X14.3526Y-5.811
X14.3561Y-7.5217
X14.3561Y-8.2626
X14.3563Y-6.9429
X14.3566Y-10.0816
X14.3602Y-6.5098
X14.3642Y-7.1183
X14.3661Y-10.7683
X14.3738Y-5.1693
X14.374Y-6.1555
X14.3749Y-6.4893
X14.3764Y-10.0659
X14.3776Y-6.9576
X14.3858Y-7.2854
X14.3867Y-10.7886
X14.387Y-10.6378
X14.3879Y-6.4677
X14.3898Y-3.6707
X14.3918Y-6.1733
X14.3937Y-3.9764
X14.3941Y-5.7815
X14.3951Y-5.1478
X14.396Y-10.0501
X14.3975Y-6.973
X14.4037Y-6.4482
X14.4071Y-7.252
X14.4073Y-10.2973
X14.4073Y-10.7278
X14.4096Y-6.1911
X14.4141Y-4.141
X14.4153Y-10.0339
X14.4174Y-5.7624
X14.4187Y-6.4279
X14.4188Y-6.987
X14.4252Y-3.6707
X14.4276Y-10.2205
X14.4276Y-10.6766
X14.4283Y-7.1896
X14.429Y-6.2072
X14.4331Y-10.0157
X14.4348Y-6.4085
X14.4354Y-4.9417
X14.437Y-3.3622
X14.437Y-3.8819
X14.439Y-7.561
X14.439Y-7.9154
X14.4395Y-5.747
X14.4409Y-3.4646
X14.4409Y-3.7756
X14.4478Y-10.6581
X14.4484Y-10.2407
X14.4488Y-9.372
X14.4502Y-7.5836
X14.4536Y-7.8949
X14.4567Y-4.5039
X14.4606Y-8.248
X14.4622Y-3.8394
X14.4654Y-7.604
X14.4654Y-7.8726
X14.4705Y-9.2362
X14.4764Y-4.4803
X14.4843Y-4.4528
X14.5079Y-3.3622
X14.5079Y-3.4646
X14.5079Y-3.7756
X14.5079Y-3.878
X14.5079Y-8.4823
X14.5079Y-8.5157
X14.5079Y-8.5492
X14.5117Y-6.2912
X14.5118Y-10.878
X14.5118Y-11.0118
X14.5137Y-9.4903
X14.5237Y-5.1018
X14.5276Y-7.6169
X14.529Y-6.452
X14.5295Y-10.1117
X14.5374Y-3.5522
X14.5374Y-4.7413
X14.5374Y-7.9154
X14.5432Y-5.0835
X14.5453Y-9.2362
X14.5466Y-10.1311
X14.5468Y-5.8535
X14.5498Y-7.6343
X14.5498Y-7.8928
X14.5558Y-9.3458
X14.5591Y-10.5669
X14.5591Y-10.7953
X14.5602Y-5.065
X14.5608Y-6.4908
X14.5642Y-5.8323
X14.5642Y-10.1491
X14.5711Y-7.6516
X14.5711Y-7.8787
X14.5748Y-6.5118
X14.5748Y-8.25
X14.5748Y-11.0551
X14.5776Y-4.8132
X14.5787Y-3.8858
X14.5815Y-10.1687
X14.5923Y-7.6733
X14.5923Y-7.8551
X14.5942Y-6.5279
X14.5945Y-3.7717
X14.5984Y-11.3898
X14.5988Y-4.7919
X14.5988Y-10.1897
X14.6107Y-6.547
X14.6136Y-7.6906
X14.6142Y-9.2303
X14.6181Y-8.8937
X14.6201Y-4.7618
X14.6201Y-7.9075
X14.6201Y-10.2104
X14.6309Y-6.5658
X14.6413Y-4.7402
X14.6413Y-5.1634
X14.6417Y-9.874
X14.6496Y-8.3425
X14.6614Y-3.3622
X14.6614Y-3.7756
X14.6614Y-3.8819
X14.663Y-9.8562
X14.6654Y-3.4646
X14.6683Y-4.48
X14.6706Y-8.3565
X14.6841Y-6.3573
X14.685Y-8.9252
X14.689Y-6.6496
X14.6921Y-7.7566
X14.7016Y-6.252
X14.7029Y-6.0372
X14.7057Y-6.3317
X14.7068Y-6.6674
X14.709Y-7.7759
X14.7215Y-7.4915
X14.7228Y-6.0591
X14.7254Y-6.2805
X14.7268Y-7.7937
X14.7323Y-4.5
X14.7362Y-8.7795
X14.7362Y-10.3126
X14.7362Y-10.6457
X14.7402Y-7.5085
X14.7441Y-6.0
X14.7441Y-6.2244
X14.748Y-6.5039
X14.748Y-7.815
X14.7505Y-6.7298
X14.7589Y-7.5253
X14.7627Y-7.8355
X14.7632Y-10.5073
X14.7638Y-3.4213
X14.7638Y-3.4646
X14.7638Y-3.7756
X14.7638Y-3.8181
X14.7756Y-6.002
X14.7795Y-7.5398
X14.7835Y-8.6906
X14.7835Y-8.7677
X14.7918Y-6.7298
X14.7978Y-5.9897
X14.8012Y-7.4453
X14.811Y-11.3425
X14.813Y-5.2972
X14.8188Y-5.9759
X14.8307Y-10.8224
X14.8327Y-7.0394
X14.8335Y-5.2826
X14.8351Y-6.7298
X14.8551Y-5.2696
X14.8661Y-3.7835
X14.8702Y-3.5862
X14.878Y-6.4331
X14.9065Y-8.6132
X14.907Y-6.7298
X14.9134Y-3.3622
X14.9134Y-3.4685
X14.9148Y-6.4449
X14.9167Y-3.7717
X14.9205Y-6.6929
X14.9252Y-7.061
X14.9311Y-9.6388
X14.9331Y-3.8858
X14.935Y-5.1634
X14.935Y-8.2555
X14.9379Y-8.6159
X14.9429Y-7.1742
X14.9429Y-11.3878
X14.9449Y-10.8012
X14.9469Y-7.9311
X14.9573Y-6.5787
X14.9591Y-6.7835
X14.9646Y-7.5398
X14.9746Y-6.5602
X14.9764Y-11.0433
X14.9783Y-7.8819
X14.9783Y-8.2736
X14.9803Y-6.811
X14.9803Y-10.8437
X14.9823Y-6.689
X14.9921Y-8.7165
X14.9921Y-8.8858
X15.0043Y-6.6589
X15.0048Y-6.8049
X15.0138Y-8.7913
X15.0138Y-9.1417
X15.0157Y-6.1614
X15.0157Y-6.1915
X15.0276Y-7.1535
X15.0285Y-9.6398
X15.0341Y-8.9094
X15.0354Y-8.689
X15.0433Y-7.8602
X15.0433Y-8.2343
X15.0453Y-6.8602
X15.0472Y-4.6654
X15.0472Y-6.6415
X15.0689Y-8.8169
X15.0748Y-4.474
X15.0807Y-7.0394
X15.0984Y-3.7559
X15.0984Y-3.8858
X15.1102Y-3.9882
X15.1102Y-4.0945
X15.1159Y-5.4293
X15.126Y-3.3622
X15.126Y-3.4685
X15.126Y-9.874
X15.1299Y-7.0413
X15.1319Y-4.9766
X15.1319Y-6.1319
X15.1319Y-9.7303
X15.1339Y-10.7087
X15.1344Y-5.4465
X15.1348Y-4.7825
X15.1502Y-5.4661
X15.1531Y-6.1106
X15.1614Y-9.9331
X15.1614Y-10.7305
X15.1705Y-6.0894
X15.191Y-4.4351
X15.1969Y-3.7598
X15.1969Y-3.8819
X15.2008Y-3.3622
X15.2008Y-3.4764
X15.2106Y-6.565
X15.2106Y-6.7014
X15.2124Y-4.1573
X15.2228Y-3.7835
X15.2265Y-6.7226
X15.2308Y-6.5498
X15.2362Y-6.2047
X15.2436Y-8.9748
X15.2459Y-6.7439
X15.2472Y-7.5398
X15.2516Y-6.5356
X15.252Y-3.2992
X15.2638Y-8.9961
X15.2654Y-3.7835
X15.2677Y-3.2727
X15.2685Y-6.593
X15.2816Y-9.0139
X15.2874Y-6.1929
X15.2897Y-6.6083
X15.2953Y-6.3819
X15.3Y-9.4882
X15.3Y-9.9626
X15.3071Y-7.8504
X15.3071Y-8.6102
X15.3071Y-6.7622
X15.311Y-3.7835
X15.311Y-6.6242
X15.3203Y-9.3465
X15.3203Y-9.9823
X15.3386Y-10.0059
X15.3406Y-9.2047
X15.3583Y-3.3622
X15.3583Y-3.4764
X15.3583Y-3.7638
X15.3583Y-3.8819
X15.4016Y-5.811
X15.406Y-6.9731
X15.4252Y-6.9567
X15.4291Y-3.3622
X15.4291Y-3.4685
X15.4291Y-3.7717
X15.4291Y-3.8819
X15.4302Y-10.5749
X15.437Y-4.0945
X15.437Y-4.378
X15.4385Y-8.8449
X15.439Y-9.2008
X15.4528Y-6.9646
X15.4548Y-4.0767
X15.4583Y-4.3567
X15.4587Y-9.2315
X15.4588Y-8.8681
X15.4795Y-4.3354
X15.4803Y-3.8504
X15.4803Y-6.9455
X15.4823Y-8.8189
X15.4843Y-9.5157
X15.4843Y-11.3858
X15.4941Y-9.2728
X15.5Y-8.7933
X15.5005Y-3.8353
X15.502Y-10.872
X15.5058Y-9.447
X15.5079Y-9.2518
X15.5165Y-10.0462
X15.5276Y-4.7638
X15.5276Y-4.874
X15.5339Y-10.0667
X15.5394Y-3.7638
X15.5394Y-6.4213
X15.5433Y-3.5551
X15.5472Y-10.2299
X15.5531Y-10.0886
X15.5551Y-9.5197
X15.5827Y-3.3858
X15.5949Y-11.3425
X15.5953Y-4.1969
X15.6063Y-6.565
X15.6086Y-10.8933
X15.6161Y-11.4252
X15.6241Y-6.5471
X15.6241Y-6.7628
X15.626Y-4.7323
X15.626Y-4.7575
X15.628Y-10.9094
X15.6419Y-6.5293
X15.6466Y-6.7801
X15.6654Y-4.6087
X15.6672Y-6.7974
X15.689Y-4.7953
X15.6929Y-8.8406
X15.6929Y-8.9862
X15.7244Y-8.6564
X15.7376Y-7.1932
X15.7561Y-7.2103
X15.7579Y-5.803
X15.7745Y-7.2276
X15.7774Y-5.821
X15.7926Y-7.2451
X15.7934Y-5.8404
X15.7992Y-8.8406
X15.7992Y-9.0075
X15.81Y-7.2633
X15.8109Y-5.8585
X15.8139Y-8.82
X15.8232Y-9.0256
X15.829Y-5.876
X15.8291Y-7.2797
X15.8466Y-5.8941
X15.8484Y-8.3701
X15.8494Y-7.2992
X15.8621Y-5.914
X15.8785Y-5.9772
X15.8807Y-6.2952
X15.8937Y-6.2736
X15.894Y-5.9978
X15.9043Y-7.8087
X15.9094Y-6.0197
X15.9094Y-6.2539
X15.9173Y-8.2697
X15.9216Y-7.7902
X15.9232Y-8.2362
X15.9252Y-5.9547
X15.9307Y-6.1319
X15.9307Y-6.2327
X15.9429Y-7.7728
X15.9429Y-8.1732
X15.9461Y-6.112
X15.952Y-6.213
X15.9603Y-6.0911
X15.9732Y-6.1933
X15.9849Y-6.0856
X15.9902Y-9.2315
X15.9902Y-9.7244
X15.9921Y-10.7799
X16.0009Y-6.0661
X16.002Y-5.2913
X16.0079Y-6.565
X16.0118Y-6.8148
X16.0158Y-6.0458
X16.0198Y-5.2735
X16.028Y-6.5498
X16.0318Y-6.0264
X16.0354Y-6.8321
X16.0374Y-11.4213
X16.0376Y-5.2557
X16.0381Y-11.4704
X16.0394Y-9.7244
X16.0478Y-6.5343
X16.0488Y-6.0078
X16.0565Y-6.8533
X16.063Y-5.1909
X16.0669Y-5.6142
X16.0768Y-11.3484
X16.0807Y-9.2106
X16.0827Y-11.4704
X16.0843Y-5.2913
X16.0847Y-5.5964
X16.0925Y-8.8406
X16.1013Y-5.5774
X16.1024Y-10.5699
X16.1083Y-9.0429
X16.1294Y-5.9715
X16.1594Y-5.4724
X16.1738Y-5.9572
X16.1929Y-8.5945
X16.1929Y-8.8406
X16.1988Y-9.0602
X16.2008Y-6.9281
X16.2008Y-6.988
X16.2016Y-5.9291
X16.212Y-8.8242
X16.2181Y-5.9502
X16.2205Y-9.0807
X16.2287Y-5.5116
X16.2402Y-4.8386
X16.2422Y-5.9104
X16.2429Y-9.4921
X16.2429Y-10.2559
X16.2602Y-9.3504
X16.2602Y-10.3392
X16.2634Y-5.9271
X16.2807Y-5.9465
X16.2815Y-10.3622
X16.3228Y-9.2047
X16.3248Y-5.1417
X16.3504Y-10.0
X16.3606Y-7.0246
X16.3641Y-7.3405
X16.379Y-7.0074
X16.3819Y-7.3583
X16.3961Y-6.9889
X16.3976Y-5.5039
X16.3997Y-7.3761
X16.4016Y-5.3642
X16.4153Y-6.9726
X16.4176Y-7.3939
X16.4349Y-6.9567
X16.4349Y-7.4134
X16.4449Y-10.0
X16.4646Y-9.1398
X16.465Y-6.4191
X16.4685Y-9.4882
X16.4701Y-7.4991
X16.477Y-6.0906
X16.4774Y-7.4744
X16.4809Y-6.4386
X16.4843Y-8.7717
X16.4858Y-8.8091
X16.4858Y-9.1185
X16.4976Y-6.105
X16.5031Y-8.872
X16.5031Y-9.0981
X16.5217Y-10.4372
X16.5256Y-8.5965
X16.5413Y-9.3504
X16.5457Y-6.903
X16.5486Y-6.5161
X16.5488Y-10.4191
X16.5571Y-9.2067
X16.5591Y-6.1654
X16.5638Y-6.8854
X16.5667Y-6.542
X16.5684Y-10.4033
X16.5807Y-6.563
X16.5807Y-6.8667
X16.589Y-5.5472
X16.589Y-5.7624
X16.5928Y-5.9646
X16.609Y-10.2308
X16.609Y-10.8012
X16.6158Y-5.9819
X16.6259Y-10.2121
X16.6276Y-10.8224
X16.6299Y-6.1654
X16.6369Y-5.9992
X16.6441Y-10.1946
X16.6488Y-10.8437
X16.6496Y-7.8496
X16.6617Y-6.0165
X16.6618Y-10.1767
X16.6654Y-9.8701
X16.6661Y-10.865
X16.6673Y-6.1654
X16.6785Y-10.1579
X16.679Y-6.0378
X16.6827Y-10.8862
X16.6917Y-7.8323
X16.6965Y-10.1402
X16.6969Y-6.0591
X16.6988Y-10.9075
X16.7028Y-6.1654
X16.7047Y-5.126
X16.7047Y-8.2697
X16.7091Y-7.811
X16.7165Y-8.2362
X16.7273Y-5.1441
X16.7303Y-7.7937
X16.7303Y-8.1713
X16.7343Y-8.4069
X16.7382Y-6.1654
X16.7504Y-5.1614
X16.775Y-5.1787
X16.7957Y-5.1961
X16.7972Y-4.7992
X16.8176Y-5.2134
X16.8189Y-4.4094
X16.8189Y-4.9685
X16.8199Y-9.1841
X16.8199Y-9.6398
X16.8346Y-6.2638
X16.8367Y-4.3916
X16.8402Y-4.9472
X16.8545Y-4.3738
X16.8614Y-4.9253
X16.9173Y-11.3878
X16.9183Y-9.1683
X16.9183Y-9.6407
X16.9213Y-10.0157
X16.937Y-9.9961
X16.9394Y-11.3445
X16.9527Y-9.9764
X16.9591Y-8.8726
X16.9591Y-9.1614
X16.9606Y-11.4252
X16.9768Y-8.4059
X16.9803Y-7.526
X16.9803Y-8.8406
X16.9803Y-9.2323
X16.9808Y-11.4403
X16.9819Y-10.0354
X16.9823Y-8.5965
X16.9937Y-8.8192
X16.9983Y-9.2565
X17.0016Y-11.4546
X17.0024Y-6.6242
X17.0024Y-7.2244
X17.0031Y-10.0526
X17.0226Y-11.4684
X17.0236Y-7.3307
X17.0244Y-10.0906
X17.0453Y-6.5039
X17.0669Y-6.5394
X17.0759Y-7.0528
X17.0882Y-6.5827
X17.0914Y-7.0328
X17.1081Y-7.0138
X17.11Y-10.364
X17.1293Y-6.5016
X17.1299Y-7.122
X17.1316Y-10.3769
X17.1506Y-7.1008
X17.1594Y-9.3465
X17.169Y-7.0835
X17.1713Y-9.4902
X17.1811Y-6.5374
X17.189Y-7.5
X17.1999Y-6.5621
X17.2165Y-7.4787
X17.2338Y-6.5617
X17.2474Y-8.7787
X17.248Y-8.9409
X17.2579Y-6.6634
X17.2589Y-6.5567
X17.2677Y-8.7585
X17.2717Y-8.8917
X17.2972Y-9.2067
X17.315Y-8.5945
X17.3189Y-9.5177
X17.3268Y-6.3957
X17.3378Y-10.4061
X17.3557Y-10.3884
X17.363Y-8.8719
X17.3668Y-10.3657
X17.3681Y-9.378
X17.376Y-6.6634
X17.3779Y-9.3372
X17.3803Y-8.8406
X17.3819Y-9.4902
X17.3819Y-10.3445
X17.3963Y-9.3544
X17.4016Y-8.8091
X17.408Y-6.0106
X17.4113Y-6.2263
X17.4153Y-9.371
X17.4173Y-7.2756
X17.4173Y-7.5047
X17.4232Y-8.8386
X17.4252Y-8.7382
X17.4291Y-6.2441
X17.4331Y-5.9953
X17.4351Y-7.2519
X17.437Y-7.489
X17.4435Y-8.8228
X17.4484Y-8.3858
X17.459Y-8.803
X17.4646Y-8.4069
X17.4695Y-5.1634
X17.4695Y-5.2864
X17.4724Y-8.9331
X17.4791Y-7.7773
X17.4882Y-6.9725
X17.4882Y-8.2697
X17.4925Y-8.1693
X17.4951Y-5.3533
X17.4951Y-6.5768
X17.4965Y-7.7591
X17.5Y-5.975
X17.5177Y-8.1693
X17.5197Y-5.9547
X17.5197Y-7.7417
X17.5341Y-5.7657
X17.5376Y-6.5039
X17.5413Y-6.9094
X17.5433Y-5.3533
X17.5494Y-5.6654
X17.5592Y-6.9273
X17.5626Y-6.5689
X17.5669Y-8.9331
X17.5679Y-5.1644
X17.5679Y-5.2874
X17.6417Y-5.3543
X17.6437Y-9.2772
X17.6487Y-8.8263
X17.6614Y-7.2953
X17.665Y-9.2909
X17.6654Y-5.1634
X17.6654Y-5.2884
X17.6693Y-8.5138
X17.6827Y-7.2362
X17.6843Y-9.3071
X17.6871Y-8.496
X17.689Y-6.3543
X17.6929Y-11.3898
X17.7049Y-8.4781
X17.7087Y-6.3307
X17.7142Y-11.3465
X17.7165Y-8.8091
X17.7178Y-8.8379
X17.7224Y-9.1382
X17.7227Y-8.4603
X17.7244Y-6.0039
X17.7303Y-5.8002
X17.7313Y-5.1673
X17.7344Y-9.626
X17.7362Y-11.4134
X17.7395Y-5.9827
X17.74Y-9.1201
X17.7427Y-8.4449
X17.7579Y-9.1024
X17.7613Y-8.428
X17.7972Y-7.3094
X17.815Y-9.5906
X17.8512Y-6.8374
X17.8543Y-9.4882
X17.8543Y-9.5138
X17.8543Y-9.539
X17.8543Y-9.5642
X17.8543Y-9.6142
X17.8543Y-9.6929
X17.8583Y-8.6457
X17.8583Y-9.1575
X17.8622Y-6.4705
X17.8681Y-8.7283
X17.8724Y-6.8547
X17.8734Y-6.5063
X17.876Y-7.372
X17.8761Y-9.1753
X17.878Y-7.2346
X17.8925Y-9.1944
X17.8937Y-6.5669
X17.8937Y-6.874
X17.907Y-7.7254
X17.9243Y-7.7071
X17.9283Y-8.1355
X17.935Y-8.7106
X17.9449Y-10.2756
X17.9449Y-10.3504
X17.9451Y-8.1167
X17.9456Y-7.6898
X17.962Y-8.0981
X17.9626Y-5.1683
X17.9626Y-5.8189
X17.9646Y-8.7657
X17.9671Y-7.6728
X17.9754Y-6.2726
X17.9764Y-9.7717
X17.9779Y-8.0786
X17.9836Y-7.028
X17.9843Y-6.9823
X17.9864Y-6.8374
X17.9884Y-7.6555
X17.9961Y-9.7953
X17.9964Y-8.0614
X18.0037Y-7.0432
X18.0097Y-7.6382
X18.0132Y-9.7487
X18.0157Y-8.0453
X18.0217Y-5.7933
X18.0249Y-7.0591
X18.0264Y-5.8642
X18.0274Y-9.7205
X18.0437Y-5.248
X18.0437Y-7.0759
X18.0472Y-8.6791
X18.0506Y-8.7382
X18.0581Y-9.8543
X18.0591Y-8.6437
X18.063Y-9.5394
X18.065Y-7.0906
X18.0669Y-10.5699
X18.0709Y-8.8031
X18.0827Y-9.6181
X18.0846Y-5.0531
X18.0871Y-10.585
X18.1006Y-9.6417
X18.1102Y-6.2238
X18.1102Y-7.189
X18.1122Y-7.526
X18.1181Y-5.3228
X18.126Y-6.2441
X18.1331Y-9.4628
X18.1378Y-9.4882
X18.1555Y-5.1634
X18.1555Y-5.2884
X18.1791Y-6.7193
X18.1844Y-8.9272
X18.189Y-5.3543
X18.1982Y-6.4041
X18.2004Y-6.7366
X18.2031Y-8.9102
X18.2106Y-10.6516
X18.2115Y-7.7079
X18.2136Y-6.4241
X18.2197Y-8.8912
X18.2217Y-6.7558
X18.2224Y-5.1634
X18.2224Y-5.2884
X18.2283Y-6.8374
X18.2303Y-6.4429
X18.2303Y-7.6866
X18.2323Y-7.3996
X18.236Y-8.872
X18.2429Y-6.776
X18.2441Y-10.6969
X18.2539Y-6.4705
X18.2642Y-6.7949
X18.2656Y-10.6378
X18.2736Y-6.5039
X18.2829Y-10.6149
X18.2854Y-6.5709
X18.2854Y-6.8169
X18.2886Y-7.487
X18.2939Y-8.4094
X18.3059Y-7.4445
X18.315Y-9.5276
X18.3268Y-7.4232
X18.3366Y-9.4272
X18.3425Y-6.7283
X18.3425Y-6.7559
X18.3484Y-6.1988
X18.3484Y-7.5685
X18.3558Y-9.1698
X18.3559Y-4.5969
X18.3602Y-5.7421
X18.3622Y-6.1766
X18.3646Y-7.4646
X18.3711Y-8.4272
X18.3787Y-5.2854
X18.3858Y-7.2008
X18.4Y-5.1988
X18.4136Y-7.2362
X18.4136Y-7.6693
X18.4274Y-8.9401
X18.437Y-6.6772
X18.437Y-6.7047
X18.4567Y-6.3409
X18.4585Y-5.5392
X18.4606Y-6.525
X18.4646Y-6.2111
X18.4728Y-6.3216
X18.4819Y-6.5063
X18.4847Y-6.2262
X18.5197Y-5.7382
X18.5236Y-8.4311
X18.5276Y-4.6614
X18.5428Y-8.4147
X18.5498Y-6.0236
X18.5512Y-6.1732
X18.6077Y-8.2539
X18.6087Y-8.0551
X18.6358Y-4.6417
T2
X5.2165Y-7.9213
X5.2283Y-7.7835
X5.2362Y-5.2165
X5.252Y-4.9134
X5.2559Y-7.8425
X5.2638Y-5.0472
X5.2756Y-4.6063
X5.2756Y-5.1417
X5.278Y-4.5709
X5.278Y-4.6417
X5.278Y-4.6772
X5.278Y-4.7126
X5.278Y-4.748
X5.2835Y-7.7638
X5.2953Y-5.4409
X5.3228Y-7.5551
X5.3228Y-7.5984
X5.3268Y-7.7181
X5.374Y-4.8504
X5.374Y-4.8898
X5.4252Y-4.6772
X5.4331Y-5.1693
X5.4409Y-5.0118
X5.4449Y-8.0709
X5.4843Y-4.6772
X5.5551Y-4.3622
X5.5827Y-10.1053
X5.5906Y-4.3268
X5.5984Y-4.3701
X5.6181Y-10.4252
X5.626Y-11.3071
X5.6535Y-7.8937
X5.6671Y-5.1929
X5.689Y-7.4961
X5.6996Y-10.1779
X5.7402Y-7.5827
X5.7559Y-10.3425
X5.7563Y-6.989
X5.7749Y-7.7619
X5.7913Y-4.9606
X5.8098Y-4.8885
X5.8111Y-4.9275
X5.8189Y-4.9921
X5.8189Y-7.7717
X5.8228Y-5.7677
X5.8386Y-9.7205
X5.8398Y-6.8512
X5.8661Y-5.7244
X5.9094Y-7.0
X5.9213Y-7.8504
X5.9531Y-7.3583
X5.9606Y-4.9882
X5.9724Y-9.8622
X5.9744Y-7.0024
X5.9764Y-5.8819
X5.9764Y-8.7205
X5.9921Y-7.3583
X6.0039Y-5.7165
X6.0354Y-5.8819
X6.0354Y-7.0024
X6.0354Y-8.7205
X6.0354Y-9.8622
X6.0394Y-4.9882
X6.0866Y-7.8504
X6.1063Y-7.0
X6.1598Y-7.771
X6.1654Y-9.7244
X6.1681Y-6.8508
X6.189Y-5.7677
X6.1929Y-4.8898
X6.3858Y-4.5787
X6.4173Y-9.4094
X6.4201Y-8.161
X6.4331Y-8.6614
X6.4528Y-5.9606
X6.4646Y-9.0157
X6.4701Y-7.3358
X6.4764Y-5.811
X6.4843Y-6.1142
X6.502Y-10.172
X6.5266Y-6.5052
X6.5283Y-5.2921
X6.5315Y-8.7638
X6.5467Y-5.6654
X6.5669Y-11.3031
X6.5703Y-6.8565
X6.622Y-9.0669
X6.6378Y-6.2992
X6.6632Y-7.7616
X6.6654Y-8.626
X6.6959Y-6.6988
X6.7154Y-9.948
X6.7697Y-6.2673
X6.7909Y-5.0331
X6.8291Y-5.5902
X6.8465Y-7.8937
X6.8583Y-6.9567
X6.8591Y-9.676
X6.8594Y-7.0079
X6.8602Y-8.2441
X6.8622Y-7.0591
X6.8634Y-6.5681
X6.8634Y-7.3358
X6.8666Y-4.7643
X6.9016Y-9.0748
X6.9093Y-6.427
X6.9335Y-6.7559
X6.9449Y-7.9921
X6.9705Y-6.4268
X6.9724Y-9.0394
X6.9732Y-5.5693
X6.9839Y-6.7555
X7.0197Y-8.2953
X7.0264Y-7.0587
X7.0388Y-7.8228
X7.0693Y-6.6189
X7.0919Y-5.6194
X7.1161Y-6.2657
X7.1213Y-9.8437
X7.2104Y-4.987
X7.2165Y-11.311
X7.2185Y-7.2969
X7.2437Y-6.2988
X7.2717Y-8.3071
X7.311Y-8.3268
X7.3457Y-5.6862
X7.3583Y-8.9252
X7.3583Y-8.9646
X7.4035Y-6.1134
X7.4055Y-6.9961
X7.4205Y-5.8165
X7.4319Y-5.9579
X7.4732Y-8.7278
X7.4752Y-7.0315
X7.4843Y-6.3543
X7.4843Y-6.4213
X7.5039Y-9.0748
X7.5118Y-7.2591
X7.5118Y-7.2992
X7.5157Y-4.9907
X7.5157Y-5.0276
X7.5394Y-8.4094
X7.5665Y-4.2496
X7.5681Y-4.289
X7.5831Y-6.187
X7.5854Y-6.5949
X7.5906Y-9.7385
X7.5992Y-8.6563
X7.6Y-8.5236
X7.6004Y-5.0886
X7.6181Y-9.0748
X7.6181Y-9.1181
X7.6322Y-4.9194
X7.6339Y-7.4882
X7.65Y-7.3366
X7.6575Y-5.0157
X7.6575Y-5.0551
X7.702Y-5.2016
X7.7362Y-7.4488
X7.7362Y-7.4882
X7.7575Y-9.4063
X7.8189Y-6.6654
X7.8197Y-5.5925
X7.8354Y-8.089
X7.8598Y-9.0654
X7.9134Y-11.3071
X7.9232Y-4.2224
X7.9236Y-4.5189
X7.9634Y-4.322
X7.9638Y-4.548
X8.0272Y-9.7772
X8.0291Y-7.7732
X8.0445Y-7.3354
X8.0496Y-4.8961
X8.1244Y-7.0606
X8.2756Y-6.1339
X8.2756Y-6.1732
X8.2835Y-6.2874
X8.3189Y-6.2126
X8.3504Y-9.9646
X8.3583Y-6.2126
X8.4Y-7.2949
X8.4016Y-6.1339
X8.4016Y-6.1732
X8.4079Y-4.8555
X8.4094Y-9.2441
X8.4193Y-9.7787
X8.4232Y-9.9646
X8.4803Y-8.4488
X8.4961Y-10.0039
X8.4961Y-10.0433
X8.5394Y-9.315
X8.5421Y-8.872
X8.5433Y-8.2598
X8.5669Y-11.3295
X8.5866Y-8.4843
X8.6098Y-9.0709
X8.6496Y-8.6732
X8.6614Y-9.0709
X8.6732Y-5.1457
X8.6772Y-5.0276
X8.6969Y-9.3661
X8.7362Y-5.0866
X8.7362Y-8.5984
X8.748Y-8.9252
X8.778Y-9.7402
X8.7795Y-8.6811
X8.7913Y-8.3583
X8.7953Y-7.2957
X8.8094Y-4.8539
X8.8268Y-8.6811
X8.8705Y-8.2815
X8.874Y-8.6811
X8.9213Y-8.6811
X8.9449Y-8.248
X8.9882Y-8.248
X9.0236Y-9.3819
X9.0276Y-8.2492
X9.0515Y-9.4128
X9.0669Y-8.2598
X9.0984Y-8.7047
X9.1142Y-8.4843
X9.1496Y-10.1575
X9.1713Y-6.9055
X9.2205Y-8.4488
X9.2244Y-8.2598
X9.237Y-5.3701
X9.2402Y-11.3136
X9.278Y-8.9016
X9.278Y-9.2941
X9.2795Y-7.0433
X9.2795Y-10.2953
X9.3327Y-5.7063
X9.3413Y-10.2951
X9.3425Y-7.0433
X9.4Y-6.0689
X9.4067Y-8.6626
X9.4291Y-10.3583
X9.4291Y-10.4016
X9.4581Y-8.2642
X9.4724Y-10.1575
X9.4921Y-6.9441
X9.5039Y-10.4331
X9.5472Y-11.5354
X9.5681Y-5.1299
X9.5681Y-5.4118
X9.5984Y-8.8868
X9.6024Y-10.1772
X9.6417Y-6.5079
X9.6457Y-6.5827
X9.648Y-5.8055
X9.6526Y-8.9734
X9.7094Y-5.2402
X9.7094Y-5.3016
X9.7362Y-6.5472
X9.752Y-6.7244
X9.7835Y-6.5079
X9.811Y-6.7244
X9.8307Y-6.5472
X9.8319Y-9.0717
X9.8571Y-4.9894
X9.8961Y-7.3925
X9.8969Y-9.0673
X9.8972Y-9.8323
X9.9055Y-11.3309
X9.9252Y-4.4764
X9.9252Y-6.5827
X9.9409Y-5.3858
X9.9429Y-5.0217
X9.9433Y-5.4673
X9.9449Y-5.5157
X9.9736Y-8.9413
X9.9764Y-5.4409
X10.0118Y-5.2126
X10.063Y-5.2126
X10.1378Y-8.4803
X10.1378Y-8.622
X10.1417Y-6.1811
X10.1772Y-8.8878
X10.1772Y-9.3189
X10.1811Y-6.0748
X10.2224Y-8.7638
X10.2244Y-6.3228
X10.2244Y-10.2165
X10.225Y-5.5222
X10.2384Y-8.5177
X10.2453Y-8.9815
X10.2559Y-6.0748
X10.2835Y-6.2165
X10.2882Y-4.9524
X10.2894Y-8.6516
X10.2917Y-9.8319
X10.2974Y-7.3386
X10.3307Y-6.0748
X10.3307Y-9.3681
X10.3543Y-11.4606
X10.3661Y-10.1181
X10.372Y-8.4803
X10.3819Y-8.9291
X10.4213Y-5.5276
X10.4252Y-8.0283
X10.4272Y-7.9134
X10.4291Y-10.1181
X10.4606Y-5.5276
X10.4646Y-8.0283
X10.4665Y-7.9134
X10.5079Y-7.9626
X10.5276Y-6.6063
X10.5551Y-7.7598
X10.5571Y-8.9291
X10.5591Y-5.315
X10.563Y-11.3309
X10.5669Y-6.5315
X10.5669Y-6.6535
X10.5709Y-5.6929
X10.5709Y-10.2165
X10.5984Y-9.3012
X10.6063Y-6.5315
X10.6063Y-6.6535
X10.6634Y-9.0512
X10.6654Y-5.2874
X10.6693Y-9.3425
X10.6992Y-5.8264
X10.6992Y-7.8591
X10.7247Y-9.0512
X10.7575Y-7.8594
X10.7591Y-5.8272
X10.7913Y-5.2874
X10.8858Y-5.6929
X10.8976Y-5.315
X10.8976Y-8.9291
X10.9016Y-7.7598
X10.9882Y-10.063
X10.9961Y-5.6614
X11.0Y-4.5669
X11.0089Y-6.2591
X11.0157Y-10.1339
X11.0157Y-10.1811
X11.0591Y-10.1339
X11.0591Y-10.1811
X11.0831Y-8.7646
X11.085Y-8.6209
X11.0862Y-6.1189
X11.1299Y-5.1969
X11.1299Y-5.6339
X11.1299Y-5.689
X11.1299Y-5.7362
X11.1673Y-8.4807
X11.1681Y-4.9071
X11.1697Y-5.9768
X11.1772Y-4.3386
X11.2Y-6.0736
X11.2008Y-5.2953
X11.202Y-8.8047
X11.2283Y-7.8583
X11.2323Y-6.2244
X11.2362Y-7.9173
X11.248Y-11.3451
X11.2598Y-4.4213
X11.2663Y-8.6224
X11.2728Y-9.8697
X11.2913Y-5.7301
X11.2988Y-7.337
X11.3177Y-8.7638
X11.3256Y-6.2602
X11.3346Y-5.2441
X11.3543Y-7.815
X11.3563Y-7.8681
X11.3593Y-7.437
X11.3789Y-8.2638
X11.4301Y-7.6211
X11.4557Y-5.8602
X11.4567Y-5.6654
X11.4567Y-8.9715
X11.4803Y-7.622
X11.4882Y-6.4449
X11.5069Y-9.0
X11.5082Y-5.6857
X11.5157Y-7.9193
X11.5394Y-4.6063
X11.5618Y-4.9071
X11.5669Y-7.4843
X11.5984Y-5.7283
X11.6102Y-9.0758
X11.6752Y-9.0344
X11.6921Y-9.7776
X11.698Y-7.3374
X11.7118Y-5.8224
X11.7638Y-7.9291
X11.8315Y-5.8213
X11.8386Y-7.8937
X11.8415Y-9.0
X11.9173Y-11.3392
X11.9232Y-8.9803
X11.9232Y-9.1949
X11.935Y-7.7559
X11.9449Y-5.7283
X11.9488Y-5.2795
X11.9626Y-8.2638
X11.9803Y-9.1667
X12.0437Y-7.8547
X12.0614Y-9.8693
X12.0728Y-8.6535
X12.0748Y-5.4173
X12.0748Y-8.7972
X12.0768Y-8.5157
X12.0772Y-6.0709
X12.0866Y-4.3543
X12.087Y-6.2138
X12.1094Y-7.8567
X12.1098Y-6.363
X12.1142Y-4.8425
X12.1378Y-5.4173
X12.1492Y-8.6551
X12.1614Y-4.4055
X12.1862Y-6.3622
X12.2014Y-8.5134
X12.2146Y-6.213
X12.2201Y-6.0685
X12.2236Y-8.7646
X12.2598Y-5.2835
X12.2717Y-4.4055
X12.2815Y-7.7559
X12.3465Y-6.8425
X12.3484Y-6.9469
X12.3484Y-6.9921
X12.3488Y-9.7886
X12.3583Y-5.6929
X12.3819Y-9.0728
X12.3819Y-9.1122
X12.3858Y-6.8425
X12.3878Y-6.9469
X12.3878Y-6.9921
X12.4114Y-4.5587
X12.4508Y-8.9498
X12.4551Y-5.8006
X12.4902Y-9.2106
X12.5118Y-4.7441
X12.5217Y-7.4051
X12.5236Y-10.7638
X12.563Y-9.135
X12.563Y-9.1732
X12.5787Y-10.5157
X12.5886Y-9.0787
X12.5984Y-10.2677
X12.6021Y-5.8216
X12.6063Y-7.5315
X12.6181Y-10.5157
X12.626Y-11.3071
X12.6436Y-10.3071
X12.6476Y-9.0787
X12.6526Y-5.6902
X12.6693Y-7.5315
X12.6878Y-4.9512
X12.6929Y-10.5276
X12.7126Y-4.4291
X12.7205Y-4.7756
X12.7362Y-10.3583
X12.7402Y-4.3346
X12.7559Y-4.5984
X12.7844Y-8.9478
X12.811Y-10.3937
X12.8268Y-8.1535
X12.8346Y-8.0079
X12.8878Y-9.8327
X12.9213Y-10.6929
X12.9262Y-8.1841
X12.9291Y-7.7835
X12.9331Y-8.0866
X12.9406Y-4.9079
X12.9528Y-7.5551
X12.9724Y-8.0
X12.9843Y-6.0709
X12.9843Y-6.2165
X12.9843Y-10.7283
X13.0047Y-7.7927
X13.0049Y-7.8317
X13.0157Y-6.3701
X13.0189Y-8.8051
X13.0386Y-8.0067
X13.0441Y-7.3929
X13.0492Y-8.6535
X13.0502Y-8.5098
X13.0551Y-8.5925
X13.0591Y-6.2165
X13.0728Y-7.4911
X13.0787Y-3.874
X13.0906Y-6.3701
X13.0911Y-8.805
X13.1181Y-7.4921
X13.124Y-7.5551
X13.1535Y-4.3228
X13.1555Y-9.5165
X13.1575Y-7.4921
X13.1614Y-4.0906
X13.1654Y-8.2717
X13.1654Y-8.8051
X13.1732Y-10.189
X13.1821Y-8.3216
X13.187Y-7.7805
X13.187Y-8.0417
X13.1882Y-7.8676
X13.1929Y-3.8268
X13.198Y-6.2929
X13.2022Y-7.4913
X13.2278Y-3.8819
X13.2441Y-10.7205
X13.2441Y-10.7717
X13.2543Y-5.1039
X13.2551Y-5.576
X13.2551Y-6.7583
X13.2953Y-11.3071
X13.2992Y-3.3386
X13.3002Y-5.9331
X13.311Y-4.0354
X13.3622Y-4.6969
X13.3846Y-7.1406
X13.3884Y-6.3177
X13.4016Y-8.5354
X13.4173Y-3.3031
X13.4213Y-7.339
X13.4685Y-10.6069
X13.4803Y-8.5433
X13.4909Y-9.3563
X13.5128Y-5.2776
X13.5197Y-4.6181
X13.5354Y-4.0461
X13.5512Y-3.311
X13.5752Y-4.0465
X13.5846Y-5.4138
X13.6122Y-5.6683
X13.6378Y-4.7402
X13.6602Y-6.1016
X13.6693Y-8.5433
X13.6756Y-7.1492
X13.6811Y-5.8524
X13.6929Y-10.6378
X13.6929Y-10.685
X13.6929Y-10.7402
X13.6929Y-10.8386
X13.7323Y-8.2008
X13.748Y-4.7402
X13.7604Y-7.6581
X13.7665Y-6.1524
X13.776Y-7.1492
X13.815Y-7.6627
X13.8189Y-5.7126
X13.8256Y-7.1492
X13.8346Y-7.7685
X13.8602Y-9.7667
X13.876Y-7.1492
X13.8825Y-8.2362
X13.8825Y-8.2874
X13.95Y-4.9618
X13.9567Y-11.3031
X13.9642Y-6.2472
X13.9646Y-3.252
X13.9724Y-4.2913
X13.9807Y-7.7409
X13.9882Y-3.7756
X13.9882Y-3.8701
X13.9882Y-3.9764
X13.9902Y-6.0906
X14.0016Y-5.8165
X14.0031Y-6.6024
X14.0039Y-3.252
X14.0039Y-9.8661
X14.0646Y-6.1256
X14.0669Y-9.8661
X14.0709Y-4.3268
X14.0933Y-8.4394
X14.0953Y-8.8319
X14.0965Y-7.0205
X14.1024Y-10.7953
X14.1148Y-4.9689
X14.1811Y-4.3386
X14.184Y-4.626
X14.1994Y-8.0453
X14.2087Y-4.9134
X14.2106Y-9.7677
X14.2874Y-8.5906
X14.2874Y-8.6299
X14.2929Y-3.4528
X14.3182Y-11.019
X14.3192Y-10.7837
X14.3228Y-3.9016
X14.3244Y-3.3169
X14.3346Y-3.252
X14.3425Y-4.6929
X14.3571Y-3.4602
X14.3583Y-3.7795
X14.374Y-4.3976
X14.378Y-3.252
X14.3819Y-4.5866
X14.3858Y-9.2717
X14.3858Y-9.311
X14.3858Y-9.4094
X14.3858Y-9.4488
X14.3858Y-9.5512
X14.3976Y-8.628
X14.4035Y-5.4272
X14.4035Y-8.5059
X14.4035Y-8.5453
X14.4055Y-5.2874
X14.4071Y-3.422
X14.4295Y-5.576
X14.4689Y-5.1461
X14.5018Y-6.4006
X14.5053Y-6.3346
X14.5111Y-6.1299
X14.5118Y-6.0866
X14.526Y-7.2185
X14.5276Y-7.4567
X14.5315Y-3.9882
X14.5366Y-5.4246
X14.5393Y-3.4715
X14.5573Y-5.6591
X14.5669Y-3.7122
X14.5709Y-5.5689
X14.5907Y-9.3091
X14.5921Y-3.4715
X14.6102Y-10.4291
X14.6339Y-11.3071
X14.6482Y-5.2512
X14.7283Y-6.9094
X14.7638Y-6.8327
X14.7746Y-6.4311
X14.7746Y-6.4724
X14.7779Y-8.648
X14.7862Y-6.3939
X14.7882Y-6.1177
X14.7953Y-3.3346
X14.7957Y-4.0343
X14.8051Y-6.8327
X14.8051Y-9.7648
X14.8091Y-6.9488
X14.8346Y-3.3346
X14.835Y-4.0339
X14.8504Y-6.9094
X14.8642Y-6.8465
X14.8945Y-8.7154
X14.8957Y-6.1535
X14.8969Y-6.2039
X14.9035Y-6.8465
X14.9178Y-7.0152
X14.9313Y-8.3049
X14.9504Y-9.8657
X14.9528Y-10.5945
X14.965Y-3.7827
X14.9705Y-8.4685
X14.9803Y-10.6457
X15.0039Y-6.5295
X15.0079Y-7.0591
X15.0098Y-6.0472
X15.0098Y-6.0906
X15.0118Y-9.8665
X15.0236Y-8.4685
X15.0461Y-3.7268
X15.0591Y-3.4567
X15.0736Y-7.8906
X15.0886Y-6.502
X15.0906Y-3.5866
X15.1037Y-6.0669
X15.1037Y-6.0669
X15.1102Y-8.3307
X15.1201Y-6.4154
X15.122Y-6.9114
X15.1378Y-4.2795
X15.1378Y-4.5039
X15.1555Y-9.7648
X15.1831Y-8.1626
X15.2201Y-6.4701
X15.2276Y-5.576
X15.2283Y-3.5866
X15.2441Y-3.8937
X15.2783Y-3.9787
X15.2795Y-3.3701
X15.2795Y-3.4646
X15.2795Y-3.6457
X15.2835Y-4.8819
X15.2931Y-9.411
X15.311Y-11.3071
X15.313Y-5.6063
X15.3134Y-9.2669
X15.3139Y-8.7652
X15.3268Y-8.689
X15.3307Y-3.5866
X15.3307Y-4.4691
X15.3366Y-5.5195
X15.337Y-5.4059
X15.3622Y-8.7638
X15.3783Y-9.5894
X15.4205Y-9.4433
X15.4272Y-5.252
X15.4452Y-5.5745
X15.4524Y-9.5894
X15.4882Y-4.5039
X15.4882Y-4.6581
X15.4945Y-5.3941
X15.4992Y-8.6874
X15.502Y-5.6142
X15.5085Y-6.1693
X15.5085Y-6.2323
X15.5085Y-6.2992
X15.5085Y-6.3661
X15.5413Y-4.6969
X15.5728Y-5.5189
X15.5833Y-9.552
X15.5839Y-5.5602
X15.6138Y-6.4701
X15.6299Y-5.0374
X15.7392Y-5.6585
X15.7795Y-9.0368
X15.7874Y-9.7402
X15.798Y-5.3484
X15.8067Y-8.7736
X15.8421Y-8.6712
X15.8425Y-4.6299
X15.8469Y-5.4031
X15.8514Y-9.7657
X15.8937Y-5.3496
X15.9457Y-6.0457
X15.9724Y-11.3071
X15.9798Y-8.533
X15.9799Y-8.4882
X15.9866Y-8.163
X15.9949Y-9.8665
X16.0055Y-6.4695
X16.0559Y-9.8665
X16.1024Y-4.9016
X16.1063Y-4.248
X16.2008Y-9.7657
X16.2035Y-8.7709
X16.2362Y-4.4213
X16.2967Y-5.2524
X16.2967Y-5.3945
X16.315Y-5.535
X16.3386Y-7.189
X16.3583Y-8.6575
X16.3583Y-9.3012
X16.3583Y-9.4429
X16.3583Y-9.5846
X16.3622Y-5.7126
X16.3969Y-6.4705
X16.4016Y-5.5906
X16.4236Y-8.6874
X16.4252Y-6.8898
X16.4331Y-9.3012
X16.4331Y-9.4429
X16.4331Y-9.5846
X16.4567Y-5.685
X16.4846Y-5.2512
X16.4913Y-5.3929
X16.4917Y-5.5339
X16.4994Y-9.6634
X16.4994Y-9.7028
X16.5016Y-6.937
X16.5118Y-7.126
X16.5472Y-7.1378
X16.563Y-5.6693
X16.5925Y-8.7724
X16.5925Y-9.6713
X16.6102Y-6.9882
X16.6215Y-8.9449
X16.6339Y-9.7874
X16.6372Y-9.6457
X16.6378Y-7.1417
X16.6378Y-7.1929
X16.6417Y-11.3071
X16.6457Y-7.0472
X16.685Y-6.2697
X16.685Y-6.378
X16.6949Y-9.7648
X16.7087Y-7.0472
X16.7244Y-6.2697
X16.7283Y-6.378
X16.752Y-6.9882
X16.7638Y-6.3091
X16.7732Y-8.163
X16.7835Y-7.0354
X16.7921Y-6.4689
X16.7939Y-7.1457
X16.7939Y-7.189
X16.8031Y-9.8419
X16.8225Y-7.2378
X16.8661Y-7.0472
X16.8941Y-7.1614
X16.9016Y-6.9843
X16.9016Y-7.2559
X16.9134Y-4.8346
X16.931Y-7.149
X16.937Y-9.8419
X16.9781Y-7.1102
X16.9874Y-8.7728
X17.0039Y-4.2835
X17.0236Y-4.8346
X17.0443Y-9.7648
X17.0453Y-5.6457
X17.0787Y-4.2795
X17.0787Y-4.7756
X17.0866Y-8.7165
X17.1142Y-5.5295
X17.1496Y-8.7205
X17.185Y-6.4717
X17.189Y-8.9449
X17.2008Y-10.0315
X17.2244Y-5.5354
X17.226Y-9.265
X17.2264Y-9.4094
X17.2272Y-9.5508
X17.2677Y-5.2894
X17.2677Y-5.4311
X17.3393Y-5.6017
X17.3406Y-5.4311
X17.3425Y-9.4429
X17.3425Y-9.5846
X17.3799Y-5.5608
X17.3807Y-8.7764
X17.3819Y-4.2717
X17.4173Y-9.5846
X17.435Y-6.3996
X17.435Y-6.4409
X17.4685Y-5.4262
X17.4843Y-10.311
X17.4843Y-10.3858
X17.5197Y-11.3425
X17.5551Y-10.3858
X17.561Y-8.1634
X17.5679Y-5.4262
X17.578Y-6.4713
X17.6161Y-6.3898
X17.626Y-8.5925
X17.626Y-8.6319
X17.6333Y-6.5079
X17.6555Y-6.3917
X17.6654Y-8.5551
X17.6663Y-5.4272
X17.6811Y-9.937
X17.6839Y-8.7496
X17.6929Y-10.1417
X17.7069Y-6.4606
X17.7323Y-8.6496
X17.7332Y-8.5975
X17.7953Y-5.0394
X17.811Y-9.937
X17.815Y-10.2953
X17.815Y-10.3346
X17.8346Y-9.6417
X17.8632Y-5.1752
X17.8652Y-8.6874
X17.878Y-10.5039
X17.878Y-10.563
X17.9043Y-7.0906
X17.9358Y-6.4323
X17.9754Y-9.2047
X18.0197Y-5.1063
X18.0453Y-9.3957
X18.0472Y-10.2874
X18.0472Y-10.3268
X18.0709Y-8.8418
X18.0841Y-7.3013
X18.1063Y-8.5098
X18.1142Y-10.8425
X18.1339Y-9.6915
X18.1339Y-10.311
X18.1378Y-7.0866
X18.1457Y-10.9055
X18.151Y-6.5965
X18.1555Y-5.4272
X18.1772Y-7.0866
X18.1811Y-6.2362
X18.1811Y-9.252
X18.1988Y-9.8677
X18.2008Y-10.874
X18.2126Y-8.6772
X18.2126Y-8.7362
X18.2224Y-5.4272
X18.2402Y-8.6063
X18.2441Y-10.8425
X18.262Y-8.3232
X18.2626Y-8.3697
X18.2651Y-8.5764
X18.2815Y-6.3671
X18.2854Y-7.3346
X18.3071Y-4.2244
X18.3099Y-7.3008
X18.3228Y-5.1063
X18.3362Y-9.8677
X18.3374Y-9.702
X18.3425Y-4.3071
X18.3425Y-4.3465
X18.346Y-6.1215
X18.3577Y-9.6283
X18.378Y-8.8767
X18.378Y-4.3071
X18.378Y-4.3465
X18.378Y-6.9134
X18.3939Y-6.5118
X18.4252Y-4.5276
X18.4726Y-8.5646
X18.5118Y-4.6024
X18.5669Y-6.6535
X18.5709Y-6.3307
X18.5906Y-6.1457
X18.5906Y-6.563
X18.5984Y-8.4134
X18.6024Y-10.0433
X18.6496Y-4.5945
X18.6614Y-8.4646
X18.6614Y-8.563
X18.664Y-6.311
T5
X7.1791Y-9.2756
X7.1791Y-9.3425
X7.1811Y-9.4094
X7.2461Y-9.2756
X7.2461Y-9.3425
X7.2461Y-9.4114
X7.3031Y-4.4921
X7.3031Y-4.5591
X7.3051Y-4.626
X7.315Y-9.2736
X7.315Y-9.3425
X7.3169Y-9.4114
X7.3307Y-7.6043
X7.3307Y-7.6713
X7.3327Y-7.7382
X7.3406Y-5.315
X7.3406Y-5.3819
X7.3425Y-5.4488
X7.3701Y-4.4921
X7.3701Y-4.5591
X7.3701Y-4.628
X7.3976Y-7.6043
X7.3976Y-7.6713
X7.3976Y-7.7402
X7.4075Y-5.315
X7.4075Y-5.3819
X7.4075Y-5.4508
X7.439Y-4.4902
X7.439Y-4.5591
X7.4409Y-4.628
X7.4665Y-7.6024
X7.4665Y-7.6713
X7.4685Y-7.7402
X7.4764Y-5.313
X7.4764Y-5.3819
X7.4783Y-5.4508
X8.7067Y-6.2776
X8.7067Y-6.3445
X8.7087Y-6.4114
X8.7736Y-6.2776
X8.7736Y-6.3445
X8.7736Y-6.4134
X8.8425Y-6.2756
X8.8425Y-6.3445
X8.8445Y-6.4134
X9.9409Y-7.7362
X9.9409Y-7.8031
X9.9429Y-7.8701
X10.0079Y-7.7362
X10.0079Y-7.8031
X10.0079Y-7.872
X10.0768Y-7.7343
X10.0768Y-7.8031
X10.0787Y-7.872
X10.9567Y-6.7008
X10.9567Y-6.7677
X10.9587Y-6.8346
X11.0236Y-6.7008
X11.0236Y-6.7677
X11.0236Y-6.8366
X11.0925Y-6.6988
X11.0925Y-6.7677
X11.0945Y-6.8366
X11.3858Y-10.2264
X11.3858Y-10.2933
X11.3878Y-10.3602
X11.4528Y-10.2264
X11.4528Y-10.2933
X11.4528Y-10.3622
X11.5217Y-10.2244
X11.5217Y-10.2933
X11.5236Y-10.3622
X12.2067Y-9.3386
X12.2067Y-9.4055
X12.2087Y-9.4724
X12.2736Y-9.3386
X12.2736Y-9.4055
X12.2736Y-9.4744
X12.3425Y-9.3366
X12.3425Y-9.4055
X12.3445Y-9.4744
X12.7067Y-7.0354
X12.7067Y-7.1024
X12.7087Y-7.1693
X12.7736Y-7.0354
X12.7736Y-7.1024
X12.7736Y-7.1713
X12.8425Y-7.0335
X12.8425Y-7.1024
X12.8445Y-7.1713
X14.4055Y-6.6634
X14.4055Y-6.7303
X14.4075Y-6.7972
X14.439Y-8.0591
X14.439Y-8.126
X14.4409Y-8.1929
X14.4724Y-6.6634
X14.4724Y-6.7303
X14.4724Y-6.7992
X14.5059Y-8.0591
X14.5059Y-8.126
X14.5059Y-8.1949
X14.5413Y-6.6614
X14.5413Y-6.7303
X14.5433Y-6.7992
X14.5748Y-8.0571
X14.5748Y-8.126
X14.5768Y-8.1949
X16.1988Y-6.0965
X16.1988Y-6.1634
X16.2008Y-6.2303
X16.2657Y-6.0965
X16.2657Y-6.1634
X16.2657Y-6.2323
X16.3307Y-10.0531
X16.3307Y-10.1201
X16.3327Y-10.187
X16.3346Y-6.0945
X16.3346Y-6.1634
X16.3366Y-6.2323
X16.3976Y-10.0531
X16.3976Y-10.1201
X16.3976Y-10.189
X16.4665Y-10.0512
X16.4665Y-10.1201
X16.4685Y-10.189
X17.2598Y-6.7185
X17.2598Y-6.7854
X17.2618Y-6.8524
X17.3268Y-6.7185
X17.3268Y-6.7874
X17.3268Y-6.8543
X17.3957Y-6.7165
X17.3957Y-6.7854
X17.3976Y-6.8543
X17.4508Y-8.9843
X17.4508Y-9.0512
X17.4528Y-9.1181
X17.5177Y-8.9843
X17.5177Y-9.0512
X17.5177Y-9.1201
X17.5866Y-8.9823
X17.5866Y-9.0512
X17.5886Y-9.1201
T6
X6.4813Y-8.7205
X6.5313Y-8.7205
X6.5813Y-8.7205
X6.6313Y-8.7205
X6.6813Y-8.7205
X6.8833Y-6.7122
X6.8949Y-7.9492
X6.9333Y-6.7122
X6.9449Y-7.9492
X6.9833Y-6.7122
X6.9949Y-7.9492
X7.0333Y-6.7122
X7.0449Y-7.9492
X7.0833Y-6.7122
X7.0949Y-7.9492
X8.5614Y-9.0201
X8.6114Y-9.0201
X8.6614Y-9.0201
X8.7114Y-9.0201
X8.7614Y-9.0201
X9.9606Y-5.1713
X10.0106Y-5.1713
X10.0606Y-5.1713
X10.1106Y-5.1713
X10.1606Y-5.1713
X10.1955Y-9.0246
X10.2455Y-9.0246
X10.2955Y-9.0246
X10.3455Y-9.0246
X10.3955Y-9.0246
X11.1492Y-5.3374
X11.1992Y-5.3374
X11.2492Y-5.3374
X11.2992Y-5.3374
X11.3492Y-5.3374
X11.3799Y-7.5744
X11.4299Y-7.5744
X11.4799Y-7.5744
X11.5299Y-7.5744
X11.5799Y-7.5744
X13.6315Y-5.8067
X13.6815Y-5.8067
X13.7315Y-5.8067
X13.7815Y-5.8067
X13.8315Y-5.8067
X14.9213Y-8.4213
X14.9713Y-8.4213
X15.0213Y-8.4213
X15.0713Y-8.4213
X15.1213Y-8.4213
X17.9949Y-9.3476
X18.0449Y-9.3476
X18.0949Y-9.3476
X18.1449Y-9.3476
X18.1949Y-9.3476
T7
X12.7244Y-5.1291
X12.7244Y-5.4291
X12.8244Y-5.1291
X12.8244Y-5.4291
X12.9244Y-5.1291
X12.9244Y-5.4291
X13.0244Y-5.1291
X13.0244Y-5.4291
T8
X5.4315Y-5.4606
X5.4315Y-5.5606
X5.4315Y-5.6606
X5.4315Y-5.7606
X5.4315Y-5.8606
X5.4315Y-5.9606
X5.4315Y-6.0606
X5.4315Y-6.1606
X5.4315Y-6.2606
X5.4315Y-8.1772
X5.4315Y-8.2772
X5.4315Y-8.3772
X5.4315Y-8.4772
X5.4315Y-8.5772
X5.4315Y-8.6772
X5.4315Y-8.7772
X5.4315Y-8.8772
X5.4315Y-8.9772
X5.5315Y-5.4606
X5.5315Y-5.5606
X5.5315Y-5.6606
X5.5315Y-5.7606
X5.5315Y-5.8606
X5.5315Y-5.9606
X5.5315Y-6.0606
X5.5315Y-6.1606
X5.5315Y-6.2606
X5.5315Y-8.1772
X5.5315Y-8.2772
X5.5315Y-8.3772
X5.5315Y-8.4772
X5.5315Y-8.5772
X5.5315Y-8.6772
X5.5315Y-8.7772
X5.5315Y-8.8772
X5.5315Y-8.9772
X6.7717Y-10.3228
X6.7717Y-10.4228
X6.8717Y-10.3228
X6.8717Y-10.4228
X6.9717Y-10.3228
X6.9717Y-10.4228
X6.9984Y-8.6504
X6.9984Y-8.7504
X6.9984Y-8.8504
X7.0717Y-10.3228
X7.0717Y-10.4228
X7.0984Y-8.6504
X7.0984Y-8.7504
X7.0984Y-8.8504
X7.1717Y-10.3228
X7.1717Y-10.4228
X7.2717Y-10.3228
X7.2717Y-10.4228
X7.9787Y-9.437
X7.9787Y-9.537
X8.0787Y-9.437
X8.0787Y-9.537
X8.2425Y-8.3252
X8.2425Y-8.4252
X8.2756Y-5.0866
X8.3425Y-8.3252
X8.3425Y-8.4252
X8.3756Y-5.0866
X8.4756Y-5.0866
X8.5756Y-5.0866
X8.6756Y-5.0866
X9.0748Y-4.2992
X9.0748Y-4.3992
X9.1748Y-4.2992
X9.1748Y-4.3992
X9.2748Y-4.2992
X9.2748Y-4.3992
X9.3748Y-4.2992
X9.3748Y-4.3992
X9.6008Y-4.2402
X9.6008Y-4.3402
X9.6008Y-4.4402
X9.6008Y-4.5402
X9.6693Y-11.5236
X9.7008Y-4.2402
X9.7008Y-4.3402
X9.7008Y-4.4402
X9.7008Y-4.5402
X9.7693Y-11.5236
X9.8228Y-10.3228
X9.8228Y-10.4228
X9.8693Y-11.5236
X9.9228Y-10.3228
X9.9228Y-10.4228
X9.9693Y-11.5236
X9.9882Y-6.9669
X9.9882Y-7.0669
X10.0228Y-10.3228
X10.0228Y-10.4228
X10.0693Y-11.5236
X10.0882Y-6.9669
X10.0882Y-7.0669
X10.1228Y-10.3228
X10.1228Y-10.4228
X10.1693Y-11.5236
X10.2228Y-10.3228
X10.2228Y-10.4228
X10.2693Y-11.5236
X10.3228Y-10.3228
X10.3228Y-10.4228
X10.3693Y-11.5236
X10.4228Y-10.3228
X10.4228Y-10.4228
X10.4693Y-11.5236
X10.5228Y-10.3228
X10.5228Y-10.4228
X10.5693Y-11.5236
X10.6228Y-10.3228
X10.6228Y-10.4228
X10.6693Y-11.5236
X10.7228Y-10.3228
X10.7228Y-10.4228
X10.7693Y-11.5236
X10.8228Y-10.3228
X10.8228Y-10.4228
X10.9228Y-10.3228
X10.9228Y-10.4228
X11.0669Y-11.5236
X11.1669Y-11.5236
X11.2669Y-11.5236
X11.3669Y-11.5236
X11.4079Y-9.7543
X11.4079Y-9.8543
X11.4669Y-11.5236
X11.5079Y-9.7543
X11.5079Y-9.8543
X11.5669Y-11.5236
X11.6669Y-11.5236
X11.7669Y-11.5236
X12.3685Y-7.7921
X12.3685Y-7.8921
X12.3685Y-7.9921
X12.4685Y-7.7921
X12.4685Y-7.8921
X12.4685Y-7.9921
X13.3071Y-10.3228
X13.3071Y-10.4228
X13.4071Y-10.3228
X13.4071Y-10.4228
X13.5071Y-10.3228
X13.5071Y-10.4228
X13.5953Y-6.8976
X13.5953Y-6.9976
X13.6071Y-10.3228
X13.6071Y-10.4228
X13.6283Y-6.4252
X13.6283Y-6.5252
X13.6953Y-6.8976
X13.6953Y-6.9976
X13.7071Y-10.3228
X13.7071Y-10.4228
X13.7283Y-6.4252
X13.7283Y-6.5252
X13.7953Y-6.8976
X13.7953Y-6.9976
X13.8071Y-10.3228
X13.8071Y-10.4228
X13.9071Y-10.3228
X13.9071Y-10.4228
X14.0071Y-10.3228
X14.0071Y-10.4228
X14.2795Y-8.7819
X14.2795Y-8.8819
X14.3291Y-9.8543
X14.3291Y-9.9543
X14.3795Y-8.7819
X14.3795Y-8.8819
X14.4291Y-9.8543
X14.4291Y-9.9543
X14.4795Y-8.7819
X14.4795Y-8.8819
X14.5866Y-4.2992
X14.5866Y-4.3992
X14.6732Y-4.5591
X14.6732Y-4.6591
X14.6866Y-4.2992
X14.6866Y-4.3992
X14.7732Y-4.5591
X14.7732Y-4.6591
X14.7866Y-4.2992
X14.7866Y-4.3992
X14.8866Y-4.2992
X14.8866Y-4.3992
X14.9866Y-4.2992
X14.9866Y-4.3992
X15.2362Y-5.8055
X15.2362Y-5.9055
X15.3362Y-5.8055
X15.3362Y-5.9055
X15.5591Y-10.3268
X15.5591Y-10.4268
X15.5906Y-6.211
X15.5906Y-6.311
X15.6591Y-10.3268
X15.6591Y-10.4268
X15.6906Y-6.211
X15.6906Y-6.311
X15.7591Y-10.3268
X15.7591Y-10.4268
X15.8591Y-10.3268
X15.8591Y-10.4268
X15.9591Y-10.3268
X15.9591Y-10.4268
X16.0591Y-10.3268
X16.0591Y-10.4268
X16.4016Y-4.9094
X16.4016Y-5.0094
X16.5016Y-4.9094
X16.5016Y-5.0094
X17.2362Y-10.1299
X17.2362Y-10.2299
X17.8031Y-5.2677
X17.8031Y-5.3677
X17.8031Y-5.4677
X17.8031Y-5.5677
X17.8031Y-5.6677
X17.8031Y-5.7677
X17.9031Y-5.2677
X17.9031Y-5.3677
X17.9031Y-5.4677
X17.9031Y-5.5677
X17.9031Y-5.6677
X17.9031Y-5.7677
X18.4827Y-5.185
X18.4827Y-5.285
X18.4827Y-5.385
X18.4827Y-5.485
X18.4827Y-5.585
X18.4827Y-5.685
X18.4827Y-5.785
X18.4827Y-5.885
X18.4827Y-5.985
X18.4827Y-6.9173
X18.4827Y-7.0173
X18.4827Y-7.1173
X18.4827Y-7.2173
X18.4827Y-7.3173
X18.4827Y-7.4173
X18.4827Y-7.5173
X18.4827Y-7.6173
X18.4827Y-7.7173
X18.4827Y-8.8268
X18.4827Y-8.9268
X18.4827Y-9.0268
X18.4827Y-9.1268
X18.4827Y-9.2268
X18.4827Y-9.3268
X18.4827Y-9.4268
X18.4827Y-9.5268
X18.4827Y-9.6268
X18.5827Y-5.185
X18.5827Y-5.285
X18.5827Y-5.385
X18.5827Y-5.485
X18.5827Y-5.585
X18.5827Y-5.685
X18.5827Y-5.785
X18.5827Y-5.885
X18.5827Y-5.985
X18.5827Y-6.9173
X18.5827Y-7.0173
X18.5827Y-7.1173
X18.5827Y-7.2173
X18.5827Y-7.3173
X18.5827Y-7.4173
X18.5827Y-7.5173
X18.5827Y-7.6173
X18.5827Y-7.7173
X18.5827Y-8.8268
X18.5827Y-8.9268
X18.5827Y-9.0268
X18.5827Y-9.1268
X18.5827Y-9.2268
X18.5827Y-9.3268
X18.5827Y-9.4268
X18.5827Y-9.5268
X18.5827Y-9.6268
T9
X5.9055Y-4.7913
X5.9055Y-5.0866
X5.9055Y-5.6575
X5.9055Y-6.7992
X5.9055Y-7.0945
X5.9055Y-7.6654
X5.9055Y-8.5315
X5.9055Y-9.6732
X5.9055Y-10.5394
X6.0039Y-4.7913
X6.0039Y-5.6575
X6.0039Y-6.7992
X6.0039Y-7.6654
X6.0039Y-8.5315
X6.0039Y-9.6732
X6.0039Y-10.5394
X6.1024Y-4.7913
X6.1024Y-5.0866
X6.1024Y-5.6575
X6.1024Y-6.7992
X6.1024Y-7.0945
X6.1024Y-7.6654
X6.1024Y-8.5315
X6.1024Y-9.6732
X6.1024Y-10.5394
X6.8425Y-5.6575
X6.8425Y-6.2283
X6.9409Y-6.2283
X7.0394Y-5.6575
X7.0394Y-6.2283
X7.7953Y-6.4449
X7.7953Y-8.8858
X7.8937Y-6.4449
X7.8937Y-8.8858
X7.9921Y-6.4449
X7.9921Y-8.8858
X9.2126Y-5.2244
X9.2126Y-7.6654
X9.2126Y-10.1063
X9.311Y-5.2244
X9.311Y-7.6654
X9.311Y-10.1063
X9.4094Y-5.2244
X9.4094Y-7.6654
X9.4094Y-10.1063
X9.6846Y-5.874
X9.6846Y-6.4449
X9.685Y-8.315
X9.685Y-8.8858
X9.7831Y-6.4449
X9.7835Y-8.8858
X9.8815Y-5.874
X9.8815Y-6.4449
X9.8819Y-8.315
X9.8819Y-8.8858
X10.6295Y-6.4449
X10.6299Y-5.2244
X10.6299Y-7.6654
X10.6299Y-8.8858
X10.6299Y-10.1063
X10.728Y-6.4449
X10.7283Y-5.2244
X10.7283Y-7.6654
X10.7283Y-8.8858
X10.7283Y-10.1063
X10.8264Y-6.4449
X10.8268Y-5.2244
X10.8268Y-7.6654
X10.8268Y-8.8858
X10.8268Y-10.1063
X11.5744Y-5.874
X11.5744Y-6.4449
X11.5748Y-8.315
X11.5748Y-8.8858
X11.6728Y-6.4449
X11.6732Y-8.8858
X11.7713Y-5.874
X11.7713Y-6.4449
X11.7717Y-8.315
X11.7717Y-8.8858
X12.0079Y-5.2244
X12.0079Y-7.6654
X12.1063Y-5.2244
X12.1063Y-7.6654
X12.2047Y-5.2244
X12.2047Y-7.6654
X12.5193Y-6.4449
X12.5197Y-8.8858
X12.6177Y-6.4449
X12.6181Y-8.8858
X12.7161Y-6.4449
X12.7165Y-8.8858
X13.9366Y-5.6579
X13.9366Y-9.6736
X14.035Y-5.6579
X14.035Y-9.6736
X14.1335Y-5.6579
X14.1335Y-9.6736
X14.8815Y-5.6579
X14.8815Y-7.0949
X14.8815Y-7.6657
X14.8815Y-9.6736
X14.9799Y-5.6579
X14.9799Y-7.6657
X14.9799Y-9.6736
X15.0783Y-5.6579
X15.0783Y-7.0949
X15.0783Y-7.6657
X15.0783Y-9.6736
X15.4722Y-8.5319
X15.5707Y-8.5319
X15.6691Y-8.5319
X15.8264Y-5.087
X15.8264Y-5.6579
X15.8264Y-9.1028
X15.8264Y-9.6736
X15.9248Y-5.6579
X15.9248Y-9.6736
X16.0232Y-5.087
X16.0232Y-5.6579
X16.0232Y-9.1028
X16.0232Y-9.6736
X16.2596Y-8.5319
X16.3581Y-8.5319
X16.4565Y-8.5319
X16.7713Y-5.6579
X16.7713Y-9.6736
X16.8697Y-5.6579
X16.8697Y-9.6736
X16.9681Y-5.6579
X16.9681Y-9.6736
X17.047Y-8.5319
X17.1455Y-8.5319
X17.2439Y-8.5319
X17.8346Y-8.5319
X17.9331Y-8.5319
X18.0315Y-8.5319
T10
X7.2598Y-6.4449
X7.2598Y-6.6969
X13.5276Y-7.1772
X13.5276Y-7.4291
T11
X15.7439Y-4.2791
X15.8423Y-4.1811
X15.9409Y-4.6732
X16.0394Y-4.2791
X16.1378Y-4.6732
X16.2364Y-4.1811
X16.3348Y-4.2791
X16.5628Y-4.2791
X16.6612Y-4.1811
X16.7598Y-4.6732
X16.8583Y-4.2791
X16.9567Y-4.6732
X17.0553Y-4.1811
X17.1537Y-4.2791
T12
X5.5177Y-11.0724
X5.7677Y-10.9724
X6.4843Y-11.0724
X6.7343Y-10.9724
X7.1535Y-11.0724
X7.4035Y-10.9724
X7.8228Y-11.0724
X8.0728Y-10.9724
X8.4921Y-11.0724
X8.7421Y-10.9724
X9.1614Y-11.0724
X9.4114Y-10.9724
X9.8307Y-11.0724
X10.0807Y-10.9724
X10.5Y-11.0724
X10.75Y-10.9724
X11.1693Y-11.0724
X11.4193Y-10.9724
X11.8386Y-11.0724
X12.0886Y-10.9724
X12.5079Y-11.0724
X12.7579Y-10.9724
X13.1772Y-11.0724
X13.4272Y-10.9724
X13.8465Y-11.0724
X14.0965Y-10.9724
X14.5157Y-11.0724
X14.7657Y-10.9724
X15.185Y-11.0724
X15.435Y-10.9724
X15.8543Y-11.0724
X16.1043Y-10.9724
X16.5236Y-11.0724
X16.7736Y-10.9724
X16.9547Y-5.998
X17.2047Y-5.898
X17.45Y-11.0724
X17.6114Y-5.998
X17.7Y-10.9724
X17.8614Y-5.898
X18.1193Y-11.0724
X18.3693Y-10.9724
T13
X11.5079Y-4.3189
X11.7079Y-4.3189
X12.9035Y-3.3561
X12.9035Y-3.5561
X12.9045Y-3.7911
X12.9045Y-3.9911
X13.0512Y-4.3189
X13.2512Y-4.3189
X13.4882Y-4.3189
X13.6882Y-4.3189
T15
X5.374Y-4.3189
X5.374Y-7.3701
X5.374Y-10.4213
X8.622Y-4.3189
X11.9685Y-4.3189
X11.9685Y-10.4213
X15.315Y-4.3189
X15.315Y-10.4213
X18.563Y-4.3189
X18.563Y-10.4213
T3
G00X9.8858Y-4.2411
M15
G01X9.8858Y-4.2156
M16
G05
G00X10.1614Y-4.2411
M15
G01X10.1614Y-4.2156
M16
G05
T4
G00X9.9311Y-4.3346
M15
G01X9.9193Y-4.3346
M16
G05
G00X10.128Y-4.3346
M15
G01X10.1161Y-4.3346
M16
G05
T14
G00X5.7795Y-4.4803
M15
G01X5.7795Y-4.5118
M16
G05
G00X5.7795Y-5.3465
M15
G01X5.7795Y-5.378
M16
G05
G00X5.7795Y-6.4882
M15
G01X5.7795Y-6.5197
M16
G05
G00X5.7795Y-7.3543
M15
G01X5.7795Y-7.3858
M16
G05
G00X5.7795Y-8.2205
M15
G01X5.7795Y-8.252
M16
G05
G00X5.7795Y-9.3622
M15
G01X5.7795Y-9.3937
M16
G05
G00X5.7795Y-10.2283
M15
G01X5.7795Y-10.2598
M16
G05
G00X6.2283Y-4.4799
M15
G01X6.2283Y-4.5114
M16
G05
G00X6.2283Y-5.3465
M15
G01X6.2283Y-5.378
M16
G05
G00X6.2283Y-6.4878
M15
G01X6.2283Y-6.5193
M16
G05
G00X6.2283Y-7.3543
M15
G01X6.2283Y-7.3858
M16
G05
G00X6.2283Y-8.2201
M15
G01X6.2283Y-8.2516
M16
G05
G00X6.2283Y-9.3618
M15
G01X6.2283Y-9.3933
M16
G05
G00X6.2283Y-10.228
M15
G01X6.2283Y-10.2594
M16
G05
G00X6.7165Y-5.9173
M15
G01X6.7165Y-5.9488
M16
G05
G00X7.1654Y-5.9173
M15
G01X7.1654Y-5.9488
M16
G05
G00X7.6693Y-6.1339
M15
G01X7.6693Y-6.1654
M16
G05
G00X7.6693Y-8.5748
M15
G01X7.6693Y-8.6063
M16
G05
G00X8.1181Y-6.1335
M15
G01X8.1181Y-6.165
M16
G05
G00X8.1181Y-8.5744
M15
G01X8.1181Y-8.6059
M16
G05
G00X9.0866Y-4.9134
M15
G01X9.0866Y-4.9449
M16
G05
G00X9.0866Y-7.3543
M15
G01X9.0866Y-7.3858
M16
G05
G00X9.0866Y-9.7953
M15
G01X9.0866Y-9.8268
M16
G05
G00X9.5354Y-4.913
M15
G01X9.5354Y-4.9445
M16
G05
G00X9.5354Y-7.3539
M15
G01X9.5354Y-7.3854
M16
G05
G00X9.5354Y-9.7949
M15
G01X9.5354Y-9.8264
M16
G05
G00X9.5587Y-6.1339
M15
G01X9.5587Y-6.1654
M16
G05
G00X9.5591Y-8.5748
M15
G01X9.5591Y-8.6063
M16
G05
G00X10.0075Y-6.1339
M15
G01X10.0075Y-6.1654
M16
G05
G00X10.0079Y-8.5748
M15
G01X10.0079Y-8.6063
M16
G05
G00X10.5035Y-6.1339
M15
G01X10.5035Y-6.1654
M16
G05
G00X10.5039Y-4.9134
M15
G01X10.5039Y-4.9449
M16
G05
G00X10.5039Y-7.3543
M15
G01X10.5039Y-7.3858
M16
G05
G00X10.5039Y-8.5748
M15
G01X10.5039Y-8.6063
M16
G05
G00X10.5039Y-9.7953
M15
G01X10.5039Y-9.8268
M16
G05
G00X10.9524Y-6.1335
M15
G01X10.9524Y-6.165
M16
G05
G00X10.9528Y-4.913
M15
G01X10.9528Y-4.9445
M16
G05
G00X10.9528Y-7.3539
M15
G01X10.9528Y-7.3854
M16
G05
G00X10.9528Y-8.5744
M15
G01X10.9528Y-8.6059
M16
G05
G00X10.9528Y-9.7949
M15
G01X10.9528Y-9.8264
M16
G05
G00X11.4484Y-6.1339
M15
G01X11.4484Y-6.1654
M16
G05
G00X11.4488Y-8.5748
M15
G01X11.4488Y-8.6063
M16
G05
G00X11.8819Y-4.9134
M15
G01X11.8819Y-4.9449
M16
G05
G00X11.8819Y-7.3543
M15
G01X11.8819Y-7.3858
M16
G05
G00X11.8972Y-6.1339
M15
G01X11.8972Y-6.1654
M16
G05
G00X11.8976Y-8.5748
M15
G01X11.8976Y-8.6063
M16
G05
G00X12.3307Y-4.913
M15
G01X12.3307Y-4.9445
M16
G05
G00X12.3307Y-7.3539
M15
G01X12.3307Y-7.3854
M16
G05
G00X12.3933Y-6.1339
M15
G01X12.3933Y-6.1654
M16
G05
G00X12.3937Y-8.5748
M15
G01X12.3937Y-8.6063
M16
G05
G00X12.8421Y-6.1335
M15
G01X12.8421Y-6.165
M16
G05
G00X12.8425Y-8.5744
M15
G01X12.8425Y-8.6059
M16
G05
G00X13.8106Y-5.3469
M15
G01X13.8106Y-5.3783
M16
G05
G00X13.8106Y-9.3626
M15
G01X13.8106Y-9.3941
M16
G05
G00X14.2594Y-5.3465
M15
G01X14.2594Y-5.378
M16
G05
G00X14.2594Y-9.3622
M15
G01X14.2594Y-9.3937
M16
G05
G00X14.7555Y-5.3469
M15
G01X14.7555Y-5.3783
M16
G05
G00X14.7555Y-7.3547
M15
G01X14.7555Y-7.3862
M16
G05
G00X14.7555Y-9.3626
M15
G01X14.7555Y-9.3941
M16
G05
G00X15.2043Y-5.3465
M15
G01X15.2043Y-5.378
M16
G05
G00X15.2043Y-7.3547
M15
G01X15.2043Y-7.3862
M16
G05
G00X15.2043Y-9.3622
M15
G01X15.2043Y-9.3937
M16
G05
G00X15.3463Y-8.2209
M15
G01X15.3463Y-8.2524
M16
G05
G00X15.7004Y-5.3469
M15
G01X15.7004Y-5.3783
M16
G05
G00X15.7004Y-9.3626
M15
G01X15.7004Y-9.3941
M16
G05
G00X15.7951Y-8.2205
M15
G01X15.7951Y-8.252
M16
G05
G00X16.1337Y-8.2209
M15
G01X16.1337Y-8.2524
M16
G05
G00X16.1492Y-5.3469
M15
G01X16.1492Y-5.3783
M16
G05
G00X16.1492Y-9.3626
M15
G01X16.1492Y-9.3941
M16
G05
G00X16.5825Y-8.2205
M15
G01X16.5825Y-8.252
M16
G05
G00X16.6453Y-5.3469
M15
G01X16.6453Y-5.3783
M16
G05
G00X16.6453Y-9.3626
M15
G01X16.6453Y-9.3941
M16
G05
G00X16.9211Y-8.2209
M15
G01X16.9211Y-8.2524
M16
G05
G00X17.0941Y-5.3465
M15
G01X17.0941Y-5.378
M16
G05
G00X17.0941Y-9.3622
M15
G01X17.0941Y-9.3937
M16
G05
G00X17.3699Y-8.2205
M15
G01X17.3699Y-8.252
M16
G05
G00X17.7087Y-8.2209
M15
G01X17.7087Y-8.2524
M16
G05
G00X18.1575Y-8.2205
M15
G01X18.1575Y-8.252
M16
G05
T0
M30
