M48
; DRILL file {KiCad (5.1.9-0-10_14)} date Tuesday, March 16, 2021 at 03:38:16 PM
; FORMAT={-:-/ absolute / inch / decimal}
; #@! TF.CreationDate,2021-03-16T15:38:16+11:00
; #@! TF.GenerationSoftware,Kicad,Pcbnew,(5.1.9-0-10_14)
; #@! TF.FileFunction,NonPlated,1,4,NPTH
FMAT,2
INCH
T1C0.0354
T2C0.0591
T3C0.0669
T4C0.0941
T5C0.1575
%
G90
G05
T1
X11.0315Y-4.2075
X11.1496Y-4.2075
T2
X17.3622Y-4.8228
X18.315Y-4.8228
T3
X5.4677Y-11.1724
X5.8677Y-11.1724
X6.4343Y-11.1724
X6.8343Y-11.1724
X7.1035Y-11.1724
X7.5035Y-11.1724
X7.7728Y-11.1724
X8.1728Y-11.1724
X8.4421Y-11.1724
X8.8421Y-11.1724
X9.1114Y-11.1724
X9.5114Y-11.1724
X9.7807Y-11.1724
X10.1807Y-11.1724
X10.45Y-11.1724
X10.85Y-11.1724
X11.1193Y-11.1724
X11.5193Y-11.1724
X11.7886Y-11.1724
X12.1886Y-11.1724
X12.4579Y-11.1724
X12.8579Y-11.1724
X13.1272Y-11.1724
X13.5272Y-11.1724
X13.7965Y-11.1724
X14.1965Y-11.1724
X14.4657Y-11.1724
X14.8657Y-11.1724
X15.135Y-11.1724
X15.535Y-11.1724
X15.8043Y-11.1724
X16.2043Y-11.1724
X16.4736Y-11.1724
X16.8736Y-11.1724
X16.9047Y-6.098
X17.3047Y-6.098
X17.4Y-11.1724
X17.5614Y-6.098
X17.8Y-11.1724
X17.9614Y-6.098
X18.0693Y-11.1724
X18.4693Y-11.1724
T4
X15.7439Y-4.4764
X16.3348Y-4.4764
X16.5628Y-4.4764
X17.1537Y-4.4764
T5
X5.6677Y-11.1724
X6.6343Y-11.1724
X7.3035Y-11.1724
X7.9728Y-11.1724
X8.6421Y-11.1724
X9.3114Y-11.1724
X9.9807Y-11.1724
X10.65Y-11.1724
X11.3193Y-11.1724
X11.9886Y-11.1724
X12.6579Y-11.1724
X13.3272Y-11.1724
X13.9965Y-11.1724
X14.6657Y-11.1724
X15.335Y-11.1724
X16.0043Y-11.1724
X16.6736Y-11.1724
X17.1047Y-6.098
X17.6Y-11.1724
X17.7614Y-6.098
X18.2693Y-11.1724
T0
M30
